<svg>
    <symbol id="fb" width="100%" height="100%" viewBox="0 0 9 16" fill="none" xmlns="http://www.w3.org/2000/svg">
        <g>
            <path d="M10.6646 2.65667H12.1253V0.112667C11.8733 0.078 11.0066 0 9.9973 0C7.8913 0 6.44863 1.32467 6.44863 3.75933V6H4.12463V8.844H6.44863V16H9.29797V8.84467H11.528L11.882 6.00067H9.2973V4.04133C9.29797 3.21933 9.5193 2.65667 10.6646 2.65667Z" fill="currentColor"/>
        </g>
    </symbol>


    <symbol id="youtube" width="100%" height="100%" viewBox="0 0 16 16" fill="none" xmlns="http://www.w3.org/2000/svg">
        <g>
            <path d="M15.7235 4.21778C15.5276 3.36687 14.8316 2.73909 13.9938 2.64545C12.0097 2.42396 10.0015 2.42281 8.00256 2.42396C6.00328 2.42281 3.99476 2.42396 2.01067 2.64545C1.17331 2.73909 0.477812 3.36687 0.28193 4.21778C0.00313807 5.42957 0 6.75235 0 7.99998C0 9.2476 0 10.5702 0.278792 11.7818C0.474343 12.6326 1.17 13.2604 2.00787 13.3542C3.99178 13.5758 6.00014 13.577 7.99942 13.5758C9.99903 13.577 12.0069 13.5758 13.9906 13.3542C14.828 13.2605 15.5242 12.6327 15.7201 11.7818C15.999 10.5701 16 9.24744 16 7.99998C16 6.75235 16.0023 5.42957 15.7235 4.21778ZM5.93524 10.4833C5.93524 8.71347 5.93524 6.9621 5.93524 5.19207C7.63095 6.07684 9.31543 6.95566 11.0219 7.84588C9.32071 8.72817 7.63541 9.60171 5.93524 10.4833Z" fill="currentColor"/>
        </g>
    </symbol>
    <symbol id="instagram" width="100%" height="100%" viewBox="0 0 16 16" fill="none" xmlns="http://www.w3.org/2000/svg">
        <g>
            <path d="M15.9844 4.70404C15.9469 3.8539 15.8094 3.26944 15.6125 2.76299C15.4093 2.22541 15.0967 1.74412 14.6872 1.34401C14.2871 0.937683 13.8027 0.621948 13.2713 0.421957C12.7619 0.22502 12.1805 0.0875415 11.3304 0.0500586C10.4739 0.00940124 10.202 0 8.0297 0C5.8574 0 5.58549 0.00940124 4.73218 0.0468842C3.88204 0.0843671 3.29757 0.221967 2.79125 0.418783C2.25355 0.621948 1.77225 0.934509 1.37215 1.34401C0.96582 1.74412 0.650207 2.22858 0.450094 2.75994C0.253157 3.26944 0.115679 3.85073 0.0781958 4.70087C0.0375384 5.55736 0.0281372 5.82926 0.0281372 8.00156C0.0281372 10.1739 0.0375384 10.4458 0.0750213 11.2991C0.112504 12.1492 0.250104 12.7337 0.447042 13.2401C0.650207 13.7777 0.96582 14.259 1.37215 14.6591C1.77225 15.0654 2.25672 15.3812 2.78807 15.5812C3.29757 15.7781 3.87886 15.9156 4.72913 15.9531C5.58232 15.9907 5.85435 16 8.02664 16C10.1989 16 10.4708 15.9907 11.3242 15.9531C12.1743 15.9156 12.7588 15.7781 13.2651 15.5812C14.3404 15.1654 15.1905 14.3153 15.6062 13.2401C15.8031 12.7306 15.9407 12.1492 15.9781 11.2991C16.0156 10.4458 16.025 10.1739 16.025 8.00156C16.025 5.82926 16.0219 5.55736 15.9844 4.70404ZM14.5435 11.2366C14.5091 12.018 14.3779 12.4399 14.2685 12.7212C13.9996 13.4183 13.4464 13.9715 12.7494 14.2403C12.4681 14.3497 12.0431 14.481 11.2647 14.5153C10.4208 14.5529 10.1677 14.5622 8.03287 14.5622C5.89806 14.5622 5.64178 14.5529 4.80092 14.5153C4.01952 14.481 3.59756 14.3497 3.31625 14.2403C2.96938 14.1121 2.65365 13.909 2.39737 13.6433C2.1317 13.3838 1.92853 13.0713 1.80033 12.7244C1.69094 12.4431 1.55969 12.018 1.52538 11.2397C1.48777 10.3958 1.47849 10.1426 1.47849 8.00779C1.47849 5.87297 1.48777 5.6167 1.52538 4.77596C1.55969 3.99455 1.69094 3.5726 1.80033 3.29129C1.92853 2.9443 2.1317 2.62869 2.40055 2.37229C2.65988 2.10661 2.97244 1.90345 3.31943 1.77537C3.60073 1.66597 4.02586 1.53472 4.80409 1.50029C5.64801 1.46281 5.90123 1.45341 8.03592 1.45341C10.1739 1.45341 10.427 1.46281 11.2679 1.50029C12.0493 1.53472 12.4712 1.66597 12.7525 1.77537C13.0994 1.90345 13.4151 2.10661 13.6714 2.37229C13.9371 2.63174 14.1403 2.9443 14.2685 3.29129C14.3779 3.5726 14.5091 3.99761 14.5435 4.77596C14.581 5.61987 14.5904 5.87297 14.5904 8.00779C14.5904 10.1426 14.581 10.3927 14.5435 11.2366Z" fill="currentColor"/>
            <path d="M8.02955 3.89136C5.76043 3.89136 3.91937 5.73229 3.91937 8.00153C3.91937 10.2708 5.76043 12.1117 8.02955 12.1117C10.2988 12.1117 12.1397 10.2708 12.1397 8.00153C12.1397 5.73229 10.2988 3.89136 8.02955 3.89136ZM8.02955 10.6677C6.55746 10.6677 5.36338 9.47375 5.36338 8.00153C5.36338 6.52932 6.55746 5.33536 8.02955 5.33536C9.50176 5.33536 10.6957 6.52932 10.6957 8.00153C10.6957 9.47375 9.50176 10.6677 8.02955 10.6677Z" fill="currentColor"/>
            <path d="M13.2622 3.72883C13.2622 4.25871 12.8325 4.68836 12.3025 4.68836C11.7726 4.68836 11.343 4.25871 11.343 3.72883C11.343 3.19881 11.7726 2.76929 12.3025 2.76929C12.8325 2.76929 13.2622 3.19881 13.2622 3.72883Z" fill="currentColor"/>
        </g>
    </symbol>
    <symbol id="telegram" width="100%" height="100%" viewBox="0 0 16 16" fill="none" xmlns="http://www.w3.org/2000/svg">
        <g>
            <path d="M6.27797 10.1206L6.0133 13.8433C6.39197 13.8433 6.55597 13.6806 6.75263 13.4853L8.52797 11.7886L12.2066 14.4826C12.8813 14.8586 13.3566 14.6606 13.5386 13.8619L15.9533 2.54728L15.954 2.54661C16.168 1.54928 15.5933 1.15928 14.936 1.40394L0.742633 6.83795C-0.226034 7.21395 -0.211367 7.75395 0.577966 7.99861L4.20663 9.12728L12.6353 3.85328C13.032 3.59061 13.3926 3.73595 13.096 3.99861L6.27797 10.1206Z" fill="currentColor"/>
        </g>
    </symbol>

    <symbol id="whatsapp" width="18" height="18" viewBox="0 0 18 18" fill="none" xmlns="http://www.w3.org/2000/svg">
        <g>
            <path d="M8.99995 0.199951C4.13795 0.199951 0.199951 4.13795 0.199951 8.99995C0.199951 10.9359 0.815951 12.7179 1.87195 14.1699L0.661951 17.3599L4.15995 16.3479C5.54595 17.2719 7.21795 17.7999 8.99995 17.7999C13.8619 17.7999 17.7999 13.8619 17.7999 8.99995C17.7999 4.13795 13.8619 0.199951 8.99995 0.199951ZM13.6859 12.6519L12.7399 13.5759C11.7499 14.5659 9.13195 13.4879 6.82195 11.1559C4.51195 8.84595 3.47795 6.22795 4.40195 5.25995L5.34795 4.31395C5.69995 3.96195 6.29395 3.96195 6.66795 4.31395L8.05395 5.69995C8.53795 6.18395 8.33995 7.01995 7.70195 7.21795C7.26195 7.37195 6.95395 7.85595 7.10795 8.29595C7.34995 9.32995 8.69195 10.6059 9.68195 10.8479C10.1219 10.9579 10.6279 10.6939 10.7599 10.2539C10.9579 9.61595 11.7939 9.41795 12.2779 9.90195L13.6639 11.2879C14.0159 11.6619 14.0159 12.2559 13.6859 12.6519Z" fill="currentColor"/>
        </g>
    </symbol>
    <symbol id="viber" width="18" height="18" viewBox="0 0 18 18" fill="none" xmlns="http://www.w3.org/2000/svg">
        <g>
        <path d="M17.3661 10.4198C17.9031 5.89952 17.1081 3.04577 15.6741 1.75502L15.6748 1.75427C13.3603 -0.449982 5.54382 -0.776232 2.77482 1.85327C1.53132 3.13952 1.09332 5.02727 1.04532 7.36427C0.997315 9.70202 0.940315 14.0813 5.02106 15.2693H5.02481L5.02106 17.0835C5.02106 17.0835 4.99331 17.8185 5.46281 17.9663C5.99981 18.1403 6.24281 17.799 7.91306 15.804C10.7061 16.0463 12.8511 15.4913 13.0948 15.4103C13.6588 15.2213 16.8501 14.799 17.3661 10.4198ZM8.18831 14.5275C8.18831 14.5275 6.42056 16.7318 5.87081 17.304C5.69081 17.49 5.49357 17.4728 5.49656 17.1038C5.49656 16.8615 5.51007 14.0918 5.51007 14.0918C2.05032 13.1003 2.25432 9.37127 2.29182 7.42052C2.32932 5.46902 2.68632 3.87077 3.73932 2.79452C6.16857 0.516769 13.0213 1.02602 14.7673 2.66702C16.9018 4.55927 16.1421 9.90527 16.1466 10.0875C15.7078 13.743 13.1218 13.9748 12.6463 14.133C12.4431 14.2005 10.5568 14.6858 8.18831 14.5275Z" fill="currentColor"/>
        <path d="M9.16676 3.22278C8.87801 3.22278 8.87801 3.67278 9.16676 3.67653C11.407 3.69378 13.252 5.25528 13.2723 8.11953C13.2723 8.42178 13.7148 8.41803 13.711 8.11578H13.7103C13.6863 5.02953 11.6718 3.24003 9.16676 3.22278Z" fill="currentColor"/>
        <path d="M12.1132 7.64478C12.1065 7.94328 12.5482 7.95753 12.552 7.65528C12.5887 5.95353 11.5395 4.55178 9.5677 4.40403C9.27895 4.38303 9.24895 4.83678 9.53695 4.85778C11.247 4.98753 12.1477 6.15453 12.1132 7.64478Z" fill="currentColor"/>
        <path d="M11.6407 9.58046C11.2702 9.36596 10.8929 9.49946 10.7369 9.71021L10.4107 10.1325C10.2449 10.347 9.93516 10.3185 9.93516 10.3185C7.67467 9.72071 7.07017 7.35521 7.07017 7.35521C7.07017 7.35521 7.04242 7.03496 7.24942 6.86321L7.65742 6.52571C7.86142 6.36371 7.99042 5.97371 7.78267 5.59046C7.22767 4.58771 6.85492 4.24196 6.66517 3.97646C6.46567 3.72671 6.16567 3.67046 5.85367 3.83921H5.84692C5.19817 4.21871 4.48792 4.92896 4.71517 5.66021C5.10292 6.43121 5.81542 8.88896 8.08642 10.746C9.15367 11.6242 10.8427 12.5242 11.5597 12.732L11.5664 12.7425C12.2729 12.978 12.9599 12.24 13.3267 11.5717V11.5665C13.4894 11.2432 13.4354 10.9372 13.1977 10.737C12.7762 10.326 12.1402 9.87221 11.6407 9.58046Z" fill="currentColor"/>
        <path d="M9.87652 6.07801C10.5973 6.12001 10.9468 6.49651 10.9843 7.26976C10.9978 7.57201 11.4365 7.55101 11.423 7.24876C11.375 6.23926 10.8485 5.67676 9.90052 5.62426C9.61177 5.60701 9.58477 6.06076 9.87652 6.07801Z" fill="currentColor"/>
        </g>
    </symbol>
    <symbol id="phone" width="19" height="19" viewBox="0 0 19 19" fill="none" xmlns="http://www.w3.org/2000/svg">
        <g>
            <path d="M18.4828 13.9441L15.8313 11.2926C14.8843 10.3456 13.2745 10.7244 12.8957 11.9555C12.6116 12.8078 11.6647 13.2812 10.8124 13.0918C8.91845 12.6183 6.36164 10.1562 5.88816 8.16759C5.60407 7.31528 6.17225 6.36831 7.02452 6.08426C8.25558 5.70547 8.63437 4.09563 7.6874 3.14866L5.03589 0.497158C4.27832 -0.165719 3.14196 -0.165719 2.47908 0.497158L0.679845 2.29639C-1.11939 4.19033 0.869239 9.20925 5.31998 13.66C9.77073 18.1107 14.7896 20.1941 16.6836 18.3001L18.4828 16.5009C19.1457 15.7433 19.1457 14.607 18.4828 13.9441Z" fill="currentColor"/>
        </g>
    </symbol>
    <symbol id="suns" width="19" height="19" viewBox="0 0 19 19" fill="none" xmlns="http://www.w3.org/2000/svg">
        <g>
            <path d="M9.49963 3.93359C6.4305 3.93359 3.93323 6.43087 3.93323 9.5C3.93323 12.5691 6.4305 15.0664 9.49963 15.0664C12.5688 15.0664 15.066 12.5691 15.066 9.5C15.066 6.43087 12.5688 3.93359 9.49963 3.93359Z" fill="currentColor"/>
            <path d="M15.2778 12.8398C14.6989 13.8529 13.8417 14.699 12.8286 15.2891L16.1796 16.1908L15.2778 12.8398Z" fill="currentColor"/>
            <path d="M9.49957 0L7.78516 3.05406C8.33066 2.89824 8.9095 2.82031 9.49957 2.82031C10.0896 2.82031 10.6685 2.89824 11.214 3.05406L9.49957 0Z" fill="currentColor"/>
            <path d="M2.81995 2.82031L3.7217 6.16016C4.30065 5.14703 5.13561 4.31207 6.14866 3.72207L2.81995 2.82031Z" fill="currentColor"/>
            <path d="M3.05371 7.77441L0.0107422 9.5L3.05371 11.2256C2.89785 10.6801 2.81989 10.1012 2.81989 9.5C2.81989 8.89879 2.89781 8.31992 3.05371 7.77441Z" fill="currentColor"/>
            <path d="M3.7217 12.8398L2.81995 16.1908L6.17092 15.2891C5.15784 14.699 4.30065 13.8529 3.7217 12.8398Z" fill="currentColor"/>
            <path d="M9.49991 16.1797C8.89877 16.1797 8.31983 16.1018 7.76318 15.9459L9.49991 19.0001L11.2366 15.9459C10.68 16.1018 10.101 16.1797 9.49991 16.1797Z" fill="currentColor"/>
            <path d="M12.8466 3.72779C13.8537 4.31393 14.693 5.1539 15.2777 6.16202L16.1842 2.82202L12.8466 3.72779Z" fill="currentColor"/>
            <path d="M18.989 9.50532L15.9479 7.78381C16.0941 8.33251 16.1796 8.90574 16.1796 9.4999C16.1796 10.0987 16.093 10.6764 15.9445 11.2289L18.989 9.50532Z" fill="currentColor"/>
        </g>
    </symbol>
    <symbol id="switch" width="57" height="24" viewBox="0 0 57 24" fill="none" xmlns="http://www.w3.org/2000/svg">
        <g>
            <rect x="0.5" y="0.5" width="56" height="23" rx="11.5" stroke="currentColor"/>
            <circle cx="45" cy="12" r="8" fill="currentColor"/>
        </g>
    </symbol>
    <symbol id="moons" width="17" height="17" viewBox="0 0 17 17" fill="none" xmlns="http://www.w3.org/2000/svg">
        <g>
            <path d="M8.95613 16.9994C12.2084 17.0337 15.1792 15.1596 16.5491 12.2099C15.6869 12.5861 14.7532 12.7703 13.8128 12.7498C10.1264 12.7457 7.13903 9.7583 7.13488 6.07193C7.17178 3.57839 8.54765 1.29753 10.736 0.101599C10.1458 0.0264547 9.55105 -0.0071898 8.95613 0.00111016C4.26206 0.00111016 0.45697 3.80634 0.45697 8.50026C0.45697 13.1943 4.26206 16.9994 8.95613 16.9994Z" fill="currentColor"/>
        </g>
    </symbol>
    <symbol id="switcher" width="71" height="30" viewBox="0 0 71 30" fill="none" xmlns="http://www.w3.org/2000/svg">
        <g>
            <rect width="71" height="30" rx="15" fill="white" fill-opacity="0.5"/>
            <circle cx="15" cy="15" r="10" fill="white"/>
        </g>
    </symbol>
    <symbol id="sun" width="24" height="24" viewBox="0 0 24 24" fill="none" xmlns="http://www.w3.org/2000/svg">
        <g>
            <path d="M11.9995 4.96875C8.12271 4.96875 4.96826 8.1232 4.96826 12C4.96826 15.8768 8.12271 19.0312 11.9995 19.0312C15.8763 19.0312 19.0308 15.8768 19.0308 12C19.0308 8.1232 15.8763 4.96875 11.9995 4.96875Z" fill="white"/>
            <path d="M19.2983 16.2188C18.5671 17.4984 17.4843 18.5671 16.2046 19.3125L20.4374 20.4516L19.2983 16.2188Z" fill="white"/>
            <path d="M11.9996 0L9.83398 3.85777C10.523 3.66094 11.2542 3.5625 11.9996 3.5625C12.7449 3.5625 13.4761 3.66094 14.1652 3.85777L11.9996 0Z" fill="white"/>
            <path d="M3.56201 3.5625L4.70107 7.78125C5.43237 6.50152 6.48706 5.44683 7.7667 4.70156L3.56201 3.5625Z" fill="white"/>
            <path d="M3.85742 9.82031L0.0136719 12L3.85742 14.1797C3.66055 13.4906 3.56206 12.7594 3.56206 12C3.56206 11.2406 3.6605 10.5094 3.85742 9.82031Z" fill="white"/>
            <path d="M4.70107 16.2188L3.56201 20.4516L7.79482 19.3125C6.51514 18.5671 5.43237 17.4984 4.70107 16.2188Z" fill="white"/>
            <path d="M11.9999 20.4376C11.2406 20.4376 10.5093 20.3391 9.80615 20.1422L11.9999 24.0001L14.1937 20.1422C13.4905 20.3391 12.7592 20.4376 11.9999 20.4376Z" fill="white"/>
            <path d="M16.2271 4.70882C17.4992 5.44922 18.5594 6.51023 19.298 7.78364L20.443 3.5647L16.2271 4.70882Z" fill="white"/>
            <path d="M23.9863 12.0068L20.1448 9.83228C20.3296 10.5254 20.4375 11.2495 20.4375 12C20.4375 12.7563 20.3282 13.4861 20.1406 14.184L23.9863 12.0068Z" fill="white"/>
        </g>
    </symbol>
    <symbol id="moon" width="21" height="21" viewBox="0 0 21 21" fill="none" xmlns="http://www.w3.org/2000/svg">
        <g>
            <path d="M11.0634 20.9993C15.0809 21.0416 18.7507 18.7266 20.443 15.0828C19.378 15.5475 18.2245 15.7751 17.0628 15.7498C12.5091 15.7447 8.81876 12.0544 8.81363 7.50065C8.85922 4.42039 10.5588 1.60286 13.2621 0.125533C12.5331 0.032708 11.7983 -0.00885279 11.0634 0.00140009C5.26485 0.00140009 0.564453 4.70198 0.564453 10.5004C0.564453 16.2989 5.26485 20.9993 11.0634 20.9993Z" fill="white"/>
        </g>
    </symbol>
    <symbol id="arrow-right" width="62" height="24" viewBox="0 0 62 24" fill="none" xmlns="http://www.w3.org/2000/svg">
        <g>
            <path d="M60.5694 13.0607C61.1552 12.4749 61.1552 11.5251 60.5694 10.9393L51.0235 1.3934C50.4377 0.807611 49.488 0.807611 48.9022 1.3934C48.3164 1.97919 48.3164 2.92893 48.9022 3.51472L57.3875 12L48.9022 20.4853C48.3164 21.0711 48.3164 22.0208 48.9022 22.6066C49.488 23.1924 50.4377 23.1924 51.0235 22.6066L60.5694 13.0607ZM0.508789 13.5H59.5088V10.5H0.508789V13.5Z" fill="currentColor"/>
        </g>
    </symbol>
    <symbol id="arrow-left" width="13" height="24" viewBox="0 0 13 24" fill="none" xmlns="http://www.w3.org/2000/svg">
        <g>
            <path d="M0.448129 10.9393C-0.137658 11.5251 -0.137658 12.4749 0.448129 13.0607L9.99407 22.6066C10.5799 23.1924 11.5296 23.1924 12.1154 22.6066C12.7012 22.0208 12.7012 21.0711 12.1154 20.4853L3.63011 12L12.1154 3.51472C12.7012 2.92893 12.7012 1.97919 12.1154 1.3934C11.5296 0.807611 10.5799 0.807611 9.99407 1.3934L0.448129 10.9393ZM4.50879 10.5H1.50879V13.5H4.50879V10.5Z" fill="currentColor"/>
        </g>
    </symbol>
    <symbol id="people" width="100%" height="100%" viewBox="0 0 25 36" fill="none" xmlns="http://www.w3.org/2000/svg">
        <g>
            <path d="M12.5009 17.6064C15.9476 17.6064 18.742 13.6651 18.742 8.80324C18.742 3.94128 17.8245 0 12.5009 0C7.17737 0 6.25977 3.94128 6.25977 8.80324C6.25977 13.6651 9.0541 17.6064 12.5009 17.6064Z" fill="currentColor"/>
            <path d="M24.2743 30.6922C24.1587 22.2227 23.2062 19.8094 15.9174 18.2817C15.9174 18.2817 14.8914 19.8 12.5 19.8C10.1085 19.8 9.08236 18.2817 9.08236 18.2817C1.87309 19.7927 0.862663 22.1702 0.729805 30.417C0.718911 31.0904 0.713863 31.1258 0.711914 31.0476C0.712357 31.1941 0.712888 31.465 0.712888 31.9375C0.712888 31.9375 2.44818 35.9999 12.5 35.9999C22.5516 35.9999 24.2871 31.9375 24.2871 31.9375C24.2871 31.6339 24.2872 31.4229 24.2875 31.2793C24.2856 31.3276 24.2817 31.2339 24.2743 30.6922Z" fill="currentColor"/>
        </g>
    </symbol>
    <symbol id="video" width="115" height="115" viewBox="0 0 115 115" fill="none" xmlns="http://www.w3.org/2000/svg">
        <g>
            <circle cx="57.5" cy="57.5" r="56" stroke="currentColor" stroke-width="3"/>
            <path d="M67 57.5L53.5 64.8612L53.5 50.1388L67 57.5Z" fill="currentColor"/>
        </g>
    </symbol>
    <symbol id="menu" width="100%" height="100%" viewBox="0 0 23 17" fill="none" xmlns="http://www.w3.org/2000/svg">
        <g>
            <line x1="1.5" y1="1.5" x2="21.5" y2="1.5" stroke="currentColor" stroke-width="3" stroke-linecap="round"/>
            <line x1="1.5" y1="8.5" x2="21.5" y2="8.5" stroke="currentColor" stroke-width="3" stroke-linecap="round"/>
            <line x1="1.5" y1="15.5" x2="21.5" y2="15.5" stroke="currentColor" stroke-width="3" stroke-linecap="round"/>
        </g>
    </symbol>

    <symbol id="close" width="20" height="20" viewBox="0 0 20 20" fill="none" xmlns="http://www.w3.org/2000/svg">
        <g>
            <line x1="3" y1="16.2634" x2="17.1421" y2="2.12131" stroke="currentColor" stroke-width="3" stroke-linecap="round"/>
            <line x1="17.1421" y1="16.2634" x2="2.99997" y2="2.12129" stroke="currentColor" stroke-width="3" stroke-linecap="round"/>
        </g>
    </symbol>
    <symbol id="anchor" width="18" height="18" viewBox="0 0 18 18" fill="none" xmlns="http://www.w3.org/2000/svg">
        <g>
            <path d="M12.6914 11.6367H13.7461V12.1641C13.7461 13.0364 13.0364 13.7461 12.1641 13.7461C11.2917 13.7461 10.582 13.0364 10.582 12.1641V9.32602L12.6914 8.27133V6.36328H10.582V4.74609C11.2392 4.25171 11.6367 3.46893 11.6367 2.63672C11.6367 1.18295 10.4538 0 9 0C7.54623 0 6.36328 1.18295 6.36328 2.63672C6.36328 3.46893 6.76085 4.25171 7.41797 4.74609V6.36328H5.30859V8.27133L7.41797 9.32602V12.1641C7.41797 13.0364 6.70825 13.7461 5.83594 13.7461C4.96362 13.7461 4.25391 13.0364 4.25391 12.1641V11.6367H5.30859L2.67188 6.99472L0 11.6367H1.08984V12.1641C1.08984 14.7811 3.21886 16.9453 5.83594 16.9453C6.76593 16.9453 7.66722 17.1116 8.44176 17.6277L9 18L9.55824 17.6277C10.3328 17.1116 11.2341 16.9453 12.1641 16.9453C14.7811 16.9453 16.9102 14.7811 16.9102 12.1641V11.6367H18L15.3281 6.99472L12.6914 11.6367ZM9.52734 3.16406H8.47266V2.10938H9.52734V3.16406Z" fill="currentColor"/>
        </g>
    </symbol>
    <symbol id="key" width="18" height="18" viewBox="0 0 18 18" fill="none" xmlns="http://www.w3.org/2000/svg">
        <g>
            <path d="M15.9078 4.09106H15.5333C15.6023 4.42769 15.637 4.77031 15.637 5.11383V5.31832C15.637 5.54424 15.4527 5.72746 15.2255 5.72746C14.9982 5.72746 14.8139 5.54424 14.8139 5.31832V5.2599C14.8457 2.64598 12.9241 0.413329 10.3218 0.0402971C7.97283 -0.254533 5.72487 1.08239 4.87499 3.27923C2.9406 3.30305 1.2859 4.66724 0.904206 6.55277C0.522664 8.43816 1.51796 10.3325 3.29261 11.0982V15.9545C3.29261 16.0182 3.30753 16.0808 3.33601 16.1377L4.15907 17.774C4.21814 17.8916 4.33055 17.9737 4.4612 17.9945C4.4829 17.9983 4.5049 18.0002 4.52705 18.0001C4.63615 18.0001 4.74088 17.9569 4.81788 17.8801L6.46384 16.2438C6.62448 16.084 6.62448 15.8251 6.46384 15.6654L5.93176 15.1364L6.46384 14.6074C6.62448 14.4477 6.62448 14.1887 6.46384 14.029L5.93176 13.5L6.46384 12.971C6.541 12.8943 6.58439 12.7903 6.58439 12.6819V11.0982C7.0354 10.8982 7.44663 10.6193 7.79819 10.2744C8.39371 10.5117 9.02901 10.6345 9.67049 10.6365C10.3037 10.6356 10.9314 10.5189 11.5221 10.2924V12.5421C11.5244 13.2961 12.1388 13.9069 12.8972 13.9091H15.9078C16.6663 13.9069 17.2807 13.2961 17.2828 12.5421V5.4581C17.2807 4.70409 16.6663 4.09331 15.9078 4.09106ZM11.5221 5.4581V9.39575C10.5339 9.85852 9.40708 9.93553 8.36447 9.61163C8.81247 8.94647 9.05221 8.16415 9.05327 7.3637C9.0501 5.69555 8.02889 4.19638 6.47198 3.57421C6.27729 4.06455 6.17588 4.58664 6.17286 5.11383V5.31832L6.17196 5.32327C6.42451 5.51967 6.57565 5.81779 6.58439 6.13645C6.58439 6.82438 5.86154 7.3637 4.93843 7.3637C4.01546 7.3637 3.29261 6.82438 3.29261 6.13645C3.29261 5.55323 3.8146 5.08042 4.53519 4.94904C4.53353 5.00417 4.52705 5.0581 4.52705 5.11383V5.79562C4.27314 5.87877 4.11552 6.02274 4.11552 6.13645C4.11552 6.30349 4.43618 6.54558 4.93843 6.54558C5.44082 6.54558 5.76149 6.30349 5.76149 6.13645C5.76149 6.02274 5.60387 5.87877 5.34996 5.79562V5.23922C5.32208 3.08043 6.88125 1.22381 9.02268 0.865611C11.2295 0.537523 13.3241 1.93602 13.8536 4.09106H12.8972C12.1388 4.09331 11.5244 4.70409 11.5221 5.4581Z" fill="currentColor"/>
        </g>
    </symbol>
    <symbol id="hotel" width="18" height="18" viewBox="0 0 18 18" fill="none" xmlns="http://www.w3.org/2000/svg">
        <g>
            <path d="M4.5 18H6.29297C6.39003 18 6.46875 17.9213 6.46875 17.8242V14.217C6.46875 14.1349 6.41141 14.0656 6.33175 14.0457C6.07894 13.9825 5.89405 13.7483 5.90685 13.4731C5.92095 13.1704 6.18152 12.9375 6.4845 12.9375H11.5154C11.8184 12.9375 12.079 13.1704 12.0931 13.4731C12.1059 13.7483 11.921 13.9825 11.6682 14.0457C11.5885 14.0656 11.5312 14.1349 11.5312 14.217V17.8242C11.5312 17.9213 11.6099 18 11.707 18H13.3241C13.4212 18 13.4999 17.9215 13.4999 17.8245C13.4999 16.126 13.4999 2.97851 13.4999 3.375C13.4999 3.06432 13.2481 2.8125 12.9374 2.8125H5.0625C4.75182 2.8125 4.5 3.06432 4.5 3.375V18ZM10.9687 5.0625C10.9687 4.75172 11.2205 4.5 11.5312 4.5C11.842 4.5 12.0937 4.75172 12.0937 5.0625V5.625C12.0937 5.93578 11.842 6.1875 11.5312 6.1875C11.2205 6.1875 10.9687 5.93578 10.9687 5.625V5.0625ZM10.9687 7.875C10.9687 7.56422 11.2205 7.3125 11.5312 7.3125C11.842 7.3125 12.0937 7.56422 12.0937 7.875V8.4375C12.0937 8.74828 11.842 9 11.5312 9C11.2205 9 10.9687 8.74828 10.9687 8.4375V7.875ZM10.9687 10.6875C10.9687 10.3767 11.2205 10.125 11.5312 10.125C11.842 10.125 12.0937 10.3767 12.0937 10.6875V11.25C12.0937 11.5608 11.842 11.8125 11.5312 11.8125C11.2205 11.8125 10.9687 11.5608 10.9687 11.25V10.6875ZM8.4375 5.0625C8.4375 4.75172 8.68922 4.5 9 4.5C9.31078 4.5 9.5625 4.75172 9.5625 5.0625V5.625C9.5625 5.93578 9.31078 6.1875 9 6.1875C8.68922 6.1875 8.4375 5.93578 8.4375 5.625V5.0625ZM8.4375 7.875C8.4375 7.56422 8.68922 7.3125 9 7.3125C9.31078 7.3125 9.5625 7.56422 9.5625 7.875V8.4375C9.5625 8.74828 9.31078 9 9 9C8.68922 9 8.4375 8.74828 8.4375 8.4375V7.875ZM8.4375 10.6875C8.4375 10.3767 8.68922 10.125 9 10.125C9.31078 10.125 9.5625 10.3767 9.5625 10.6875V11.25C9.5625 11.5608 9.31078 11.8125 9 11.8125C8.68922 11.8125 8.4375 11.5608 8.4375 11.25V10.6875ZM5.90625 5.0625C5.90625 4.75172 6.15797 4.5 6.46875 4.5C6.77953 4.5 7.03125 4.75172 7.03125 5.0625V5.625C7.03125 5.93578 6.77953 6.1875 6.46875 6.1875C6.15797 6.1875 5.90625 5.93578 5.90625 5.625V5.0625ZM5.90625 7.875C5.90625 7.56422 6.15797 7.3125 6.46875 7.3125C6.77953 7.3125 7.03125 7.56422 7.03125 7.875V8.4375C7.03125 8.74828 6.77953 9 6.46875 9C6.15797 9 5.90625 8.74828 5.90625 8.4375V7.875ZM5.90625 10.6875C5.90625 10.3767 6.15797 10.125 6.46875 10.125C6.77953 10.125 7.03125 10.3767 7.03125 10.6875V11.25C7.03125 11.5608 6.77953 11.8125 6.46875 11.8125C6.15797 11.8125 5.90625 11.5608 5.90625 11.25V10.6875Z" fill="currentColor"/>
            <path d="M7.76953 18H10.2305C10.3275 18 10.4062 17.9213 10.4062 17.8242V14.2383C10.4062 14.1412 10.3275 14.0625 10.2305 14.0625H7.76953C7.67246 14.0625 7.59375 14.1412 7.59375 14.2383V17.8242C7.59375 17.9213 7.67246 18 7.76953 18Z" fill="currentColor"/>
            <path d="M12.0938 0.5625C12.0938 0.251824 11.8419 0 11.5312 0H6.46875C6.15807 0 5.90625 0.251824 5.90625 0.5625V1.51172C5.90625 1.60879 5.98496 1.6875 6.08203 1.6875H11.918C12.015 1.6875 12.0938 1.60879 12.0938 1.51172V0.5625Z" fill="currentColor"/>
            <path d="M17.4375 6.46875H14.8008C14.7037 6.46875 14.625 6.54746 14.625 6.64453V17.8242C14.625 17.9213 14.7037 18 14.8008 18H17.4375C17.7482 18 18 17.7482 18 17.4375V7.03125C18 6.72057 17.7482 6.46875 17.4375 6.46875ZM16.875 14.9062C16.875 15.217 16.6233 15.4688 16.3125 15.4688C16.0017 15.4688 15.75 15.217 15.75 14.9062V14.3438C15.75 14.033 16.0017 13.7812 16.3125 13.7812C16.6233 13.7812 16.875 14.033 16.875 14.3438V14.9062ZM16.875 12.375C16.875 12.6858 16.6233 12.9375 16.3125 12.9375C16.0017 12.9375 15.75 12.6858 15.75 12.375V11.8125C15.75 11.5017 16.0017 11.25 16.3125 11.25C16.6233 11.25 16.875 11.5017 16.875 11.8125V12.375ZM16.875 9.84375C16.875 10.1545 16.6233 10.4062 16.3125 10.4062C16.0017 10.4062 15.75 10.1545 15.75 9.84375V9.28125C15.75 8.97047 16.0017 8.71875 16.3125 8.71875C16.6233 8.71875 16.875 8.97047 16.875 9.28125V9.84375Z" fill="currentColor"/>
            <path d="M0 7.03125V17.4375C0 17.7482 0.251824 18 0.5625 18H3.19922C3.29629 18 3.375 17.9213 3.375 17.8242V6.64453C3.375 6.54746 3.29629 6.46875 3.19922 6.46875H0.5625C0.251824 6.46875 0 6.72057 0 7.03125ZM1.125 9.28125C1.125 8.97047 1.37672 8.71875 1.6875 8.71875C1.99828 8.71875 2.25 8.97047 2.25 9.28125V9.84375C2.25 10.1545 1.99828 10.4062 1.6875 10.4062C1.37672 10.4062 1.125 10.1545 1.125 9.84375V9.28125ZM1.125 11.8125C1.125 11.5017 1.37672 11.25 1.6875 11.25C1.99828 11.25 2.25 11.5017 2.25 11.8125V12.375C2.25 12.6858 1.99828 12.9375 1.6875 12.9375C1.37672 12.9375 1.125 12.6858 1.125 12.375V11.8125ZM1.125 14.3438C1.125 14.033 1.37672 13.7812 1.6875 13.7812C1.99828 13.7812 2.25 14.033 2.25 14.3438V14.9062C2.25 15.217 1.99828 15.4688 1.6875 15.4688C1.37672 15.4688 1.125 15.217 1.125 14.9062V14.3438Z" fill="currentColor"/>
        </g>
    </symbol>
    <symbol id="secure" width="18" height="18" viewBox="0 0 18 18" fill="none" xmlns="http://www.w3.org/2000/svg">
        <g>
            <path d="M16.8176 2.51918C16.7853 2.2871 16.6183 2.0962 16.3926 2.03345L9.15806 0.0215294C9.05493 -0.00717647 8.94598 -0.00717647 8.84277 0.0215294L1.60826 2.03345C1.38253 2.0962 1.21555 2.28702 1.18324 2.51918C1.14128 2.8209 0.184025 9.95 2.63932 13.4965C5.09171 17.0388 8.70951 17.9465 8.8623 17.9835C8.90771 17.9945 8.95399 17.9999 9.00042 17.9999C9.04685 17.9999 9.09312 17.9944 9.13853 17.9835C9.2914 17.9465 12.9092 17.0388 15.3615 13.4965C17.8168 9.95008 16.8596 2.82098 16.8176 2.51918ZM13.6657 6.68121L8.73108 11.6159C8.61626 11.7307 8.46567 11.7882 8.31516 11.7882C8.16465 11.7882 8.01406 11.7308 7.89924 11.6159L4.84818 8.56482C4.73783 8.45455 4.67587 8.3049 4.67587 8.1489C4.67587 7.9929 4.73791 7.84325 4.84818 7.73298L5.45399 7.12718C5.68371 6.89753 6.05618 6.89745 6.28583 7.12718L8.31516 9.15651L12.2281 5.24349C12.3384 5.13314 12.488 5.07118 12.644 5.07118C12.8 5.07118 12.9497 5.13314 13.0599 5.24349L13.6657 5.84929C13.8955 6.07902 13.8955 6.45149 13.6657 6.68121Z" fill="currentColor"/>
        </g>
    </symbol>
    <symbol id="money" width="19" height="18" viewBox="0 0 19 18" fill="none" xmlns="http://www.w3.org/2000/svg">
        <g>
            <path d="M12.2646 6.39844C9.04884 6.39844 6.43262 9.00067 6.43262 12.1992C6.43262 15.3978 9.04884 18 12.2646 18C15.4803 18 18.0966 15.3978 18.0966 12.1992C18.0966 9.00067 15.4803 6.39844 12.2646 6.39844ZM12.2646 11.6719C13.1416 11.6719 13.8551 12.3815 13.8551 13.2539C13.8551 13.9405 13.4106 14.5204 12.7948 14.7388V15.8906H11.7344V14.7388C11.1186 14.5204 10.674 13.9405 10.674 13.2539H11.7344C11.7344 13.5449 11.9721 13.7812 12.2646 13.7812C12.5571 13.7812 12.7948 13.5449 12.7948 13.2539C12.7948 12.963 12.5571 12.7266 12.2646 12.7266C11.3875 12.7266 10.674 12.0169 10.674 11.1445C10.674 10.4579 11.1186 9.87806 11.7344 9.65964V8.50781H12.7948V9.65964C13.4106 9.87806 13.8551 10.4579 13.8551 11.1445H12.7948C12.7948 10.8536 12.5571 10.6172 12.2646 10.6172C11.9721 10.6172 11.7344 10.8536 11.7344 11.1445C11.7344 11.4355 11.9721 11.6719 12.2646 11.6719Z" fill="currentColor"/>
            <path d="M5.90266 6.39844C9.1728 6.39844 11.7346 5.0085 11.7346 3.23438C11.7346 1.46025 9.1728 0 5.90266 0C2.63252 0 0 1.46025 0 3.23438C0 5.0085 2.63252 6.39844 5.90266 6.39844Z" fill="currentColor"/>
            <path d="M0 11.8673V12.7266C0 14.5007 2.63252 15.8906 5.90266 15.8906C6.08815 15.8906 6.26788 15.8736 6.45051 15.8648C6.04383 15.2287 5.74053 14.523 5.56193 13.7686C3.19716 13.7036 1.14384 12.9808 0 11.8673Z" fill="currentColor"/>
            <path d="M5.39796 12.6997C5.38581 12.5338 5.37248 12.3681 5.37248 12.1992C5.37248 11.6495 5.4449 11.1174 5.5684 10.6048C3.20069 10.541 1.14487 9.81781 0 8.70325V9.5625C0 11.2425 2.37739 12.5628 5.39796 12.6997Z" fill="currentColor"/>
            <path d="M5.90266 9.5625C5.90322 9.5625 5.90368 9.56243 5.90428 9.56243C6.25396 8.7312 6.76226 7.98188 7.39349 7.35406C6.91466 7.41424 6.41983 7.45313 5.90266 7.45313C3.38547 7.45313 1.19912 6.70651 0 5.53918V6.39844C0 8.17256 2.63252 9.5625 5.90266 9.5625Z" fill="currentColor"/>
        </g>
    </symbol>

    <symbol id="fff" width="9" height="9" viewBox="0 0 9 9" fill="none" xmlns="http://www.w3.org/2000/svg">
        <g></g>
    </symbol>
</svg>











