<?xml version="1.0" encoding="UTF-8" standalone="no"?>
<!-- Created with Inkscape (http://www.inkscape.org/) -->

<svg
    version="1.1"
    id="svg2"
    width="254"
    height="254"
    viewBox="0 0 254 254"
    xmlns="http://www.w3.org/2000/svg"
    xmlns:svg="http://www.w3.org/2000/svg">
    <g>
        <path
        style="fill:#B09470;stroke-width:0.255802"
        d="m 0.00263824,250.0512 c 0.00935309,-13.38114 3.21517456,-29.30619 8.68599236,-43.14799 1.6537144,-4.1841 5.3204184,-11.82264 7.2024164,-15.00422 l 1.135275,-1.9192 -0.605972,-1.02359 C 15.03805,186.62128 10.440362,176.93125 9.135387,173.60248 3.5491441,159.35297 0.25570854,143.02772 0.25570854,129.58674 v -4.14183 l 5.02419726,-0.1789 c 17.5757952,-0.62582 34.3867262,-4.76127 50.2052382,-12.35037 5.937416,-2.84854 5.801259,-2.20212 1.122131,-5.32745 l -3.99535,-2.66861 -1.442085,0.72849 c -5.049582,2.55089 -15.022381,6.11769 -21.763358,7.78375 -7.633882,1.88673 -15.533716,2.94959 -23.5005764,3.16178 l -5.47312452,0.14578 0.16717228,-0.83647 c 0.0919448,-0.46006 0.16717227,-1.16754 0.16717227,-1.57217 v -0.7357 l 4.15526387,-0.005 C 18.319386,113.57339 34.64926,109.836 47.606062,103.82078 l 2.217794,-1.02961 -2.551626,-2.08316 c -1.403395,-1.145735 -2.885228,-2.35299 -3.292966,-2.682772 l -0.741335,-0.599617 -2.520212,1.034188 C 29.800348,102.93987 18.723973,105.27395 4.6666809,106.05672 1.2735617,106.24566 1.5014628,106.63721 2.4094489,102.17861 3.9777855,94.477401 6.2254224,86.90213 9.0064677,79.944501 10.483699,76.248765 13.898594,69.014245 15.629503,65.913477 16.331876,64.65524 16.414008,64.343684 16.153411,63.926096 14.115498,60.660806 10.038628,51.802922 7.8269069,45.835273 3.0977287,33.075036 0,16.411334 0,3.7317664 V -0.09496003 L 5.9452237,0.05045909 C 20.130698,0.39743329 34.581694,3.3935507 48.456769,8.8643558 52.675098,10.527602 58.489857,13.195376 61.838972,15.004023 l 2.386735,1.288928 4.900958,-2.509425 C 84.419821,5.9530145 99.798987,1.6332405 117.41182,0.22096189 c 5.63066,-0.45149336 19.11838,-0.17917036 24.63428,0.49737721 15.9996,1.9624171 31.68866,6.8830841 44.81626,14.0560319 l 2.88007,1.573674 2.57849,-1.428628 C 208.55127,5.9269199 228.79953,0.52086666 248.01406,0.0499921 L 254,-0.09670006 253.83821,5.50614 c -0.55216,19.120776 -4.85233,36.285181 -13.33102,53.211584 l -2.82613,5.641921 2.57524,5.105681 c 1.41638,2.808126 3.23828,6.717825 4.04867,8.688217 2.95315,7.180389 5.9284,17.068559 7.29401,24.241427 1.25518,6.59284 2.31566,17.46451 2.31842,23.76758 l 0.002,2.71554 -4.66669,0.17422 c -10.37137,0.38718 -20.63648,1.90701 -29.64804,4.38962 -8.25265,2.27353 -17.40072,5.89016 -24.57141,9.71413 l -2.24668,1.19811 2.23159,1.40215 c 1.22738,0.77119 3.04797,1.97256 4.04576,2.66973 l 1.81417,1.26757 3.18725,-1.51755 c 13.30656,-6.33575 28.74238,-9.98761 44.16444,-10.4486 l 5.1781,-0.15479 -0.004,0.99787 c -0.008,2.23908 0.16197,2.14939 -4.06977,2.14939 -13.67825,0 -30.52479,3.83472 -43.48854,9.89913 l -2.42923,1.13639 0.75946,0.55814 c 0.41771,0.30698 1.90363,1.48924 3.30205,2.62725 l 2.54258,2.06911 3.09067,-1.25698 c 8.1569,-3.31741 16.53255,-5.50368 25.74097,-6.71909 3.52478,-0.46524 12.71497,-1.02869 12.94955,-0.79394 0.43098,0.43131 -2.08307,11.12875 -4.05188,17.24092 -2.3544,7.30924 -5.7757,15.36926 -9.06282,21.35048 l -1.6542,3.00999 1.6501,3.06093 c 6.35046,11.78019 11.01548,25.29426 13.1836,38.19158 1.09591,6.51909 1.79665,13.80109 1.79665,18.67046 v 4.13899 l -4.92228,-0.1792 c -18.84592,-0.68609 -35.57076,-4.75567 -51.71706,-12.58406 -2.10959,-1.02283 -4.63779,-2.30743 -5.6182,-2.85467 l -1.78257,-0.995 -4.86585,2.48985 c -6.38737,3.26842 -11.11558,5.26663 -17.55455,7.41879 -26.0784,8.71646 -54.95467,8.70963 -80.900626,-0.0191 -5.532694,-1.86132 -10.390497,-3.91131 -16.421132,-6.92975 -3.265396,-1.63438 -6.027048,-2.88182 -6.137005,-2.77208 -0.109958,0.10971 -2.213629,1.22181 -4.674823,2.47131 -16.235501,8.24244 -32.369135,12.53674 -51.1417094,13.61243 -2.4611945,0.14102 -5.251614,0.25809 -6.2009319,0.26013 L 0,253.82578 Z m 12.10835276,0.31923 c 15.525367,-1.48839 30.726304,-5.76308 45.136647,-12.69299 l 4.188115,-2.01406 -4.025695,-2.6708 -4.025693,-2.67081 -3.245131,1.48756 c -9.263188,4.24622 -18.819778,7.24105 -28.148299,8.8211 -4.287457,0.7262 -9.398225,1.31649 -9.605183,1.10937 -0.213733,-0.21388 0.597387,-6.19742 1.448962,-10.68883 4.705093,-24.81572 18.463321,-48.63857 37.6574,-65.20509 0.540013,-0.4661 0.940992,-0.88742 0.891062,-0.93627 -0.263807,-0.25817 -7.595499,-3.97394 -7.841072,-3.97394 -0.426923,0 -6.563573,6.02242 -9.546814,9.3691 -15.030673,16.86184 -24.946688,36.47069 -29.3600421,58.0593 -1.3164303,6.43953 -2.5667454,16.81056 -2.5667454,21.29046 v 1.10038 h 2.5160151 c 1.3838083,0 4.3207214,-0.17301 6.5264734,-0.38448 z M 140.12829,250.112 c 14.57234,-1.70559 28.9025,-5.88697 42.16475,-12.3032 l 4.44774,-2.1518 -4.01235,-2.6664 -4.01235,-2.6664 -2.48106,1.15878 c -10.92903,5.10437 -22.25455,8.40385 -34.0206,9.91128 -1.73574,0.22237 -3.4919,0.40432 -3.90258,0.40432 -0.71417,0 -0.74134,-0.0418 -0.62403,-0.95961 0.0674,-0.52779 0.2461,-1.93841 0.39698,-3.13472 3.3198,-26.32385 17.33824,-52.84298 37.20904,-70.38954 1.33299,-1.17707 2.42361,-2.2129 2.42361,-2.30183 0,-0.1758 -5.74976,-3.25815 -7.08719,-3.79933 l -0.82233,-0.33274 -2.50188,2.31675 c -5.01209,4.64121 -12.57784,13.498 -17.02683,19.93233 -10.12978,14.65015 -17.39679,32.79674 -20.23373,50.52606 -0.6212,3.88215 -1.42408,12.24289 -1.42408,14.82955 v 2.34838 l 4.02741,-0.15892 c 2.21508,-0.0874 5.58084,-0.34074 7.47948,-0.56296 z m -14.71251,-2.61975 c -0.75816,-14.43129 -3.64987,-27.8301 -8.7683,-40.62809 -1.78181,-4.4552 -6.33766,-13.95492 -6.68174,-13.93255 -0.0764,0.005 -1.29843,1.74932 -2.71561,3.87634 l -2.57668,3.86731 1.97493,4.37628 c 4.23042,9.37421 7.01511,18.40335 8.65176,28.05262 0.6888,4.06095 1.15991,8.15518 0.96128,8.35396 -0.0912,0.0912 -1.86392,-0.0322 -3.93945,-0.27438 -24.044481,-2.80522 -47.803132,-14.27908 -65.750525,-31.75316 -1.880767,-1.83117 -4.325496,-4.33547 -5.432732,-5.5651 l -2.013155,-2.2357 -0.6,0.95622 c -1.094079,1.74366 -3.493487,6.4817 -3.493487,6.8985 0,0.52078 7.95409,8.45596 11.535219,11.50781 8.073647,6.88037 16.818117,12.58592 26.432725,17.24671 13.602209,6.59383 27.442155,10.43013 43.603085,12.08637 0.49224,0.0504 2.712,0.11015 4.93281,0.13267 l 4.03784,0.0409 z m 125.31966,-0.12795 c -1.00635,-18.43183 -5.47933,-35.20151 -13.85545,-51.94559 l -1.37553,-2.74971 -2.66495,3.96896 -2.66496,3.96897 1.28961,2.74713 c 3.17701,6.76769 5.80433,14.11067 7.57681,21.17606 1.03801,4.13766 2.40659,11.72761 2.73534,15.16975 l 0.17837,1.86766 -1.36967,-0.15922 c -8.00919,-0.9311 -13.92486,-2.06468 -20.07102,-3.84606 -15.70149,-4.55089 -29.86129,-12.2158 -43.18011,-23.37403 -2.41415,-2.02251 -9.42054,-8.89757 -11.47405,-11.25895 -1.43859,-1.65428 -1.15121,-1.89281 -3.74132,3.10555 l -1.82205,3.51618 4.55523,4.54712 c 14.02051,13.99557 30.23073,24.05594 48.56042,30.13751 11.10453,3.68435 24.51809,6.12692 34.20594,6.22881 l 3.28855,0.0346 z M 21.032028,237.54222 c 2.051424,-0.35212 2.493158,-0.50803 2.493158,-0.87997 0,-0.73815 1.239024,-6.78483 2.067424,-10.08944 3.058093,-12.19918 9.745892,-26.20219 17.232301,-36.08124 4.85991,-6.41312 10.922067,-12.91045 15.862665,-17.00136 1.264402,-1.04695 2.453963,-2.04109 2.643469,-2.20919 0.278469,-0.24702 -0.113908,-0.62516 -2.045668,-1.97146 -1.314623,-0.91619 -2.813776,-1.91512 -3.33145,-2.21984 l -0.941223,-0.55402 -3.059782,2.69861 c -5.967118,5.26279 -11.428377,11.41486 -16.731768,18.84822 -9.946185,13.9408 -16.712013,30.67488 -19.448373,48.10207 l -0.343996,2.19083 1.555042,-0.20264 c 0.855274,-0.11144 2.676964,-0.3952 4.048201,-0.63057 z m 129.196742,-0.75498 c 8.53414,-1.85575 14.95883,-3.95363 22.83101,-7.45508 1.44652,-0.64339 2.59721,-1.24997 2.55709,-1.34797 -0.0792,-0.19349 -5.38398,-4.48905 -6.0839,-4.92648 -0.32954,-0.20595 -1.18992,0.0309 -3.72928,1.02696 -1.8155,0.71207 -4.56667,1.71403 -6.1137,2.22656 -2.63295,0.8723 -8.30786,2.43669 -8.83923,2.43669 -0.40846,0 -0.27416,-0.71569 0.91263,-4.86331 5.67678,-19.83924 17.91158,-38.52207 33.68228,-51.43366 l 1.71908,-1.40742 -0.56839,-0.45078 c -1.95243,-1.54844 -5.91349,-3.99493 -6.20345,-3.83147 -0.978,0.55133 -5.16231,4.41632 -8.48533,7.83777 -11.66584,12.0114 -20.71597,26.88049 -26.01001,42.73367 -2.09882,6.285 -3.58004,12.49415 -4.86489,20.39324 l -0.10759,0.66144 2.60617,-0.35525 c 1.4334,-0.19538 4.44727,-0.75559 6.69751,-1.24491 z m 87.68625,-2.15995 c -1.64332,-9.64913 -4.96051,-20.38579 -8.83332,-28.59062 l -1.11753,-2.36757 -2.04567,2.58217 c -1.12512,1.42019 -2.30737,2.90192 -2.62723,3.29271 l -0.58156,0.71056 1.38956,3.42507 c 2.19755,5.41667 5.04594,14.61144 4.64932,15.00835 -0.35787,0.35814 -9.50828,-2.37417 -14.97624,-4.4719 -15.8457,-6.07906 -31.59683,-17.67149 -42.96682,-31.62245 -0.12681,-0.1556 -3.48135,4.48999 -4.43331,6.13955 -0.34676,0.60087 6.8928,8.21384 12.21669,12.84683 15.45749,13.4515 35.02633,22.74566 54.69205,25.97582 3.81987,0.62743 5.1191,0.82474 5.21609,0.79215 0.0268,-0.009 -0.23505,-1.68333 -0.58203,-3.72067 z m -125.14755,3.13064 c 0,-2.14068 -2.65048,-13.79406 -4.34823,-19.11787 -1.03295,-3.23913 -3.74556,-10.1244 -5.06209,-12.84879 l -1.00791,-2.08575 -2.27036,2.82585 c -1.248696,1.55422 -2.423633,3.03633 -2.610965,3.29356 -0.296702,0.40742 -0.12574,1.00576 1.326183,4.64142 1.611952,4.0364 3.339172,9.3806 4.098812,12.68222 0.33061,1.43689 0.32738,1.59935 -0.0318,1.59935 -0.72239,0 -6.990276,-1.81321 -10.78853,-3.12096 -12.73974,-4.38636 -25.218076,-11.95947 -36.238887,-21.99342 -2.87646,-2.61889 -7.583768,-7.58522 -9.594062,-10.12199 -0.468261,-0.59089 -0.908915,-1.07721 -0.979236,-1.08071 -0.07032,-0.004 -1.138864,1.48388 -2.374545,3.30529 l -2.246691,3.31167 2.027564,2.24722 c 2.411772,2.67307 8.693434,8.85941 11.032031,10.86465 4.380048,3.75569 11.871252,9.06043 16.732353,11.84868 11.924907,6.83995 24.376138,11.36133 37.655943,13.67392 3.7294,0.64945 4.68038,0.66482 4.68038,0.0756 z M 30.609625,235.275 c 5.828331,-1.5401 12.141617,-3.81357 17.207873,-6.19671 l 2.429231,-1.1427 -1.004687,-0.80934 c -0.552578,-0.44514 -2.011963,-1.64032 -3.243079,-2.65596 l -2.238394,-1.84661 -2.638216,1.10572 c -2.669396,1.11879 -8.465605,3.09565 -11.396235,3.88682 -0.878998,0.2373 -1.598769,0.50265 -1.599493,0.58966 -7.67e-4,0.087 -0.276173,1.48245 -0.612112,3.10099 -0.954959,4.60092 -0.987884,4.86212 -0.612775,4.8612 0.182172,-5.1e-4 1.850721,-0.40233 3.707887,-0.89307 z m 96.370325,-3.64891 c -0.27855,-0.27876 -0.38428,0.0857 -0.20754,0.71554 l 0.1764,0.62856 0.0898,-0.59774 c 0.0494,-0.32875 0.023,-0.66461 -0.0587,-0.74636 z m 1.11161,-4.73341 c 0.52287,-2.75234 2.27695,-9.30374 3.50129,-13.07719 2.26562,-6.98262 5.52546,-14.63929 8.79844,-20.66565 l 1.75279,-3.22732 -1.90059,-3.5539 c -4.84518,-9.05998 -8.54081,-18.72872 -11.09458,-29.02628 -0.71205,-2.87122 -1.29464,-5.42521 -1.29464,-5.67554 0,-0.34778 -0.20684,-0.45515 -0.87685,-0.45515 -0.86296,0 -0.8815,0.0233 -1.17047,1.47139 -0.69569,3.48636 -2.46238,9.98925 -3.84103,14.13822 -2.01951,6.07759 -4.37658,11.66272 -7.5286,17.83916 l -2.63959,5.17234 2.99269,5.9591 c 5.13329,10.22156 8.5698,19.90758 10.89807,30.71698 0.42693,1.98211 0.42762,1.98318 1.2632,1.98318 0.82267,0 0.84091,-0.0256 1.13987,-1.59934 z m -96.000138,-3.13957 c 2.72399,-0.80211 8.821945,-3.15866 8.821945,-3.40923 0,-0.0963 -1.664522,-1.83784 -3.698936,-3.87011 l -3.69894,-3.69503 -0.626928,1.41863 c -0.743905,1.68332 -2.757218,7.21601 -3.310623,9.09773 -0.27828,0.94624 -0.303966,1.30069 -0.08929,1.23205 0.165765,-0.053 1.33701,-0.40132 2.602767,-0.77404 z m 66.069568,-2.44079 c -0.877209,-2.68419 -2.927628,-8.08352 -3.18799,-8.39485 -0.0881,-0.10535 -7.520678,7.28762 -7.520678,7.48061 0,0.34223 11.418757,4.39493 11.691985,4.14968 0.03145,-0.0283 -0.411011,-1.48421 -0.983317,-3.23544 z m 63.31896,1.06505 c 2.14277,-0.80509 4.84216,-1.87476 4.94229,-1.95845 0.078,-0.0652 -7.36581,-7.53651 -7.50871,-7.53651 -0.23293,0 -4.20986,10.90662 -4.20986,11.54545 0,0.18951 4.18453,-1.07671 6.77628,-2.05049 z m 62.18075,-0.92247 c -0.47439,-1.40742 -1.40968,-3.94079 -2.07843,-5.62969 l -1.21591,-3.07075 -3.79904,3.8265 c -2.08947,2.10457 -3.77449,3.85065 -3.7445,3.88016 0.21985,0.21633 4.7966,1.92176 7.85366,2.9265 2.43087,0.79894 3.73169,1.1166 3.77725,0.92242 0.0382,-0.1629 -0.31865,-1.44771 -0.79303,-2.85514 z M 88.653687,214.73765 c 4.519268,-4.50722 7.906657,-8.41855 12.424753,-14.34653 9.92742,-13.02532 17.81476,-30.24701 21.38099,-46.68449 l 0.48578,-2.23909 -1.31717,-0.003 c -0.72444,-0.002 -2.70722,0.13062 -4.40616,0.29385 l -3.089,0.29677 -0.71145,2.96882 c -1.00879,4.20964 -3.65328,12.1275 -5.53671,16.57747 -6.64017,15.68864 -17.174722,30.32347 -30.149026,41.88369 -1.530088,1.36332 -1.623225,1.5046 -1.174975,1.7824 1.159027,0.71827 7.211702,3.75217 7.489547,3.75413 0.168146,0.002 2.239685,-1.92666 4.603421,-4.28409 z m 125.759173,-0.38384 c 11.77386,-11.85678 20.20458,-24.3494 26.71504,-39.58628 2.69326,-6.30321 6.26255,-17.70882 7.03694,-22.48634 l 0.17919,-1.10557 -1.87941,0.16222 c -3.40255,0.29368 -6.70701,0.65327 -6.79287,0.73919 -0.0464,0.0464 -0.48532,1.67745 -0.97532,3.62442 -5.3556,21.27975 -17.54144,41.3391 -34.59939,56.95475 l -2.64331,2.41981 3.794,1.96764 c 2.08671,1.0822 3.95908,1.97047 4.16085,1.97394 0.20176,0.004 2.45369,-2.09523 5.00428,-4.66378 z M 75.371369,211.4385 c 7.223621,-6.19992 15.049944,-15.23336 20.586535,-23.76177 6.145386,-9.46618 10.979606,-20.26985 13.995816,-31.27834 0.56309,-2.05516 0.97215,-3.78835 0.90901,-3.85153 -0.12683,-0.12693 -6.86513,1.17394 -7.69266,1.48511 -0.39299,0.14778 -0.69592,0.8106 -1.24217,2.71791 -3.37023,11.76767 -10.080117,24.64032 -18.095935,34.71632 -4.595796,5.77699 -11.34029,12.65004 -15.908345,16.21158 l -1.227286,0.95687 0.70269,0.52453 c 0.894855,0.66798 5.819198,3.97913 5.917768,3.97913 0.04076,0 0.965323,-0.76492 2.054577,-1.69981 z m 124.040961,1.16584 c 2.27737,-1.78931 6.67665,-5.93944 9.30434,-8.77738 12.79959,-13.82379 22.03089,-30.40798 26.78736,-48.12396 0.44375,-1.65281 0.75242,-3.05954 0.68592,-3.12609 -0.29439,-0.29461 -8.11888,1.43257 -8.22591,1.81579 -1.55674,5.57377 -4.37784,13.21252 -6.51189,17.6324 -6.09409,12.6216 -15.88158,25.33161 -26.35097,34.21933 -2.25112,1.91104 -2.75076,2.45343 -2.49233,2.70557 0.32363,0.31574 5.87146,4.15423 6.03635,4.17649 0.0481,0.006 0.39335,-0.22847 0.76713,-0.52215 z M 67.383748,204.13646 c 1.685176,-1.43246 4.559851,-4.11224 6.388167,-5.95507 3.15081,-3.17583 7.290588,-7.87763 7.285211,-8.27427 -0.0038,-0.30749 -1.683496,-2.32459 -4.777262,-5.73815 -2.78873,-3.07699 -7.404051,-7.44128 -10.60531,-10.02847 l -1.448939,-1.171 -2.130981,1.70296 c -2.584633,2.06551 -11.295518,10.7547 -13.358718,13.32545 l -1.490006,1.85655 1.042969,1.34214 c 1.494378,1.92302 6.46234,7.23241 8.876443,9.48648 2.288265,2.13656 6.815932,6.03736 7.022069,6.04983 0.07282,0.005 1.511181,-1.16399 3.196357,-2.59645 z m 125.807582,-0.28083 c 3.18794,-2.74642 9.73777,-9.39238 11.9792,-12.15501 l 1.49868,-1.84716 -1.87583,-2.2399 c -2.66678,-3.18433 -9.61981,-10.11567 -12.60526,-12.56592 l -2.53394,-2.07966 -1.17384,0.9438 c -4.74064,3.81165 -9.88465,8.85167 -13.87241,13.592 l -2.00721,2.386 1.96677,2.34806 c 2.62192,3.13021 9.31476,9.79131 12.45156,12.39249 1.93086,1.60117 2.62393,2.04134 2.94417,1.86982 0.23036,-0.12338 1.68301,-1.31341 3.22811,-2.64452 z m -106.423406,-21.71075 0.899531,-1.43753 -2.619489,-2.9127 C 73.038264,164.44071 57.682902,154.02688 40.40195,147.51625 c -3.292675,-1.24052 -12.479262,-3.98146 -13.344334,-3.98146 -0.421945,0 -0.464871,0.12836 -0.320917,0.95961 0.433428,2.50276 1.4296,6.85799 1.6099,7.03843 0.110952,0.11103 1.726585,0.66236 3.590293,1.22517 10.487459,3.16706 18.731495,7.06652 27.643199,13.07533 8.473588,5.71341 15.04867,11.53238 21.521551,19.04664 l 2.080138,2.4148 1.343306,-1.85619 c 0.738819,-1.0209 1.748095,-2.50306 2.242838,-3.2937 z m 124.333246,1.44158 1.98493,-2.92038 -0.74135,-0.97284 c -1.29554,-1.70009 -8.04952,-8.50137 -11.18406,-11.26236 -3.13567,-2.76202 -8.63658,-6.97899 -12.43055,-9.52923 -7.36365,-4.94971 -17.71573,-9.94375 -26.73877,-12.89929 -2.72209,-0.89164 -9.20112,-2.72347 -9.63266,-2.72347 -0.34519,0 -0.25006,0.90854 0.45239,4.32087 0.72962,3.54428 0.9467,4.12368 1.545,4.12368 0.74585,0 10.16932,3.26374 13.26085,4.59278 9.1484,3.93287 18.29816,9.54678 26.21013,16.0814 3.29743,2.72341 9.52637,8.78991 12.46776,12.14262 1.62396,1.85105 2.26899,2.42539 2.50437,2.22991 0.17437,-0.14482 1.21025,-1.57748 2.30196,-3.18369 z M 22.261046,175.59431 c -4.872911,-10.61738 -8.00226,-21.0448 -9.582918,-31.93158 -0.542938,-3.73948 -1.168362,-11.00508 -1.16996,-13.59151 l -0.0013,-2.07624 -3.6438472,0.10699 c -2.0041158,0.0589 -3.9204698,0.16494 -4.2585648,0.23576 l -0.6147177,0.12877 0.1662993,4.01558 c 0.543118,13.11452 3.5481269,27.14316 8.5341344,39.84093 0.773711,1.97039 2.604191,6.04818 4.067734,9.06175 l 2.660987,5.47922 2.67176,-3.99918 2.671761,-3.99918 z m 124.358214,7.1281 c 1.35236,-2.02115 2.45882,-3.76113 2.45882,-3.8666 0,-0.10547 -0.70331,-1.73366 -1.56292,-3.61818 -6.5327,-14.32174 -9.79357,-27.59732 -10.60791,-43.18665 l -0.17882,-3.42311 -1.53394,0.16044 c -0.84367,0.0883 -2.74202,0.16045 -4.21857,0.16045 h -2.68461 l 0.17853,3.51856 c 0.71794,14.14892 3.65614,27.5844 8.87131,40.56573 1.85205,4.61002 6.37294,13.85175 6.63566,13.56479 0.101,-0.11033 1.2901,-1.85426 2.64245,-3.87543 z m -54.618481,-9.46915 1.664294,-3.16407 -4.960265,-4.91256 C 80.735462,157.28393 74.324596,152.24172 65.205679,146.69436 54.036046,139.89948 40.954229,134.72253 27.541782,131.7894 l -2.226636,-0.48695 0.01374,0.93429 c 0.01998,1.35852 0.648797,7.69851 0.774478,7.80859 0.05872,0.0514 1.832796,0.52837 3.942391,1.05987 17.838648,4.49434 35.369312,14.0029 49.471689,26.83324 1.971199,1.79341 4.986163,4.80584 6.699922,6.6943 l 3.115919,3.43356 0.501608,-0.82448 c 0.275881,-0.45347 1.25053,-2.24832 2.165887,-3.98856 z m 124.167131,2.33242 c 0.77092,-1.37224 1.7174,-3.14783 2.10329,-3.94575 l 0.70163,-1.45077 -1.31855,-1.52314 c -1.80631,-2.08657 -7.00321,-7.07279 -10.40015,-9.97854 -12.07588,-10.32972 -26.03809,-18.16678 -41.55499,-23.325 -3.49607,-1.1622 -13.6273,-3.85477 -14.50413,-3.85477 -0.41753,0 -0.42849,1.91072 -0.0334,5.81128 0.28517,2.81488 0.31282,2.9027 0.95891,3.04537 21.57523,4.76447 42.49141,16.59368 58.26211,32.95033 1.72202,1.78599 3.38339,3.58897 3.69194,4.00661 0.30855,0.41764 0.5904,0.75936 0.62631,0.75936 0.0359,0 0.69605,-1.12274 1.46696,-2.49498 z m -187.545419,-2.77979 2.605928,-3.22759 -1.275822,-3.10581 C 25.498689,155.63005 22.77782,142.94467 22.327093,130.92048 l -0.161099,-4.29772 -0.662874,0.14143 c -0.704646,0.15033 -6.341223,0.90509 -6.759266,0.90509 -0.354931,0 -0.02777,8.38011 0.479526,12.28298 1.24005,9.54023 3.624389,18.99803 6.930584,27.49109 1.201933,3.08757 3.640052,8.59014 3.806179,8.59014 0.03103,0 1.229089,-1.45241 2.662348,-3.2276 z m 127.683119,-4.19336 c -5.52441,-13.24086 -8.04408,-24.09685 -8.65656,-37.29674 -0.0996,-2.14632 -0.19608,-3.9024 -0.21444,-3.9024 -0.0183,0 -1.64102,0.2285 -3.60593,0.50778 -1.9649,0.27929 -3.67363,0.50959 -3.79718,0.5118 -0.12622,0.002 -0.14861,1.37744 -0.0511,3.13871 0.82521,14.90844 4.32247,29.26763 10.23117,42.00759 l 1.149,2.47741 2.65938,-3.27425 2.65937,-3.27427 z M 39.051696,158.44061 c -1.779271,-0.72268 -9.459907,-3.39053 -9.761208,-3.39053 -0.290628,0 3.426613,10.45815 4.111297,11.56681 0.08862,0.14349 1.869008,-1.44539 3.956423,-3.53085 l 3.7953,-3.79174 z m 56.906262,6.01347 c 1.019364,-2.50742 3.306626,-9.1837 3.187231,-9.30319 -0.214703,-0.21486 -11.692867,3.87523 -11.692867,4.16659 0,0.15816 7.22505,7.44664 7.415551,7.48065 0.07035,0.0126 0.560853,-1.04226 1.090085,-2.34405 z m 66.777862,-1.38572 c 2.05199,-2.0641 3.70203,-3.78138 3.66674,-3.8162 -0.4172,-0.41156 -11.4584,-4.27215 -11.65515,-4.07526 -0.20975,0.20991 3.89941,11.64436 4.1846,11.64436 0.0401,0 1.75181,-1.68881 3.80381,-3.7529 z m 58.6513,1.44984 c 0.96788,-2.37018 3.12498,-8.64545 3.12498,-9.09095 0,-0.42441 -2.03669,0.17428 -7.63209,2.24347 l -4.18003,1.54578 3.78848,3.79758 c 2.08366,2.08867 3.86193,3.71338 3.9517,3.61046 0.0898,-0.10291 0.51591,-1.05077 0.94696,-2.10634 z M 95.721845,152.89605 c 9.370755,-2.90096 19.215895,-4.49925 27.714445,-4.49925 h 3.96621 l -0.15823,-0.57576 c -0.087,-0.31667 -0.35242,-2.04397 -0.58976,-3.83843 l -0.43154,-3.26267 -2.95604,7.7e-4 c -11.86081,0.004 -26.423647,3.08805 -39.061513,8.27174 -3.017657,1.23775 -6.071968,2.70689 -5.920553,2.8478 0.0494,0.046 1.51044,1.22947 3.246775,2.63001 l 3.156975,2.54644 3.706153,-1.49998 c 2.038383,-0.825 5.335566,-2.00442 7.327078,-2.62094 z m -18.774664,-4.2327 c 2.911725,-1.4709 8.638656,-3.80643 12.806518,-5.22267 10.078006,-3.42452 21.040581,-5.44414 32.339911,-5.95793 l 3.75666,-0.17083 -0.13819,-0.79097 c -0.076,-0.43503 -0.21759,-2.33368 -0.31464,-4.21921 l -0.17645,-3.42824 -3.7336,0.16957 c -5.33493,0.24228 -10.2068,0.81403 -19.07612,2.23873 -2.983603,0.47926 -10.357299,2.4301 -14.763975,3.90607 -5.313941,1.77985 -11.044502,4.17538 -16.341113,6.83104 -3.571482,1.7907 -4.11462,2.13882 -3.71686,2.38228 0.256207,0.15682 2.039774,1.34296 3.963483,2.63588 1.923708,1.2929 3.587235,2.35807 3.696727,2.36703 0.10949,0.009 0.873434,-0.32438 1.697649,-0.74075 z m -5.604497,-10.03477 c 9.210839,-4.44056 19.286866,-7.9372 28.319724,-9.82768 3.340832,-0.69919 3.388132,-0.71879 3.388132,-1.40366 0,-0.60203 -0.12777,-0.71707 -0.95891,-0.86334 -2.810744,-0.49466 -10.942606,-2.66545 -14.904618,-3.97876 -7.372093,-2.44367 -15.329172,-5.89729 -21.456126,-9.31263 l -2.159732,-1.2039 -1.420187,0.79603 c -2.873737,1.61074 -9.709241,4.83066 -13.438489,6.3303 -6.546344,2.63249 -17.422543,5.89151 -22.064152,6.61145 -1.157915,0.1796 -1.588888,0.64103 -1.588888,1.70118 0,0.54922 0.170967,0.64249 1.726032,0.94153 3.038631,0.58435 10.315339,2.49038 13.744334,3.60013 6.710247,2.17168 16.891286,6.58798 22.246643,9.65007 l 1.278543,0.73105 2.045669,-1.1154 c 1.125117,-0.61347 3.484028,-1.80884 5.242025,-2.65637 z M 204.9504,135.11269 c 6.7547,-2.68806 15.4187,-5.30788 21.22381,-6.41766 2.4843,-0.47493 2.42923,-0.43968 2.42923,-1.55478 0,-0.55349 -0.0658,-1.00634 -0.14634,-1.00634 -0.7432,0 -8.34152,-1.86761 -11.99981,-2.94946 -7.60538,-2.24911 -14.38975,-4.95942 -21.73524,-8.68308 l -4.60275,-2.33328 -1.27854,0.73125 c -2.82859,1.61779 -11.72098,5.84276 -15.0868,7.16807 -6.45853,2.54308 -12.70222,4.4628 -19.306,5.93592 -3.51761,0.78469 -3.71178,0.86026 -3.7859,1.47358 -0.074,0.61263 0.0263,0.66893 1.91781,1.07576 12.12961,2.60885 22.73648,6.40409 33.16933,11.86834 l 3.81258,1.99685 5.64864,-2.8385 c 3.10675,-1.56118 7.48974,-3.57118 9.73998,-4.46667 z m -93.74327,-8.21341 2.65887,-0.32043 -0.1576,-4.25282 c -0.53347,-14.39632 -3.5529,-27.605926 -9.30722,-40.7179 -0.77208,-1.759283 -1.47812,-3.278395 -1.56899,-3.375807 -0.12747,-0.136656 -3.949657,4.265915 -5.249651,6.046793 -0.144312,0.197695 0.238039,1.458695 1.058035,3.489378 4.808946,11.909241 7.472836,25.130556 7.477436,37.111696 l 7.7e-4,2.71266 1.21461,-0.18658 c 0.66804,-0.10261 2.4111,-0.33076 3.87348,-0.50699 z m 124.75672,0.13675 c 1.58704,-0.21468 2.93909,-0.39033 3.00458,-0.39033 0.26621,0 0.0939,-6.83574 -0.26831,-10.64253 -1.12692,-11.84442 -4.07145,-23.188884 -8.87134,-34.17886 l -1.53807,-3.521613 -1.099,1.493993 c -0.60447,0.821693 -1.71914,2.227548 -2.47706,3.124113 -1.83064,2.165512 -1.79307,2.074149 -1.31686,3.202287 3.39874,8.051666 6.12394,17.99271 7.25045,26.44837 0.29063,2.18151 0.66219,6.4752 0.82568,9.54153 l 0.29726,5.57515 0.65358,-0.13089 c 0.35947,-0.072 1.95206,-0.30653 3.53909,-0.52122 z m 11.665,-1.05319 3.29934,-0.16086 -0.16729,-4.13028 c -0.69192,-17.08252 -5.13332,-34.337119 -12.93627,-50.256633 l -1.96484,-4.008663 -2.54081,3.828198 c -1.39745,2.105509 -2.57622,3.96138 -2.61949,4.124157 -0.0433,0.162778 0.51815,1.60219 1.24761,3.198693 6.29214,13.771017 9.76689,28.414598 10.38196,43.752428 l 0.16043,4.00078 0.92001,-0.0935 c 0.50601,-0.0514 2.40472,-0.16587 4.21935,-0.25434 z m -123.77346,-0.1035 1.75455,-0.002 -0.16999,-3.39061 c -0.94473,-18.84462 -4.96331,-34.573949 -12.97821,-50.798743 -1.13075,-2.289008 -2.13267,-4.209309 -2.22649,-4.267335 -0.0938,-0.05803 -1.34673,1.676037 -2.78425,3.853475 l -2.61367,3.958977 1.50259,3.251151 c 6.52668,14.121705 9.95608,28.209185 10.65841,43.783155 l 0.17763,3.93898 2.46244,-0.1632 c 1.35434,-0.0897 3.25198,-0.16379 4.21699,-0.16452 z m 14.73864,-0.40837 c 4.63908,-0.44312 12.51417,-1.66188 16.43786,-2.54395 9.6806,-2.17626 20.73295,-6.30475 29.5573,-11.04081 l 2.65257,-1.42364 -0.8626,-0.52334 c -0.47444,-0.28784 -2.30862,-1.46669 -4.07596,-2.61967 l -3.21336,-2.09633 -1.41989,0.7185 c -4.69943,2.37804 -12.85384,5.49123 -19.02957,7.26511 -8.70011,2.49896 -16.12226,3.65884 -28.00998,4.37719 l -2.4659,0.14901 0.0957,0.93777 c 0.0526,0.51577 0.16725,2.40996 0.25471,4.2093 l 0.159,3.27153 2.97831,-0.15104 c 1.63807,-0.0831 4.76189,-0.32141 6.9418,-0.52963 z m -35.4104,-2.59973 c -0.0604,-0.38704 -0.17807,-2.06971 -0.26146,-3.73927 -0.18922,-3.78806 -0.32811,-4.51335 -0.86429,-4.51335 -0.22952,0 -2.00817,-0.40451 -3.952545,-0.89894 -17.041205,-4.33321 -33.73212,-13.11922 -46.69838,-24.58175 -3.676127,-3.249798 -7.987918,-7.477705 -10.615147,-10.408622 -1.103891,-1.231499 -2.0844,-2.239083 -2.178907,-2.239083 -0.09451,0 -1.062406,1.728794 -2.150883,3.841773 l -1.979048,3.841769 0.763374,0.964543 c 1.311962,1.657695 9.521054,9.55904 12.585803,12.113983 6.369316,5.309807 11.207696,8.638277 18.396366,12.655437 10.063374,5.62359 19.834775,9.52545 30.619303,12.22673 4.256604,1.06618 5.365254,1.3203 6.132414,1.40565 0.20258,0.0226 0.27444,-0.21376 0.2034,-0.66887 z m 125.41981,-1.52037 c 0,-0.80102 -0.13088,-2.74833 -0.29085,-4.32735 l -0.29085,-2.87094 -3.22515,-0.79953 c -20.35625,-5.04644 -39.10966,-15.60203 -53.87903,-30.326498 -1.84131,-1.835698 -4.08799,-4.176556 -4.99266,-5.201908 l -1.64483,-1.864266 -1.97541,3.810534 c -1.08647,2.095797 -1.9754,3.987859 -1.9754,4.204577 0,0.572709 7.51855,8.075226 11.25118,11.227183 7.25942,6.130108 12.40065,9.705798 20.20097,14.049638 11.62003,6.47094 22.22958,10.48013 35.41563,13.383 1.35955,0.29931 1.4064,0.25652 1.4064,-1.28444 z m -89.24228,-7.63332 c 11.04524,-1.23557 22.73015,-4.37581 32.61342,-8.76461 1.54121,-0.6844 3.11937,-1.41292 3.50701,-1.61895 l 0.70481,-0.37459 -2.83763,-2.29507 c -1.5607,-1.262278 -3.03869,-2.440668 -3.28443,-2.618641 -0.37794,-0.273711 -0.97544,-0.111399 -3.87633,1.053035 -11.43322,4.589326 -23.09576,7.120466 -34.58149,7.505286 -4.72517,0.15831 -4.81135,0.17117 -4.67169,0.69734 0.0782,0.29483 0.26936,1.74515 0.42468,3.22295 0.15532,1.4778 0.33682,2.96372 0.40333,3.30206 l 0.12094,0.61517 4.01266,-0.1689 c 2.20696,-0.0929 5.56608,-0.34268 7.46472,-0.55508 z m -37.60495,-4.66465 c -0.25259,-1.37224 -0.613,-3.18177 -0.80092,-4.02118 -0.39137,-1.74821 0.13152,-1.44646 -5.572645,-3.21586 C 88.748604,99.757997 80.289287,96.015782 74.173582,92.433422 70.362829,90.201214 64.586747,86.21109 60.829621,83.21538 56.831948,80.027879 49.490397,72.727523 46.922518,69.386311 45.93804,68.105353 45.072129,67.049376 44.99827,67.039697 c -0.07386,-0.0097 -1.127143,1.456981 -2.34063,3.259244 l -2.206344,3.276842 1.53396,1.777089 c 4.452991,5.15878 11.647197,11.903345 17.102494,16.033564 8.671491,6.565227 17.130146,11.369444 26.443068,15.018744 5.414626,2.12174 14.782482,5.07397 16.271132,5.12776 0.37762,0.0137 0.37365,-0.20165 -0.0457,-2.48004 z m 125.18681,-0.75647 c -0.22936,-1.23766 -0.59,-3.02008 -0.80141,-3.96094 -0.35992,-1.60175 -0.43622,-1.72184 -1.19873,-1.88674 -1.48535,-0.32123 -7.94181,-2.454137 -10.01985,-3.310084 -15.90452,-6.551101 -29.62939,-16.026901 -39.93021,-27.568246 -1.66743,-1.868234 -3.32968,-3.781321 -3.69389,-4.2513 l -0.66219,-0.854509 -0.76605,0.982457 c -0.99226,1.272564 -3.37841,4.83914 -3.56757,5.332425 -0.19503,0.508609 4.07353,5.308283 8.55101,9.614954 13.18595,12.682931 29.43714,22.117223 46.46162,26.972303 4.86833,1.38837 5.86187,1.61755 5.96279,1.37547 0.0448,-0.10752 -0.10616,-1.20813 -0.33552,-2.44579 z m -99.24216,-5.76886 c 0.41987,-2.723681 2.64569,-11.032053 4.23324,-15.801532 2.12462,-6.383024 4.10518,-11.075403 7.46449,-17.685012 l 2.55048,-5.01819 -1.58573,-2.882687 c -5.03395,-9.151183 -9.68156,-21.749456 -11.99042,-32.502342 -0.28709,-1.337053 -0.58096,-2.690099 -0.65304,-3.00677 -0.0979,-0.430016 -0.31365,-0.575764 -0.85236,-0.575764 -0.69473,0 -0.73341,0.06835 -1.04982,1.855241 -1.78974,10.10717 -7.55583,25.855943 -12.95275,35.377523 l -1.01531,1.791266 0.60321,1.023582 c 3.04308,5.163808 7.83959,16.189204 10.00731,23.00313 1.01016,3.175287 3.01885,10.984402 3.61084,14.037715 0.24862,1.28231 0.3609,1.4714 0.87374,1.4714 0.49553,0 0.61494,-0.17174 0.75612,-1.08756 z m 7.75591,0.80176 c 1.79581,-0.15719 3.41949,-0.36918 3.60816,-0.4711 0.18868,-0.10192 0.84109,-2.13243 1.44979,-4.512245 3.19224,-12.4803 8.75192,-25.011881 15.6906,-35.366739 5.53046,-8.253324 12.88177,-16.682848 19.94142,-22.866232 l 1.62564,-1.423873 -2.14928,-1.17243 c -1.18211,-0.644839 -3.00681,-1.584747 -4.05488,-2.088689 l -1.9056,-0.916256 -5.39495,5.443591 c -7.18893,7.253736 -11.71837,12.948544 -17.05025,21.437046 -7.26542,11.566771 -12.56998,24.387316 -15.65587,37.838601 -0.49197,2.144456 -0.89449,4.008166 -0.89449,4.141566 0,0.31282 0.80492,0.30555 4.78971,-0.0432 z M 11.142838,102.56749 c 1.536303,-0.15398 2.827232,-0.3127 2.868733,-0.35274 0.0415,-0.04 0.304725,-1.03679 0.584943,-2.215024 3.056871,-12.85325 8.681784,-25.817587 15.918081,-36.688108 5.625129,-8.450187 12.544721,-16.464978 19.690627,-22.807166 l 2.004162,-1.778747 -3.88288,-2.003148 C 44.781575,34.893755 44.390249,34.747998 43.83036,35.047858 42.863091,35.565903 34.613371,44.08392 32.090775,47.169234 21.470854,60.158167 14.586352,72.349627 9.5926238,87.010212 8.1658169,91.199036 5.3698794,101.46843 5.3698794,102.52024 c 0,0.41381 1.955773,0.42982 5.7729586,0.0473 z M 147.12047,101.6685 c 1.8502,-0.36694 3.49023,-0.79876 3.6445,-0.95961 0.15426,-0.16085 0.48856,-1.098527 0.74288,-2.083721 1.48044,-5.735005 4.23555,-12.679315 7.91897,-19.959833 3.52796,-6.973263 7.04395,-12.317536 12.37396,-18.808305 2.88398,-3.512057 9.72933,-10.423843 12.96895,-13.094824 l 2.32169,-1.914171 -1.92475,-1.387863 c -1.05862,-0.763325 -2.53732,-1.772505 -3.28599,-2.242625 l -1.36124,-0.85476 -2.10422,1.787759 c -1.15733,0.98327 -4.06038,3.787636 -6.45124,6.231927 -14.40966,14.731664 -24.27384,32.768414 -29.12178,53.249456 -0.21301,0.89988 -0.0806,0.90101 4.27827,0.0366 z M 22.35913,100.90787 c 1.679224,-0.33782 3.128161,-0.70174 3.219859,-0.80872 0.0917,-0.106978 0.374669,-1.00058 0.62882,-1.985774 0.721945,-2.798545 3.119836,-9.654095 4.51424,-12.906181 3.652012,-8.517359 9.24422,-17.614631 15.347108,-24.966321 2.978056,-3.587434 8.995433,-9.690432 12.546749,-12.725268 L 61.615203,44.952505 60.953745,44.43182 C 60.58994,44.145445 59.137874,43.127455 57.726927,42.169621 l -2.565357,-1.741513 -0.66746,0.523096 c -2.08883,1.637044 -7.633476,6.947531 -10.254609,9.821545 -12.574562,13.787728 -21.324505,29.727172 -25.957456,47.28573 -0.490732,1.859849 -0.892606,3.473121 -0.893052,3.585051 -9.21e-4,0.22996 0.646741,0.13409 4.970137,-0.73566 z m 76.491145,-3.416143 c -0.622453,-2.165174 -2.370733,-7.048285 -3.340287,-9.32974 l -0.422871,-0.995052 -4.009183,3.983891 c -2.205041,2.191144 -4.020375,4.078323 -4.034068,4.193745 -0.01365,0.115421 0.734255,0.535369 1.662108,0.933214 2.104525,0.902399 10.569542,3.779455 10.70912,3.639775 0.05661,-0.05665 -0.19755,-1.148281 -0.564819,-2.425833 z m 57.930375,1.766337 c 2.18227,-0.647512 8.45431,-2.950155 9.50506,-3.489585 l 0.71443,-0.366769 -4.11207,-4.115081 c -2.26164,-2.263291 -4.15119,-4.071376 -4.19898,-4.017968 -0.24061,0.268867 -2.99901,7.817476 -3.58881,9.821136 -0.37287,1.266682 -0.73102,2.459819 -0.79589,2.651418 -0.0732,0.216081 0.0164,0.296765 0.23591,0.212473 0.19461,-0.07477 1.20277,-0.387766 2.24035,-0.695624 z M 32.730694,98.095857 c 3.040505,-0.985908 7.43546,-2.604013 7.64655,-2.815257 0.06613,-0.06618 -1.566064,-1.821427 -3.627099,-3.900551 l -3.747336,-3.780231 -1.311315,3.544966 c -1.377295,3.72333 -2.530397,7.265172 -2.536882,7.792219 -0.0021,0.171509 0.139998,0.266963 0.315798,0.212111 0.175799,-0.05481 1.642927,-0.52882 3.260284,-1.053257 z m 191.914056,0.849176 c -0.0588,-0.175923 -0.41314,-1.35624 -0.7873,-2.622922 -0.608,-2.058311 -2.85337,-8.292512 -3.077,-8.543177 -0.0484,-0.05428 -1.76857,1.597401 -3.82258,3.670322 -2.05403,2.072921 -3.69735,3.797082 -3.65184,3.831474 0.3597,0.271761 10.78133,3.949874 11.26198,3.974686 0.10106,0.0054 0.13559,-0.134453 0.0767,-0.310383 z M 87.756112,90.116645 C 110.53247,67.81127 123.82961,38.225141 125.19956,6.8050105 l 0.1765,-4.0480745 -3.17186,0.1627993 c -18.5989,0.9546065 -34.359953,5.045774 -51.756496,13.4346717 -2.872149,1.384996 -3.259003,1.641919 -2.844709,1.889262 0.263725,0.157451 2.096925,1.358524 4.073778,2.669052 l 3.594272,2.382778 2.830353,-1.329846 c 10.677906,-5.017028 22.311212,-8.352281 34.342012,-9.845806 4.37327,-0.542905 3.97758,-0.711958 3.77323,1.612059 -0.31493,3.581589 -1.87594,12.294262 -2.93642,16.389416 -3.17514,12.261009 -8.60146,24.475191 -15.427385,34.725667 -1.84707,2.773741 -6.602059,9.085839 -8.578229,11.38734 -2.900594,3.378101 -9.529426,10.032379 -12.401867,12.449469 l -1.246224,1.048667 2.52477,1.409947 c 3.476337,1.941355 5.022785,2.722759 5.416259,2.736777 0.183926,0.0069 2.068785,-1.68659 4.188568,-3.762544 z M 220.91564,82.503766 c 13.13074,-15.61572 21.52726,-31.796324 26.192,-50.47355 2.13798,-8.560269 3.48058,-18.383353 3.4845,-25.4942405 l 0.002,-4.0612138 -3.516,0.1766049 C 229.13894,3.552433 212.01605,8.0603239 196.31329,16.016061 l -3.77833,1.914281 4.0202,2.671618 4.02021,2.671617 3.33805,-1.518337 c 7.82025,-3.557094 15.16502,-6.030162 23.22441,-7.819931 3.25428,-0.722686 9.92948,-1.791973 12.89919,-2.066296 l 1.8448,-0.170412 -0.14221,1.368509 c -2.48429,23.90664 -12.16521,46.597665 -27.43503,64.304729 -2.61792,3.035776 -7.85042,8.376198 -10.46705,10.682948 l -1.87969,1.657081 4.05322,2.077058 4.05321,2.077059 3.91932,-3.889841 c 2.15563,-2.139418 5.27492,-5.50199 6.93175,-7.472378 z M 75.443835,85.925157 c 7.659299,-6.5859 16.843005,-17.55517 22.253258,-26.579916 2.506947,-4.181802 6.659747,-12.561869 8.306087,-16.761141 3.19853,-8.1584 5.56991,-17.25855 6.8517,-26.29324 0.0749,-0.527784 0.0531,-0.959607 -0.0484,-0.959607 -0.10151,0 -1.90661,0.285757 -4.01133,0.635016 -7.10049,1.178261 -14.447826,3.112699 -20.703544,5.450917 -3.399701,1.270717 -9.34293,3.811556 -9.672694,4.135255 -0.11632,0.114173 0.171353,0.478796 0.639268,0.81027 0.467916,0.331474 1.917301,1.498252 3.220854,2.592838 l 2.370104,1.990162 4.150464,-1.64156 c 2.282759,-0.90286 5.30116,-1.992667 6.707555,-2.421799 2.478353,-0.756209 7.468743,-2.075902 7.867913,-2.08064 0.24928,-0.003 0.1293,0.517087 -1.24584,5.400296 -1.75319,6.225627 -3.733216,11.321519 -6.92788,17.82989 -5.939831,12.101014 -15.032364,23.801839 -25.28564,32.539126 -3.938019,3.355763 -3.649869,3.008116 -2.928313,3.532952 1.386677,1.008617 5.75435,3.901533 5.890459,3.901533 0.08062,0 1.235318,-0.936154 2.565994,-2.080352 z M 202.05706,85.533162 c 5.32533,-4.733313 10.71344,-10.58497 14.77032,-16.04101 8.65075,-11.634282 14.59367,-23.457046 18.32305,-36.451641 1.73614,-6.049347 3.83927,-17.124731 3.34566,-17.618699 -0.30627,-0.306498 -7.19185,0.925444 -12.39462,2.217596 -7.27014,1.805607 -13.70868,4.066502 -21.11431,7.414293 -0.68297,0.308747 -1.14325,0.646779 -1.02283,0.751181 0.19056,0.165219 4.19926,3.409288 5.8009,4.69442 0.54996,0.441283 0.63055,0.426029 2.86185,-0.541733 4.67315,-2.026839 15.30406,-5.34903 16.35428,-5.110763 0.28391,0.06441 0.18331,0.746085 -0.5028,3.407158 -3.79305,14.711244 -10.96999,28.56912 -21.20437,40.943245 -2.87651,3.477919 -9.52016,10.203709 -12.4882,12.642601 -1.08997,0.895636 -1.98175,1.699395 -1.98175,1.786128 0,0.219159 6.2241,4.386695 6.44004,4.312122 0.0963,-0.03324 1.3621,-1.115478 2.81278,-2.404898 z M 67.507056,78.634053 c 3.792329,-3.24034 8.162731,-7.62052 11.435166,-11.460755 l 2.596904,-3.04749 -1.582227,-1.933684 c -3.61418,-4.41698 -14.37327,-14.794821 -15.633578,-15.079602 -0.561033,-0.12677 -4.829913,3.569384 -9.370785,8.113575 -3.999233,4.002151 -8.157872,8.711443 -8.157872,9.238068 0,0.506801 4.12596,5.177911 8.041826,9.104368 5.184596,5.198614 8.683313,8.138835 9.294914,7.811187 0.239251,-0.128173 1.758296,-1.363725 3.375652,-2.745667 z m 126.197294,0.0054 c 3.204,-2.782105 7.97846,-7.65496 10.92799,-11.153207 1.37037,-1.62513 2.49158,-3.026016 2.49158,-3.112895 0,-0.08688 -1.13811,-1.512838 -2.52914,-3.16879 -2.92235,-3.478938 -9.05672,-9.577318 -12.51205,-12.43865 l -2.38362,-1.973859 -1.32416,1.050688 c -4.41979,3.507015 -9.3637,8.406832 -13.92128,13.797125 l -2.04831,2.422548 1.5422,1.888709 c 4.01875,4.921726 9.64548,10.501298 14.47447,14.353165 l 1.62693,1.297735 0.67958,-0.484256 c 0.37376,-0.266334 1.71288,-1.381497 2.97581,-2.478129 z M 211.19401,58.54704 c 1.13681,-1.705693 2.06692,-3.218449 2.06692,-3.361684 0,-0.323871 -2.64123,-3.316093 -6.00915,-6.807713 -8.6794,-8.998166 -20.75511,-17.639194 -32.29362,-23.108383 -8.74282,-4.144044 -20.03235,-7.725965 -29.30572,-9.298065 -4.91885,-0.833885 -5.03335,-0.832388 -4.87784,0.06377 0.0672,0.387042 0.35488,2.143123 0.63938,3.902403 1.42776,8.828915 4.93699,20.25381 8.63016,28.09695 l 0.99994,2.123577 0.73779,-0.972049 c 0.40579,-0.534627 1.61588,-2.018957 2.68908,-3.298511 l 1.95128,-2.326461 -1.00808,-2.407601 c -2.16357,-5.16724 -5.41025,-15.830315 -4.95785,-16.283052 0.23745,-0.237618 3.93108,0.719683 8.74817,2.267319 12.47315,4.007369 24.05492,10.444855 34.87832,19.386368 3.48845,2.881908 10.39495,9.779753 12.91327,12.897076 0.98449,1.218643 1.8667,2.218326 1.9605,2.221514 0.0938,0.0032 1.10064,-1.389764 2.23745,-3.095458 z M 18.507162,60.998975 c 0.08297,-0.216388 1.159021,-1.914893 2.391214,-3.774456 1.232194,-1.859566 2.274983,-3.454251 2.317309,-3.543746 0.04233,-0.0895 -0.721395,-1.931942 -1.697158,-4.094324 -4.153556,-9.204666 -6.934833,-18.361461 -8.578096,-28.241657 -0.762099,-4.582152 -1.290383,-9.056954 -1.092608,-9.254873 0.07836,-0.07841 2.033009,0.09722 4.343675,0.390301 25.917493,3.287298 49.781823,15.247582 68.082408,34.121428 1.838186,1.895767 3.724571,3.923057 4.191966,4.50509 0.467394,0.582034 0.943978,1.000003 1.05907,0.928816 0.268257,-0.165907 4.064385,-7.375386 4.064385,-7.718928 0,-0.429036 -8.09596,-8.468189 -11.379027,-11.299182 C 67.380273,20.229496 49.715696,11.107505 30.940734,6.5418268 21.980273,4.3628303 15.727769,3.4627804 5.8173694,2.9253107 L 3.0685025,2.7762315 v 2.6470261 c 0,3.2856188 0.5891646,9.7036464 1.4085552,15.3440114 1.3358201,9.195265 3.8259274,18.344698 7.5532473,27.752993 1.428976,3.606943 5.849823,12.872141 6.141883,12.872141 0.101262,0 0.252,-0.177044 0.334974,-0.393428 z m 66.770213,-2.040139 c 0.904932,-1.265274 1.843311,-2.665674 2.085293,-3.112003 l 0.43997,-0.811509 -1.000785,-1.235654 C 85.191196,51.811021 78.073981,44.634038 75.43402,42.336378 61.945781,30.597031 45.66804,22.131954 28.12794,17.735326 23.825333,16.656827 15.70238,15.141719 15.469937,15.374332 c -0.415412,0.415714 1.993,12.498957 3.593579,18.029353 1.58271,5.468651 5.623322,15.943965 6.482699,16.80644 0.112378,0.112783 0.404485,-0.100649 0.649126,-0.47429 0.244641,-0.373642 1.40433,-1.864233 2.577089,-3.312421 l 2.132287,-2.633072 -1.12489,-2.724011 c -2.049148,-4.962185 -5.307278,-15.764934 -4.882839,-16.189684 0.493681,-0.494041 13.097632,3.587134 18.791482,6.084702 13.765361,6.038087 27.747318,16.518148 37.618762,28.196838 1.043191,1.234175 1.993038,2.21182 2.110769,2.172548 0.117731,-0.03927 0.95445,-1.106627 1.859374,-2.371899 z m 61.113595,-1.994196 2.50343,-3.788029 -0.65011,-1.457825 c -3.79259,-8.504629 -5.23401,-12.306194 -7.00459,-18.473687 -1.64333,-5.724282 -3.11057,-13.41092 -3.77755,-19.789957 l -0.15603,-1.492268 1.73071,0.170615 c 3.05398,0.301063 8.53244,1.167042 12.2289,1.933019 23.17625,4.802563 46.09634,18.115881 61.90905,35.960352 l 2.06014,2.324853 1.53954,-2.836643 c 0.84674,-1.560155 1.78214,-3.39537 2.07866,-4.078252 l 0.53913,-1.241609 -4.79169,-4.778771 C 204.17855,29.022545 194.06789,21.759033 181.22001,15.435817 166.29746,8.0915257 148.80185,3.6126285 133.11864,3.1218063 l -4.83613,-0.1513516 0.16504,4.0692627 c 0.54087,13.3351126 3.49459,27.1911056 8.53172,40.0225496 1.87876,4.785931 6.44169,14.22125 6.72275,13.901471 0.10203,-0.11609 1.31206,-1.915683 2.68895,-3.999098 z M 40.913367,33.19401 c -0.433413,-0.602928 -11.827704,-4.434632 -11.974931,-4.026965 -0.124044,0.343468 1.353141,4.991206 2.801362,8.814064 l 1.261423,3.329763 4.019999,-3.969501 c 2.211002,-2.183225 3.962467,-4.049538 3.892147,-4.147361 z m 181.224573,4.464105 c 0.718,-1.935207 1.64928,-4.702917 2.06951,-6.150468 0.75403,-2.597426 0.75684,-2.629744 0.21471,-2.466613 -4.04275,1.21648 -11.22593,3.747492 -11.64282,4.102382 -0.10933,0.09307 7.6871,7.995275 7.91121,8.018531 0.078,0.0081 0.72938,-1.568623 1.44739,-3.503832 z M 96.164476,38.489776 c 0.901879,-2.242347 3.299615,-9.423454 3.186118,-9.5423 -0.183389,-0.192042 -11.41509,3.78671 -11.886028,4.210542 -0.0636,0.05722 1.601321,1.825096 3.699785,3.928601 2.098472,2.103509 3.896699,3.740355 3.996073,3.63744 0.09936,-0.102916 0.551187,-1.108345 1.004052,-2.234283 z m 70.277294,-5.341019 c -0.55404,-0.475917 -11.70986,-4.368616 -11.91924,-4.159084 -0.20501,0.205164 3.2294,9.947029 4.04323,11.468797 0.2191,0.409685 0.74029,-0.01789 4.11511,-3.375914 2.12534,-2.114757 3.81774,-3.884966 3.7609,-3.933799 z M 127.00612,21.424758 c -0.0816,-0.204136 -0.14223,-0.143499 -0.15449,0.154604 -0.0111,0.269756 0.0493,0.420894 0.1343,0.335862 0.085,-0.08503 0.0941,-0.305741 0.0202,-0.490466 z"
        id="path2142" />
    </g>
</svg>
