<?xml version="1.0" encoding="UTF-8" standalone="no"?>
<!-- Created with Inkscape (http://www.inkscape.org/) -->

<svg
    version="1.1"
    id="svg2"
    width="946.66669"
    height="1337.3333"
    viewBox="0 0 946.66669 1337.3333"
    xmlns="http://www.w3.org/2000/svg"
    xmlns:svg="http://www.w3.org/2000/svg">

    <g>
        <path d="m 106.61153,324.72188 536.24006,-148.32413 208.22208,76.3784 v -28.6419 L 642.85159,145.48268 106.83885,302.55851 Z"
        id="path-18" class="area" data-i="18" />
        <path d="M 106.6629,365.41645 642.74601,233.36008 850.6211,301.38219 851.10332,273.41393 643.27015,201.88589 106.76655,343.40894 Z"
        id="path-17" class="area" data-i="17" />
        <path d="m 106.65482,406.32406 535.3265,-115.17039 209.09235,58.23208 -0.22732,-28.64191 -209.02577,-63.28819 -535.0954,126.36857 z"
        id="path-16" class="area" data-i="16" />
        <path d="m 106.54495,447.39824 536.7252,-99.563 207.9939,50.47147 V 368.73107 L 641.98426,314.72338 106.70568,424.33368 Z"
        id="path-15" class="area" data-i="15" />
        <path d="M 105.92958,486.91234 643.98817,403.82809 851.5283,446.44997 V 417.35343 L 643.53353,371.32181 106.40801,463.24452 Z"
        id="path-14" class="area" data-i="14" />
        <path d="m 106.08653,528.50381 537.5051,-67.50961 207.67242,33.43333 V 465.49484 L 644.23458,426.91792 106.27485,505.03619 Z"
        id="path-13" class="area" data-i="13" />
        <path d="m 106.15689,568.74635 538.0586,-51.60089 207.19915,26.14142 0.11366,-29.55117 -207.76744,-29.43752 -537.60397,59.44332 z"
        id="path-12" class="area" data-i="12" />
        <path d="m 106.1569,609.20872 538.4628,-34.9792 206.88103,17.70313 0.0276,-30.0058 -206.16008,-19.84313 -538.98401,41.66553 z"
        id="path-11" class="area" data-i="11" />
        <path d="M 106.15689,649.8984 644.39531,631.3756 852.06773,640.37688 851.907,613.37304 644.55605,597.78153 106.15689,623.87064 Z"
        id="path-10" class="area" data-i="10" />
        <path d="m 106.28627,691.62446 538.43051,-3.99086 207.51169,2.25033 V 662.0764 l -207.67242,-7.55465 -538.2855,14.13028 z"
        id="path-9" class="area" data-i="9" />
        <path d="m 106.24727,732.80076 538.19553,11.66138 207.94641,-6.35706 v -27.48606 l -207.83316,1.2859 -538.30879,-5.78653 z"
        id="path-8" class="area" data-i="8" />
        <path d="m 106.24727,773.62799 v 0 l 537.96821,28.79991 208.4494,-15.45754 v -28.18727 l -208.4494,9.77462 -538.05859,-22.16338 z"
        id="path-7" class="area" data-i="7" />
        <path d="M 105.76506,813.33007 644.89743,859.7117 853.11952,835.61613 V 807.8835 L 644.4428,823.34103 105.92957,787.65231 Z"
        id="path-6" class="area" data-i="6" />
        <path d="M 105.58859,854.59708 644.23457,917.00555 853.38121,885.6618 V 857.43864 L 644.39531,881.96485 105.5886,829.02395 Z"
        id="path-5" class="area" data-i="5" />
        <path d="m 105.92958,895.28676 538.94794,78.78048 208.46931,-40.70493 0.22732,-27.50532 -209.0181,33.65176 L 105.81591,869.259 Z"
        id="path-4" class="area" data-i="4" />
        <path d="m 105.89821,936.88988 538.65784,94.07832 208.79758,-47.73894 0.16074,-28.77195 -209.11906,42.75609 -538.46574,-86.92374 z"
        id="path-3" class="area" data-i="3" />
        <path d="m 105.9453,977.50931 538.28927,110.68129 209.11906,-56.5794 0.16074,-28.6113 -209.07157,51.7495 -538.39957,-102.86079 z"
        id="path-2" class="area" data-i="2" />
        <path d="m 105.76506,1018.1092 539.13237,128.4762 208.4884,-65.667 -0.13315,-28.4812 -208.85737,60.3462 -538.63025,-121.03507 z"
        id="path-1" class="area" data-i="1" />
    </g>
    <style type="text/css">
        .area {
            cursor: pointer;
            fill: #fff0;
            stroke-opacity: 1;
            transition: .3s;
        }
        .areas {
            cursor: pointer;
            fill: #4dd48a3b;
            stroke-opacity: 1;
            transition: .3s;
        }
        .area:hover {
            fill: #fff;
            fill-opacity: .6;
        }
    </style>
</svg>
