<?xml version="1.0" encoding="UTF-8" standalone="no"?>
<svg
    version="1.1"
    id="svg2"
    width="1641"
    height="2156"
    viewBox="0 0 1641 2156"
    xmlns="http://www.w3.org/2000/svg"
    xmlns:svg="http://www.w3.org/2000/svg"
    xmlns:rdf="http://www.w3.org/1999/02/22-rdf-syntax-ns#"
    xmlns:cc="http://creativecommons.org/ns#"
    xmlns:dc="http://purl.org/dc/elements/1.1/">

    <g>
        <path d="M 141.72969,457.23333 1481.7,463.1 l 4.85,-22.46702 2e-4,-51.76725 -1344.68166,-4.54537 z"
        id="path-18" class="area" data-i="18" />
        <!-- <path d="m 141.68521,378.03333 1340.05709,5.62513 15.7987,-61.9245 -0.074,-37.84229 -1340.0883,-6.21084 -15.7534,73.86084 z"
        id="path-18" class="area" data-i="18" /> -->
        <path d="m 141.57851,536.78572 1339.64519,5.35305 5.1855,-20.22325 V 467.72757 L 141.56278,463.06066 Z"
        id="path-17" class="area" data-i="17" />
        <path d="m 141.57851,616.0157 1339.38819,5.30097 6.4166,-19.8 -0.3666,-53.9 -1345.3845,-4.70008 z"
        id="path-16" class="area" data-i="16" />
        <path d="m 141.67018,695.00214 1339.84652,5.88119 5.5,-22 L 1486.65,625.9 141.625,621.95833 Z"
        id="path-15" class="area" data-i="15" />
        <path d="m 141.71667,774.76667 1339.25003,5.31666 6.05,-22.36666 L 1486.65,706.2 141.625,700.975 Z"
        id="path-14" class="area" data-i="14" />
        <path d="m 141.80834,853.78333 1339.15836,6.05 6.2333,-22 -0.7333,-52.06666 -1344.7271,-4.82221 z"
        id="path-13" class="area" data-i="13" />
        <path d="m 141.57851,933.1819 1340.12149,5.48477 5.1333,-22.55 v -51.7 L 141.53402,859.9309 Z"
        id="path-12" class="area" data-i="12" />
        <path d="m 141.50256,1012.1683 1339.46414,6.065 6.5777,-23.20736 0,-50.49261 -1345.89647,-5.18911 z"
        id="path-11" class="area" data-i="11" />
        <path d="m 141.71667,1092.025 1339.76633,5.4754 5.704,-22.1678 v -51.4655 l -1345.57704,-5.1855 z"
        id="path-10" class="area" data-i="10" />
        <path d="m 141.59423,1171.3014 1339.92247,5.5153 5.5,-23.1 v -50.6 L 141.625,1097.9833 Z"
        id="path-9" class="area" data-i="9" />
        <path d="m 141.53333,1250.7917 1339.61667,5.5916 6.2333,-22.1833 v -51.5167 l -1345.88278,-5.3782 z"
        id="path-8" class="area" data-i="8" />
        <path d="m 141.53334,1329.9 1339.69036,5.094 5.9633,-22.5567 v -51.0767 l -1345.79182,-4.6669 z"
        id="path-7" class="area" data-i="7" />
        <path d="m 141.48684,1409.421 1339.99616,5.429 5.9633,-22.5567 v -51.5953 l -1346.00463,-4.3813 z"
        id="path-6" class="area" data-i="6" />
        <path d="m 141.53333,1488.7583 1339.94967,5.5587 5.4447,-23.2049 v -51.2063 L 141.44166,1415.7 Z"
        id="path-5" class="area" data-i="5" />
        <path d="m 141.56547,1568.3262 1339.91753,5.1985 5.9633,-23.3345 v -50.5581 l -1346.01967,-4.6827 z"
        id="path-4" class="area" data-i="4" />
        <path d="m 141.59423,1647.0979 1339.55577,5.8354 6.05,-23.65 V 1578.5 l -1345.66666,-4.2167 z"
        id="path-3" class="area" data-i="3" />
        <path d="m 141.71666,1726.725 1339.52504,5.225 5.8666,-22.825 v -0.4583 -50.4167 L 141.625,1653.575 Z"
        id="path-2" class="area" data-i="2" />
        <path d="M 141.73891,1806.4056 1481.15,1811.7 l 6.05,-22.1833 V 1737.45 l -1345.48333,-4.2167 z"
        id="path-1" class="area" data-i="1" />
    </g>
    <style type="text/css">
        .area, .areo {
            cursor: pointer;
            fill: #fff0;
            stroke-opacity: 1;
            transition: .3s;
        }
        .area:hover {
            fill: #fff;
            fill-opacity: .6;
        }
        .selected {
            fill: #fff;
            fill-opacity: .6;
        }
    </style>
</svg>
