<?xml version="1.0" encoding="UTF-8" standalone="no"?>
<svg
    version="1.1"
    id="svg2"
    width="1929"
    height="965"
    viewBox="0 0 1929 965"
    xmlns="http://www.w3.org/2000/svg"
    xmlns:svg="http://www.w3.org/2000/svg"
    xmlns:rdf="http://www.w3.org/1999/02/22-rdf-syntax-ns#"
    xmlns:cc="http://creativecommons.org/ns#"
    xmlns:dc="http://purl.org/dc/elements/1.1/">

    <g>
        <path d="M 396.94533,455.77983 H 357.508 l -0.59232,-85.0725 h -82.90143 v 5.019 H 171.681 v 9.21634 h -43.53993 v -15.7509 h 16.21655 v -5.30448 H 131.39953 V 141.85693 h 132.65914 v -14.3286 h 121.63416 l 0,53.34115 h 17.20183 l 0.90934,132.48585 h -22.505 v 11.14534 h 22.1835 V 371.011 h -6.64433 z"
        id="path-1" class="area" data-i="1" />
        <path d="M 404.66133,456.31567 H 513.114 l 0.15156,-54.34001 -3.48023,0 0.11367,-30.10733 h 3.42933 V 217.6555 h -3.32216 v -25.82717 h -11.23355 v -62.09592 h -17.58056 v 13.03386 H 407.44767 V 401.875 H 403.804 l -0.0536,54.44067 z"
        id="path-2" class="area" data-i="2" />
        <path d="M 518.62389,456.48022 625.79056,456.70756 625.639,403.161 h -3.42933 v -31.93567 h 3.7189 V 217.18054 h -3.18269 v -25.61306 l -6.96398,0.0379 -0.25873,-49.90892 -95.35456,0.42867 -0.30311,-12.23913 h -16.718 v 45.3315 h 16.99459 l -0.0379,42.49349 -3.33424,1e-5 -0.11367,154.05724 h 3.78892 l -0.11367,30.19764 -3.25847,0.0379 0.0379,54.40881 z"
        id="path-3" class="area" data-i="3" />
        <path d="m 629.78788,456.79145 h 108.89876 v -54.38062 h -3.63047 v -30.864 h 3.96516 v -152.7125 h -3.5365 V 190.6495 h -4.60816 v -60.31086 h -16.59063 v 11.82141 H 632.4455 v 75.02049 h -2.73417 v 154.08919 l 3.32217,0 -0.0379,31.76571 -3.28428,0.0368 z"
        id="path-4" class="area" data-i="4" />
        <path d="m 742.05877,456.92727 108.95173,0.0314 v -53.58333 h -3.42933 V 371.011 h 3.42933 V 218.51283 h -3.32216 V 181.11008 H 846.188 V 141.7815 h -94.09233 v -11.47222 h -17.361 v 44.69389 h 11.574 l -0.0758,43.80628 -4.01875,0.0379 -2e-5,152.76934 3.4441,-0.0379 0.16458,30.87583 -3.95347,0.0536 z"
        id="path-5" class="area" data-i="5" />
        <path d="m 855.08284,456.95867 108.18474,0.16075 -0.0536,-55.26722 h -2.95168 v -29.76953 h 2.73735 V 217.44117 H 959.356 v -36.78576 h 2.42189 v -50.77144 h -16.67122 v 12.12452 l -94.26818,-0.22731 v 33.22201 h 7.24501 l 0.0888,43.40249 -2.76794,0.0536 v 152.608 h 2.36417 l -0.11367,32.25177 -2.75495,0.0379 z"
        id="path-6" class="area" data-i="6" />
        <path d="m 968.05489,457.13622 107.91141,-0.3031 -0.2271,-53.45779 h -3.858 v -33.436 h 3.858 v -151.105 h -3.4293 l -0.255,-43.11238 7.2744,-0.18295 -0.022,-33.62433 h -96.37423 v -11.98553 h -16.02865 l 1e-5,50.82425 4.24359,-0.0268 0.0804,36.57031 -3.08471,0.0536 0.0536,154.78284 h 2.99514 l 0.13396,29.6607 -3.74024,0.003 z"
        id="path-7" class="area" data-i="7" />
        <path d="m 1079.7057,456.68586 108.6492,-0.0536 v -54.55274 h -3.1826 V 370.1011 h 3.3342 V 217.76267 h -3.6718 l -0.268,-42.00934 9.645,-0.0536 -0.1607,-46.02808 h -16.9323 V 142.103 h -92.8064 v 39.00867 l -4.2161,0.1876 -0.2143,188.5329 h 3.5731 l 0.2588,33.48578 -3.8443,0.049 z"
        id="path-8" class="area" data-i="8" />
        <path d="m 1192.6175,456.67779 109.2801,0.0341 -0.027,-54.48078 h -4.6983 v -31.22065 h 4.6983 V 218.08988 h -4.8498 v -37.19255 h 4.2436 v -39.0404 h -86.2357 l -0.1516,-12.2003 -16.7469,0.15158 -0.076,51.30189 -2.835,0.0377 0.1894,36.52533 -2.7484,0.0379 0.2652,152.44268 h 2.3576 L 1195.256,402 l -2.6321,0.0536 c 0.01,33.16319 -0.015,36.44356 -0.01,54.62421 z"
        id="path-9" class="area" data-i="9" />
        <path d="m 1305.1293,456.56412 h 108.9349 l 0.076,-53.88472 h -3.9912 l -0.1569,-31.50764 3.7508,-0.0536 -0.054,-153.62341 -4.8226,-0.0536 -0.3659,-41.72276 17.4591,-0.22734 v -46.24807 h -16.2894 l 0.1516,12.15423 -97.1374,0.27711 -0.1072,39.00868 h -4.7153 l -0.038,37.36978 -2.9628,0.0379 v 152.95709 h 3.9836 l 0.076,31.22989 h -4.1113 z"
        id="path-10" class="area" data-i="10" />
        <path d="m 1417.4012,456.48834 111.4385,0.15156 V 402.518 h -5.787 V 174.89626 h 21.9148 l -0.1516,-33.49399 -97.6024,0.30311 -0.063,-12.56081 -17.8653,0.10717 -0.1072,51.70679 h -9.0934 v 36.60629 h -2.8352 l 0.1072,153.36446 3.7261,-0.10717 -0.089,31.71209 -3.4859,0.15156 z"
        id="path-11" class="area" data-i="11" />
        <path d="m 1534.0554,456.48834 h 40.9203 V 371.162 h 24.7037 v 3.03113 h 15.1557 v -2.72802 h 30.9175 v 2.87958 h 134.8854 v 6.36537 h 45.0122 v -16.67122 h -25.4615 V 142.53167 h -141.0991 v -9.76813 H 1550.272 v 48.34654 h -16.074 v 37.72425 h -4.9297 v 152.60534 h 4.6356 z"
        id="path-12" class="area" data-i="12" />
        <path d="M 1580.2797,590.48834 V 382.585 h 19.5043 v -4.07233 h 170.1807 v 6.85866 h 55.7266 v 15.64634 H 1799.757 V 566.5184 h 25.8932 v 16.36811 h -49.4074 l -0.1072,7.59621 z"
        id="path-13" class="area" data-i="13" />
        <path d="M 1575.1357,520.58966 V 594.749 l 206.8316,0.45467 v -7.716 h 43.9384 v 18.004 h -25.9344 v 222.90667 h -265.9876 v -53.15467 h -4.9297 V 520.59676 Z"
        id="path-14" class="area" data-i="14" />
        <path d="m 1303.9926,520.74832 h 25.0068 l -0.1515,-7.57783 7.9544,0.0724 0.057,7.29173 31.3936,0.21367 v 114.57675 h 71.8378 v 139.70427 h -24.4187 v 54.22633 H 1304.004 v -44.367 h 5.3583 v -31.07833 h -5.3583 z"
        id="path-15" class="area" data-i="15" />
        <path d="m 1192.9017,513.01894 84.72,-0.15156 v 8.03249 l 21.3696,-0.15155 -0.1516,308.7207 h -106.0896 v -44.47318 h 3.4442 v -30.69887 h -3.1411 V 600.0124 h 2.8796 v -31.52377 l -3.2585,0.0758 z"
        id="path-16" class="area" data-i="16" />
        <path d="m 1080.2951,519.91476 23.946,-0.0758 -0.1516,-6.9716 84.8717,0.15156 0.1516,55.62125 h -4.8499 l 0.1516,31.67532 4.6982,-0.15155 v 153.98145 h -4.2436 v 30.61443 h 4.2436 v 45.16385 h -108.8176 v -44.25451 h 3.6374 v -32.12999 h -3.6374 z"
        id="path-17" class="area" data-i="17" />
        <path d="m 967.08237,513.8525 85.32633,-0.0758 v 6.06226 h 23.5446 v 234.15488 h -3.8422 v 31.22065 h 3.7889 v 44.70918 H 967.08237 v -45.0123 h 3.63736 v -31.22065 h -3.58535 l 0,-153.5574 h 4.22429 v -30.864 l -4.23309,-2e-5 z"
        id="path-18" class="area" data-i="18" />
        <path d="m 855.68831,522.11233 24.55215,-0.15156 v 0 -8.18405 l 83.50767,0.15155 0.15156,55.46971 -4.5467,-0.15156 v 30.91753 l 4.39514,0.15156 0.15155,153.22368 h -3.33424 l -0.15156,31.3722 h 3.4858 l -0.15156,45.01231 -107.90826,-0.15156 0.15156,-44.10296 h 3.94047 v -33.03933 h -4.24359 z"
        id="path-19" class="area" data-i="19" />
        <path d="m 745.99813,514.33856 79.83353,0.0444 0.15156,7.88093 h 24.55216 v 230.61707 h -3.8333 l 0.10716,32.94739 h 3.61897 l 0.10717,44.13212 -108.81761,-0.10717 v -44.18411 l 4.42272,0 z"
        id="path-20" class="area" data-i="20" />
        <path d="m 402.58622,521.96077 h 25.10637 v -7.27471 h 86.99347 v 53.65102 h -4.84981 v 31.22065 h 4.54669 v 59.25861 h 46.22475 v 122.4577 l -25.00683,0.30311 0.30397,48.28872 -133.34815,0.0684 -0.0523,-44.6893 5.78902,-0.0304 -0.60623,-215.94517 H 402.518 Z"
        id="path-21" class="area" data-i="21" />
        <path d="m 356.76412,521.65766 h 41.22339 v 78.50629 h 4.24358 v 154.58769 h -5.15292 v 73.35337 H 131.55109 V 602.28575 l -2.41402,-0.11101 v -15.04465 h 42.12184 v 7.57783 h 117.23376 v 6.28275 l 68.57457,0.68885 z"
        id="path-22" class="area" data-i="22" />
        <path d="m 352.52054,381.6194 -0.30311,212.48229 h -36.37357 v -4.84981 h -131.8542 v -8.48717 H 129.4293 V 566.5184 h 3.03113 V 404.95911 h -4.84981 v -15.76188 h 49.71055 v -7.88094 z"
        id="path-23" class="area" data-i="23" />
    </g>
    <style type="text/css">
        .area {
            cursor: pointer;
            fill: #fff0;
            stroke-opacity: .2;
            stroke-width: 0px;
            transition: .3s;
        }
        .area:hover {
            fill: #fff9;
            stroke: #fff9;
            stroke-opacity: .7;
            stroke-width: 8px;
        }
        .reserved {
            fill: #B09470bb;
            stroke: #B09470;
            stroke-opacity: 1;
            stroke-width: 4px;
        }
        .reserved:hover {
            fill: #B0947077;
            stroke: #B09470;
            stroke-opacity: 1;
            stroke-width: 8px;
        }
        .sold {
            fill: #80C9C2bb;
            stroke: #80C9C2;
            stroke-opacity: 1;
            stroke-width: 4px;
        }
        .sold:hover {
            fill: #80C9C277;
            stroke: #80C9C2;
            stroke-opacity: 1;
            stroke-width: 8px;
        }
        .select {
            fill: #B09470bb;
            stroke: #B09470;
            stroke-opacity: 1;
            stroke-width: 16px;
        }
    </style>
</svg>
