<svg width="86" height="92" viewBox="0 0 86 92" fill="none" xmlns="http://www.w3.org/2000/svg">
<path d="M61.1691 43.3086V41.5061C61.1691 41.4669 61.1169 39.0635 59.1837 35.1449C58.0473 32.8198 56.4799 30.4426 54.5337 28.0392C52.1041 25.0349 49.0738 22.0307 45.5209 19.0917C43.3787 17.3153 42.0987 15.3168 41.7068 13.1355C41.3541 11.1762 41.7721 9.12543 42.8954 7.21838C44.489 4.51455 47.4018 2.25483 50.8763 1.00088C54.599 -0.331441 58.4914 -0.331442 61.8484 0.987817L63.037 1.45805L62.0443 2.26789C62.0182 2.28095 59.7976 4.16187 59.8107 6.90489C59.8238 8.9948 61.1038 11.0847 63.6248 13.1355C67.7262 16.4532 69.9207 20.3979 70.1296 24.839C70.2341 26.942 69.8815 29.1625 69.0978 31.4353C68.4708 33.2378 67.5826 35.0665 66.4331 36.8952C64.4869 39.9909 62.5015 41.9502 62.4231 42.0416L61.1691 43.3086ZM56.5191 1.52336C54.8341 1.52336 53.0968 1.82378 51.3988 2.4377C48.2508 3.56103 45.6254 5.58563 44.2016 8.0021C43.2612 9.59566 42.9085 11.2937 43.1959 12.8873C43.5224 14.7029 44.6327 16.4009 46.4875 17.9423C50.1448 20.9726 53.2797 24.0814 55.7876 27.1901C57.7991 29.685 59.4188 32.1929 60.6075 34.6224C61.6916 36.856 62.2141 38.6194 62.4623 39.808C63.1937 38.9459 64.2256 37.6528 65.2183 36.0592C66.3025 34.335 67.1385 32.6109 67.7262 30.9259C68.4447 28.849 68.7581 26.8244 68.6667 24.9174C68.4708 20.9204 66.4723 17.3675 62.7104 14.3241C59.8107 11.9729 58.3347 9.4781 58.3347 6.91795C58.3216 4.72354 59.4058 3.01242 60.2287 2.03277C59.027 1.69316 57.7861 1.52336 56.5191 1.52336Z" fill="#B09470"/>
<path d="M72.7814 21.1685L72.2328 20.7897C71.214 20.0844 70.4564 19.9146 69.6465 19.7317C68.7714 19.5358 67.7656 19.3268 66.5247 18.4125L67.426 17.1977C68.4056 17.9161 69.1371 18.0859 69.9731 18.2688C70.6915 18.4255 71.4883 18.5953 72.4418 19.1439C72.6247 18.8174 72.8598 18.3602 73.0426 17.8639C73.4214 16.832 73.3953 16.2311 73.2516 16.0352L72.7683 15.369L73.4737 14.951C73.9309 14.6767 74.9497 13.2138 75.7857 11.8162C73.2908 10.2618 68.6277 8.79885 68.5754 8.78579L68.1052 8.64211L68.0399 8.15881C67.8962 7.00936 67.2039 5.91215 65.9892 4.89332C64.8136 3.91367 63.1939 3.06465 61.313 2.45073L61.7832 1.01392C63.847 1.69314 65.6365 2.6336 66.9558 3.7308C68.3142 4.8672 69.1632 6.12115 69.4506 7.47959C70.8352 7.93676 75.1064 9.41276 77.2094 10.9671L77.745 11.359L77.4184 11.9337C77.131 12.4431 75.8379 14.729 74.7538 15.8001C74.9236 16.4662 74.8191 17.3283 74.4272 18.3863C74.0615 19.366 73.5129 20.3195 73.1994 20.6722L72.7814 21.1685Z" fill="#B09470"/>
<path d="M64.9964 58.9045H57.1331L51.6602 50.1661L52.0128 49.7481C52.039 49.7089 55.1346 45.9079 54.7428 42.3681C54.586 40.9313 53.8937 39.7557 52.6267 38.776L53.5541 37.5874C55.1346 38.8152 56.0359 40.3696 56.2449 42.2113C56.6237 45.6597 54.3901 49.0819 53.515 50.2836L57.9821 57.4024H63.4029C63.3767 57.2587 63.3376 57.115 63.2722 56.9714C62.9718 56.1615 62.5147 56.057 62.1881 56.044C61.3521 56.0178 58.5569 55.7958 57.4466 53.9018C56.7935 52.7785 56.8849 51.3678 57.7601 49.722C60.9995 43.5306 61.0517 41.1794 61.0517 41.1533V41.1664L62.5669 41.1403C62.5669 41.4015 62.5277 43.8833 59.0924 50.4273C58.4916 51.5898 58.374 52.5042 58.7528 53.1442C59.3275 54.1239 60.9864 54.5027 62.2404 54.5418C63.3898 54.568 64.265 55.2733 64.7091 56.5011C64.9964 57.311 65.0095 58.0816 65.0095 58.1731V58.9045H64.9964Z" fill="#B09470"/>
<path d="M56.3493 57.2327H51.7907L47.4541 50.2053L47.7284 49.8004C47.7545 49.7612 50.1971 46.1169 50.5367 42.969L52.0389 43.1257C51.7254 46.0124 49.9359 49.1212 49.2436 50.2184L52.6397 55.7044H56.3493V57.2327Z" fill="#B09470"/>
<path d="M52.8487 43.8051C52.2087 43.8051 51.5556 43.7528 50.8894 43.6483C49.3089 43.4001 47.859 42.8907 46.3308 42.3552C42.7257 41.1012 39.003 39.795 33.2427 41.9503L32.7202 40.5396C39.003 38.2015 43.1567 39.6514 46.8402 40.9314C49.7922 41.9633 52.3524 42.8515 55.7093 41.8849L56.1273 43.3348C55.017 43.6483 53.9459 43.8051 52.8487 43.8051Z" fill="#B09470"/>
<path d="M62.6319 41.7805L61.2343 41.2319C65.8843 29.463 59.8889 21.1295 55.069 14.4287C53.175 11.8032 51.5423 9.54351 50.7455 7.36216C49.8051 4.81508 50.1708 2.67292 51.8558 0.818115L52.9791 1.83695C51.6729 3.27376 51.4247 4.81508 52.1693 6.83968C52.9007 8.8251 54.4812 11.0195 56.2969 13.5535C58.7525 16.9758 61.5478 20.8421 63.1413 25.4661C64.9961 30.8737 64.8263 36.2161 62.6319 41.7805Z" fill="#B09470"/>
<path d="M20.3768 58.9046H11.6514L11.4685 58.4082C11.2203 57.7028 9.63982 56.5012 8.60793 55.8742L8.24219 55.6521V55.2211V45.934L8.81692 45.7903C12.4612 44.9282 13.9372 42.0415 15.6483 38.7107C16.9153 36.242 18.3522 33.4337 20.8862 31.2393C24.1125 28.444 29.6899 26.55 35.0845 24.7214C39.604 23.1931 44.2671 21.6126 47.5195 19.5227L48.3294 20.7897C44.9333 22.9711 40.1656 24.5908 35.5678 26.1451C30.3169 27.9216 24.8831 29.7633 21.8658 32.3757C19.5408 34.3872 18.2346 36.9343 16.9806 39.39C15.2565 42.7469 13.6368 45.921 9.73126 47.0965V54.8031C10.0186 54.986 10.4235 55.2733 10.8546 55.5999C11.7036 56.253 12.2783 56.8408 12.6179 57.3894H19.0314C19.0183 56.9844 18.953 56.5142 18.6918 56.2399C18.3652 55.8872 17.7644 55.9525 17.5684 55.9656C15.7136 56.1615 13.4409 56.1877 12.1869 54.5941C11.5599 53.7843 11.3248 52.5303 11.5599 51.2241C11.7689 50.0616 12.3045 49.1473 13.0229 48.7162C13.467 48.4419 13.9633 48.3505 14.4727 48.259C15.5569 48.0501 16.9153 47.7888 18.8093 45.6467C19.8412 44.4711 21.9181 44.1445 24.3215 43.7527C26.5943 43.3869 29.1805 42.9689 31.1006 41.7672C32.1064 41.1403 32.8379 40.3696 33.3342 39.403C33.909 38.2928 34.1833 36.8821 34.1571 35.2363L35.6723 35.1971C35.7115 37.1041 35.385 38.7499 34.6796 40.0953C34.0526 41.297 33.1252 42.2897 31.8974 43.0473C29.7161 44.4058 26.9731 44.8499 24.5566 45.2417C22.532 45.5683 20.6119 45.8818 19.9327 46.6394C17.686 49.1734 15.9226 49.513 14.7471 49.735C14.3291 49.8134 14.0156 49.8787 13.7935 50.0093C13.5192 50.1661 13.1927 50.6886 13.0359 51.4984C12.8792 52.3605 13.0098 53.2095 13.3625 53.6667C14.1593 54.6725 15.9357 54.6333 17.3986 54.4765C18.6787 54.3459 19.3971 54.8031 19.789 55.2211C20.7947 56.3183 20.4943 58.0947 20.4551 58.2906L20.3768 58.9046Z" fill="#B09470"/>
<path d="M41.8502 23.4543C41.4975 23.1147 41.2101 22.0828 41.0142 21.2599C40.8052 20.3586 40.544 18.8957 40.4917 17.0931C40.4134 14.1281 40.8836 9.81763 43.6527 6.09497L44.8675 6.99625C42.4249 10.2748 41.9547 14.115 41.9939 16.7666C42.033 19.8884 42.7776 22.1481 42.9604 22.4486C42.9604 22.4486 42.9343 22.4094 42.8951 22.3702L41.8502 23.4543Z" fill="#B09470"/>
<path d="M41.1973 57.2326H34.0524L28.6447 51.5376C28.4096 51.3678 27.8479 50.8453 27.7957 49.9963C27.7434 49.1995 28.1745 48.4028 29.0627 47.6452L29.0758 47.6321C29.0758 47.6321 29.1672 47.41 28.7753 46.6394C28.4488 45.9863 27.9132 45.2026 27.3908 44.445C27.234 44.2229 27.0773 44.0009 26.9336 43.7658L28.1875 42.9298C28.3312 43.1518 28.488 43.3739 28.6317 43.596C29.2325 44.4842 29.8595 45.3854 30.2252 46.1822C30.7608 47.3447 30.6954 48.2199 30.0423 48.7816C29.5591 49.1995 29.2978 49.5914 29.3109 49.8788C29.3239 50.1269 29.546 50.2967 29.5721 50.3359L29.6505 50.3882L29.7027 50.4404L34.7055 55.7175H39.5515C39.447 55.3909 39.2772 55.0121 38.9767 54.7248C38.6241 54.3982 38.1538 54.2415 37.5399 54.2545C36.1031 54.2937 34.823 53.6275 33.8303 52.3083C33.125 51.3678 32.8115 50.4274 32.7984 50.3882L32.6025 49.7873L33.1511 49.5C33.2033 49.4608 34.0262 48.9644 35.0059 47.5929C36.7301 45.2026 37.6313 42.0808 38.0885 39.8733L39.5645 40.1868C38.193 46.7439 35.5806 49.5 34.4312 50.4274C34.5618 50.7147 34.7708 51.0805 35.0451 51.4462C35.7374 52.3475 36.5472 52.7785 37.4746 52.7524C38.5065 52.7263 39.3555 53.0267 40.0086 53.6406C41.145 54.7247 41.1711 56.3967 41.1842 56.462L41.1973 57.2326Z" fill="#B09470"/>
<path d="M16.2882 33.486C16.1053 33.486 15.9225 33.486 15.7396 33.473C13.8326 33.3685 12.1998 32.6893 11.0112 31.5267C10.1621 30.6908 9.58741 29.6589 9.37842 28.5356C9.15637 27.3992 9.31311 26.2497 9.80947 25.2178C10.4756 23.8463 11.7165 22.7752 13.4015 22.1352C15.2563 21.4168 17.5683 21.247 20.2721 21.6127C24.1123 22.1352 27.4693 22.1483 30.0033 21.6519C31.8711 21.2862 33.308 20.6331 33.8304 19.8755C34.1047 19.4836 33.9872 19.2746 33.948 19.1962C33.7259 18.7783 32.8638 18.3472 31.414 18.3472V16.832C33.3341 16.832 34.7448 17.4329 35.2934 18.4909C35.6591 19.1962 35.5807 20.0061 35.0713 20.7376C34.0394 22.2136 31.0874 23.5067 25.7581 23.5067C24.0993 23.5067 22.2053 23.3761 20.0631 23.0887C17.6205 22.7622 15.5567 22.9059 13.937 23.5328C12.6178 24.0422 11.6643 24.8521 11.1679 25.8709C10.4234 27.3861 10.7761 29.1887 12.0692 30.4426C12.9966 31.3569 14.3028 31.8794 15.831 31.9578C17.6989 32.0623 19.7888 31.5268 22.0485 30.3642L22.7408 31.7096C20.4419 32.8852 18.2736 33.486 16.2882 33.486Z" fill="#B09470"/>
<path d="M29.7814 19.797C29.1414 19.797 28.3707 19.6403 27.4564 19.3268C26.3331 18.948 25.4057 18.4647 25.3665 18.4386L24.2432 17.8508L25.2881 17.1454C25.3273 17.1193 26.1894 16.5315 27.2605 16.0352C28.8671 15.2906 30.0557 15.1469 30.9048 15.591C31.3881 15.8523 31.9758 16.427 31.9889 17.7332C31.9889 18.7259 31.5187 19.2223 31.1138 19.4705C30.748 19.6925 30.3039 19.797 29.7814 19.797ZM27.3389 17.681C28.6059 18.1773 29.8729 18.4516 30.317 18.1773C30.3562 18.1512 30.4737 18.0859 30.4737 17.7332C30.4737 17.4328 30.4215 17.0409 30.1994 16.9234C29.69 16.6752 28.4622 17.1062 27.3389 17.681Z" fill="#B09470"/>
<path d="M71.3442 16.4141L72.3369 14.912L73.8391 14.8206L73.9044 16.3227L71.3442 16.4141Z" fill="#B09470"/>
<path d="M67.5824 8.82501L66.5244 7.30982L68.5882 7.23145L68.6535 8.73357L67.5824 8.82501Z" fill="#B09470"/>
<path d="M12.9183 78.7459C13.2057 79.2553 13.493 79.6079 13.7804 79.7908V79.9737H11.3378C11.0896 79.6863 10.8545 79.3336 10.6324 78.9026C10.4104 78.4716 10.1753 77.9229 9.9271 77.2437C9.50912 76.1465 9.07807 75.2844 8.64702 74.6836C8.21598 74.0827 7.68044 73.6778 7.05346 73.4819H6.46568H2.32503V79.9737H0V64.2993H6.46568C8.60784 64.2993 10.2667 64.6781 11.4423 65.4357C12.6179 66.1933 13.1926 67.3428 13.1926 68.8971C13.1926 71.2091 11.8864 72.6459 9.274 73.2206C9.83566 73.508 10.332 73.9129 10.75 74.4615C11.168 75.0101 11.5598 75.7416 11.9386 76.6821C12.3044 77.5442 12.6309 78.2234 12.9183 78.7459ZM6.53099 72.4239C9.45687 72.4239 10.9198 71.2483 10.9198 68.8841C10.9198 66.546 9.45687 65.3704 6.53099 65.3704H2.35115V72.4239H6.53099Z" fill="white"/>
<path d="M21.4347 79.229C20.1677 78.589 19.2011 77.6616 18.5219 76.4468C17.8557 75.2321 17.5161 73.7691 17.5161 72.0711C17.5161 70.3991 17.8557 68.9623 18.5219 67.7606C19.188 66.5589 20.1677 65.6446 21.4347 65.0176C22.7017 64.3906 24.2169 64.0771 25.9803 64.0771C27.7436 64.0771 29.2458 64.3906 30.5128 65.0176C31.7667 65.6446 32.7333 66.5589 33.4125 67.7606C34.0787 68.9623 34.4183 70.3991 34.4183 72.0711C34.4183 73.7691 34.0787 75.2321 33.4125 76.4468C32.7464 77.6616 31.7798 78.589 30.5128 79.229C29.2458 79.8691 27.7436 80.1956 25.9803 80.1956C24.2169 80.1826 22.7017 79.8691 21.4347 79.229ZM30.4736 77.2828C31.5316 76.055 32.0672 74.3177 32.0672 72.0711C32.0672 69.8636 31.5447 68.1655 30.4867 66.9638C29.4286 65.7621 27.9265 65.1613 25.9803 65.1613C24.021 65.1613 22.5189 65.7621 21.4608 66.9508C20.4028 68.1394 19.8673 69.8505 19.8673 72.0711C19.8673 74.3177 20.4028 76.055 21.4608 77.2828C22.5189 78.5106 24.021 79.1115 25.9803 79.1115C27.9134 79.1115 29.4156 78.4976 30.4736 77.2828Z" fill="white"/>
<path d="M43.5615 73.1553L36.8477 64.2993H39.3817L45.0767 71.7969L51.242 64.2993H52.8747L45.8865 72.8288V79.9606H43.5615V73.1553Z" fill="white"/>
<path d="M65.3361 75.8852H56.3234L54.2857 79.9605H52.7183L60.8559 64.0771H62.0576L69.738 79.9605H67.2301L65.3361 75.8852ZM64.8137 74.8141L60.9604 66.585L56.8458 74.8141H64.8137Z" fill="white"/>
<path d="M73.8394 64.2993H76.1644V78.8895H86V79.9606H73.8394V64.2993Z" fill="white"/>
<path d="M8.24219 85.2114H10.7632C11.3771 85.2114 11.9257 85.329 12.3959 85.5641C12.8792 85.7992 13.2449 86.1388 13.5062 86.5699C13.7674 87.0009 13.898 87.5103 13.898 88.0851C13.898 88.6598 13.7674 89.1561 13.5062 89.6003C13.2449 90.0313 12.8792 90.3709 12.3959 90.606C11.9126 90.8411 11.3771 90.9587 10.7632 90.9587H8.24219V85.2114ZM10.7109 90.0574C11.1289 90.0574 11.5077 89.979 11.8212 89.8092C12.1477 89.6525 12.3828 89.4174 12.5657 89.117C12.7355 88.8165 12.8269 88.4769 12.8269 88.072C12.8269 87.6801 12.7355 87.3275 12.5657 87.027C12.3959 86.7266 12.1477 86.4915 11.8212 86.3348C11.4946 86.178 11.1289 86.0866 10.7109 86.0866H9.31327V90.0313H10.7109V90.0574Z" fill="#B09470"/>
<path d="M19.7626 90.0705V90.9718H15.4521V85.2114H19.6581V86.0996H16.5232V87.6018H19.3054V88.4769H16.5232V90.0705H19.7626Z" fill="#B09470"/>
<path d="M26.5548 85.2114L24.0469 90.9587H22.9889L20.481 85.2114H21.6304L23.5505 89.6525L25.4837 85.2114H26.5548Z" fill="#B09470"/>
<path d="M31.8972 90.0705V90.9718H27.5737V85.2114H31.7797V86.0996H28.6448V87.6018H31.427V88.4769H28.6448V90.0705H31.8972Z" fill="#B09470"/>
<path d="M33.5039 85.2114H34.5619V90.0574H37.5792V90.9587H33.5039V85.2114Z" fill="#B09470"/>
<path d="M39.8389 90.6712C39.3687 90.41 39.003 90.0573 38.7287 89.6132C38.4544 89.156 38.3237 88.6597 38.3237 88.098C38.3237 87.5363 38.4544 87.0269 38.7287 86.5828C39.003 86.1256 39.3687 85.773 39.8389 85.5248C40.3092 85.2636 40.8447 85.146 41.4325 85.146C42.0203 85.146 42.5427 85.2766 43.026 85.5248C43.4963 85.786 43.862 86.1387 44.1363 86.5828C44.4106 87.0269 44.5412 87.5363 44.5412 88.1111C44.5412 88.6727 44.4106 89.1821 44.1363 89.6393C43.862 90.0834 43.4963 90.4361 43.026 90.6973C42.5558 90.9586 42.0203 91.0761 41.4325 91.0761C40.8447 91.0761 40.3092 90.9194 39.8389 90.6712ZM42.4513 89.8483C42.7648 89.6785 42.9999 89.4303 43.1697 89.1299C43.3395 88.8164 43.431 88.4768 43.431 88.0849C43.431 87.7061 43.3395 87.3535 43.1697 87.04C42.9999 86.7265 42.7517 86.4914 42.4513 86.3216C42.1378 86.1518 41.7982 86.0603 41.4194 86.0603C41.0406 86.0603 40.688 86.1518 40.3875 86.3216C40.074 86.4914 39.8389 86.7396 39.6691 87.04C39.4993 87.3535 39.4079 87.6931 39.4079 88.0849C39.4079 88.4637 39.4993 88.8164 39.6691 89.1299C39.8389 89.4434 40.0871 89.6785 40.3875 89.8483C40.701 90.0181 41.0406 90.1095 41.4194 90.1095C41.8113 90.1095 42.1509 90.0181 42.4513 89.8483Z" fill="#B09470"/>
<path d="M49.7401 85.4595C50.1059 85.6293 50.3932 85.8644 50.5891 86.1648C50.7851 86.4783 50.8896 86.831 50.8896 87.262C50.8896 87.68 50.7851 88.0457 50.5891 88.3462C50.3932 88.6597 50.1059 88.8948 49.7401 89.0515C49.3744 89.2213 48.9303 89.2997 48.4339 89.2997H47.1277V90.9586H46.0566V85.1982H48.4209C48.9433 85.2113 49.3744 85.2897 49.7401 85.4595ZM49.4528 88.098C49.6879 87.9021 49.8185 87.6147 49.8185 87.249C49.8185 86.8832 49.7009 86.5959 49.4528 86.3999C49.2176 86.204 48.8519 86.0995 48.3947 86.0995H47.1408V88.3854H48.3947C48.8519 88.3984 49.2046 88.2939 49.4528 88.098Z" fill="#B09470"/>
<path d="M57.6553 90.9587V87.1446L55.7613 90.3056H55.2781L53.3971 87.1968V90.9587H52.3652V85.2114H53.2535L55.5393 89.0255L57.786 85.2114H58.6611L58.6742 90.9587H57.6553Z" fill="#B09470"/>
<path d="M64.9573 90.0705V90.9718H60.6338V85.2114H64.8397V86.0996H61.7049V87.6018H64.4871V88.4769H61.7049V90.0705H64.9573Z" fill="#B09470"/>
<path d="M71.6843 85.2114V90.9587H70.796L67.622 87.0662V90.9587H66.564V85.2114H67.4391L70.6132 89.1039V85.2114H71.6843Z" fill="#B09470"/>
<path d="M74.806 86.1127H72.8989V85.2114H77.7841V86.1127H75.8771V90.9718H74.806V86.1127Z" fill="#B09470"/>
</svg>
