<svg width="916" height="384" viewBox="0 0 916 384" fill="none" xmlns="http://www.w3.org/2000/svg">
<g class="letter">
<path d="M116.023 145.312L187.312 256.25H151.57L80.7695 146.191H30.9648V256.25H0.789062V0.195312L104.891 0C118.302 0 130.542 3.28776 141.609 9.86328C152.677 16.4388 161.499 25.2604 168.074 36.3281C174.65 47.3958 177.938 59.6354 177.938 73.0469C177.938 85.2214 175.203 96.4518 169.734 106.738C164.331 117.025 156.974 125.553 147.664 132.324C138.354 139.095 127.807 143.424 116.023 145.312ZM78.3281 142.285H82.8203C85.1641 142.415 89.526 141.764 95.9062 140.332C102.352 138.835 109.383 135.482 117 130.273C124.617 125 131.388 116.732 137.312 105.469C140.893 97.0052 142.684 87.9883 142.684 78.418V69.043C142.684 59.3424 140.861 50.2604 137.215 41.7969C133.634 33.2682 128.654 25.7812 122.273 19.3359C115.958 12.8255 108.602 7.68229 100.203 3.90625H100.008H30.9648V142.285H78.3281Z" fill="#ffffff"/>
<path d="M363.875 139.551C370.906 158.822 371.395 177.962 365.34 196.973C359.35 215.918 347.924 231.217 331.062 242.871C315.112 253.092 297.924 257.812 279.5 257.031C261.141 256.315 244.409 250.195 229.305 238.672C214.461 226.628 204.565 211.621 199.617 193.652C194.734 175.684 195.581 157.715 202.156 139.746C208.406 123.926 218.237 111.068 231.648 101.172C245.06 91.2109 260.294 85.5794 277.352 84.2773C296.492 83.3008 313.908 87.8255 329.598 97.8516C345.288 107.878 356.714 121.777 363.875 139.551ZM312.801 247.852C322.371 243.815 329.109 237.305 333.016 228.32C336.987 219.336 339.005 209.57 339.07 199.023C339.135 188.477 338.126 178.841 336.043 170.117C332.723 155.664 326.961 141.829 318.758 128.613C310.62 115.397 300.008 105.013 286.922 97.4609C280.672 93.9453 274.194 91.9271 267.488 91.4062C260.783 90.8854 254.24 92.3828 247.859 95.8984C242.846 98.9583 238.81 103.06 235.75 108.203C232.69 113.281 230.509 118.62 229.207 124.219C225.757 138.737 225.659 153.451 228.914 168.359C232.169 183.203 237.605 196.908 245.223 209.473C249.65 216.96 255.346 224.284 262.312 231.445C269.279 238.607 277.091 243.978 285.75 247.559C294.409 251.074 303.426 251.172 312.801 247.852Z" fill="#ffffff"/>
<path d="M644.734 223.633C644.93 227.344 646.134 230.566 648.348 233.301C650.561 235.97 653.816 236.816 658.113 235.84C657.788 236.426 657.104 237.63 656.062 239.453C655.086 241.276 653.979 243.327 652.742 245.605C651.44 247.949 650.268 250.098 649.227 252.051C648.185 253.939 647.501 255.176 647.176 255.762C640.6 256.152 634.546 254.688 629.012 251.367C623.478 247.982 619.409 243.229 616.805 237.109C615.503 233.659 614.754 230.111 614.559 226.465C614.363 222.754 614.331 219.043 614.461 215.332C614.591 213.314 614.656 211.328 614.656 209.375C614.656 195.443 614.656 181.543 614.656 167.676C612.117 181.738 607.853 195.345 601.863 208.496C595.939 221.647 587.345 232.812 576.082 241.992C570.223 246.68 563.387 250.553 555.574 253.613C547.762 256.608 539.819 258.008 531.746 257.812C523.673 257.682 516.349 255.208 509.773 250.391C504.5 246.224 500.952 241.113 499.129 235.059C497.306 228.939 496.915 222.656 497.957 216.211C499.064 209.701 501.342 203.776 504.793 198.438C511.173 189.128 519.214 181.803 528.914 176.465C538.68 171.126 548.738 166.536 559.09 162.695C560.132 162.305 561.141 161.882 562.117 161.426C569.018 158.757 575.887 155.697 582.723 152.246C589.559 148.73 595.743 144.499 601.277 139.551C606.876 134.538 611.206 128.451 614.266 121.289C613.875 116.732 612.833 112.272 611.141 107.91C609.513 103.483 607.137 99.6094 604.012 96.2891C600.757 93.0339 597.176 90.8529 593.27 89.7461C589.428 88.6393 585.327 88.0534 580.965 87.9883C570.027 87.5977 559.448 89.3555 549.227 93.2617C539.005 97.168 529.533 102.572 520.809 109.473C512.15 116.374 504.695 124.089 498.445 132.617C492.391 140.951 486.759 149.674 481.551 158.789C476.408 167.839 471.46 176.953 466.707 186.133C459.22 200.391 452.254 214.876 445.809 229.59C444.181 233.301 442.521 237.012 440.828 240.723C432.755 259.212 424.292 277.572 415.438 295.801C410.815 305.046 405.802 314.062 400.398 322.852C400.008 323.503 399.617 324.154 399.227 324.805C396.557 329.362 393.693 333.854 390.633 338.281C387.573 342.708 384.057 346.712 380.086 350.293C375.984 353.939 371.297 356.576 366.023 358.203C360.815 359.896 355.509 359.993 350.105 358.496C344.637 356.673 340.34 353.483 337.215 348.926C334.09 344.368 332.104 339.355 331.258 333.887C329.826 323.014 331.746 312.858 337.02 303.418C342.228 294.043 349.259 286.328 358.113 280.273C368.4 273.503 379.533 268.75 391.512 266.016C403.491 263.281 415.535 261.361 427.645 260.254C427.645 260.124 427.677 260.026 427.742 259.961C428.719 257.617 429.663 255.273 430.574 252.93C429.337 250.326 425.105 241.309 417.879 225.879C410.717 210.384 402.417 192.513 392.977 172.266C383.536 152.018 374.91 133.529 367.098 116.797C359.285 100 354.174 89.0299 351.766 83.8867H384.969L446.883 216.602C446.948 216.471 447.111 216.471 447.371 216.602C453.23 203.971 459.415 191.504 465.926 179.199C472.827 165.723 480.444 152.507 488.777 139.551C497.111 126.595 507.267 115.332 519.246 105.762C528.296 98.7956 538.289 93.3268 549.227 89.3555C560.229 85.319 571.525 83.5938 583.113 84.1797C592.098 84.7005 600.887 86.5234 609.48 89.6484C618.074 92.7083 625.561 97.526 631.941 104.102C636.629 109.245 639.917 114.941 641.805 121.191C643.693 127.441 644.767 133.984 645.027 140.82C645.288 147.656 645.288 154.46 645.027 161.23C644.832 165.267 644.734 169.206 644.734 173.047C644.734 189.909 644.734 206.771 644.734 223.633ZM400.398 315.234C409.969 298.828 418.465 281.868 425.887 264.355C419.051 265.072 412.215 266.048 405.379 267.285C398.543 268.587 391.967 270.671 385.652 273.535C378.556 276.986 372.241 281.934 366.707 288.379C361.173 294.889 357.234 302.148 354.891 310.156C352.612 318.164 352.807 326.139 355.477 334.082C356.323 336.686 357.658 339.355 359.48 342.09C361.303 344.824 363.615 346.615 366.414 347.461C369.018 347.982 371.59 347.689 374.129 346.582C376.668 345.475 378.947 344.108 380.965 342.48C384.611 339.421 387.736 335.938 390.34 332.031C392.944 328.125 395.385 324.089 397.664 319.922C398.576 318.359 399.487 316.797 400.398 315.234ZM601.57 199.609C605.997 188.477 609.285 176.953 611.434 165.039C613.582 153.125 614.656 141.211 614.656 129.297C609.513 137.435 603.003 144.141 595.125 149.414C587.247 154.622 578.914 158.952 570.125 162.402C558.602 169.238 548.999 178.125 541.316 189.062C538.126 193.685 535.717 198.665 534.09 204.004C532.527 209.342 532.007 214.811 532.527 220.41C532.983 225.814 534.513 230.924 537.117 235.742C539.786 240.56 543.921 243.587 549.52 244.824C555.379 245.671 561.173 244.759 566.902 242.09C572.697 239.355 577.579 235.905 581.551 231.738C590.275 222.298 596.948 211.589 601.57 199.609Z" fill="#ffffff"/>
<path d="M667 0.292969H697.176V256.445H667V0.292969Z" fill="#ffffff"/>
<path d="M482.746 298.017H490.266V362.055H482.746V354.901C480.028 357.831 476.797 359.866 473.054 361.005C469.31 362.128 465.502 362.226 461.628 361.298C458.34 360.451 455.419 358.93 452.863 356.732C450.324 354.519 448.395 351.85 447.077 348.725C445.824 345.616 445.303 342.401 445.515 339.081C445.742 335.761 446.695 332.644 448.371 329.73C450.113 326.801 452.391 324.424 455.207 322.602C458.023 320.762 461.123 319.639 464.509 319.232C467.959 318.891 471.271 319.322 474.445 320.526C477.635 321.731 480.402 323.603 482.746 326.142V298.017ZM468.659 360.883C471.524 360.622 474.152 359.841 476.545 358.539C478.954 357.221 481.021 355.504 482.746 353.388V327.655C480.695 325.181 478.229 323.285 475.349 321.967C472.468 320.632 469.416 320.014 466.193 320.111C462.857 321.853 460.155 324.286 458.088 327.411C455.614 331.317 454.385 335.517 454.401 340.009C454.418 344.501 455.573 348.651 457.868 352.46C460.163 356.269 463.475 359.092 467.805 360.932C468.098 360.932 468.382 360.915 468.659 360.883Z" fill="#ffffff"/>
<path d="M536.14 347.138C536.172 347.138 536.237 347.138 536.335 347.138C536.449 347.138 536.571 347.138 536.701 347.138C536.831 347.138 536.937 347.138 537.019 347.138C537.116 347.138 537.173 347.138 537.189 347.138C536.294 349.742 534.951 352.094 533.161 354.193C531.387 356.277 529.312 358.002 526.935 359.369C524.087 360.98 521.027 362.006 517.756 362.445C514.484 362.885 511.27 362.689 508.112 361.859C504.971 361.013 502.18 359.451 499.738 357.172C497.199 354.73 495.352 351.882 494.196 348.627C493.041 345.372 492.593 342.019 492.853 338.568C493.13 335.118 494.156 331.879 495.93 328.852C495.93 328.852 495.97 328.786 496.052 328.656C496.149 328.51 496.255 328.347 496.369 328.168C496.483 327.973 496.597 327.785 496.711 327.606C496.825 327.427 496.914 327.297 496.979 327.216C497.875 325.946 498.892 324.791 500.031 323.749C502.375 321.666 505.117 320.217 508.259 319.403C511.4 318.573 514.501 318.508 517.56 319.208C521.418 320.217 524.673 322.162 527.326 325.043C529.979 327.908 531.778 331.26 532.722 335.102C530.296 335.102 527.871 335.102 525.446 335.102C516.673 335.102 507.893 335.102 499.103 335.102C499.38 339.545 500.731 343.646 503.156 347.406C505.581 351.15 508.812 353.99 512.849 355.927C515.453 357.099 518.114 357.676 520.832 357.66C523.55 357.644 526.114 357.034 528.522 355.829C530.931 354.608 532.974 352.802 534.65 350.409C535.236 349.368 535.733 348.277 536.14 347.138ZM499.079 334.125H525.178C524.559 331.895 523.631 329.69 522.394 327.509C521.174 325.312 519.619 323.497 517.731 322.064C515.86 320.632 513.63 319.932 511.042 319.965C509.366 320.03 507.665 320.421 505.939 321.137C504.23 321.837 502.831 322.829 501.74 324.115C500.666 325.499 499.942 327.086 499.567 328.876C499.193 330.666 499.03 332.416 499.079 334.125Z" fill="#ffffff"/>
<path d="M569.025 319.11H570.075C569.88 319.566 568.83 321.918 566.926 326.166C565.038 330.414 562.865 335.289 560.407 340.79C557.949 346.291 555.785 351.133 553.913 355.316C552.041 359.499 551.032 361.745 550.886 362.055H550.422L530.402 319.11H538.727C538.727 319.11 539.248 320.242 540.29 322.504C541.348 324.75 542.642 327.517 544.172 330.805C545.702 334.076 547.224 337.348 548.737 340.619C550.267 343.891 551.553 346.658 552.595 348.92C553.653 351.166 554.182 352.289 554.182 352.289C554.475 351.671 555.362 349.701 556.843 346.381C558.324 343.061 559.992 339.325 561.848 335.175C563.703 331.008 565.331 327.354 566.73 324.213C568.146 321.072 568.911 319.371 569.025 319.11Z" fill="#ffffff"/>
<path d="M610.261 347.138C610.293 347.138 610.358 347.138 610.456 347.138C610.57 347.138 610.692 347.138 610.822 347.138C610.952 347.138 611.058 347.138 611.14 347.138C611.237 347.138 611.294 347.138 611.31 347.138C610.415 349.742 609.073 352.094 607.282 354.193C605.508 356.277 603.433 358.002 601.057 359.369C598.208 360.98 595.148 362.006 591.877 362.445C588.605 362.885 585.391 362.689 582.233 361.859C579.092 361.013 576.301 359.451 573.859 357.172C571.32 354.73 569.473 351.882 568.317 348.627C567.162 345.372 566.714 342.019 566.975 338.568C567.251 335.118 568.277 331.879 570.051 328.852C570.051 328.852 570.091 328.786 570.173 328.656C570.27 328.51 570.376 328.347 570.49 328.168C570.604 327.973 570.718 327.785 570.832 327.606C570.946 327.427 571.035 327.297 571.101 327.216C571.996 325.946 573.013 324.791 574.152 323.749C576.496 321.666 579.239 320.217 582.38 319.403C585.521 318.573 588.622 318.508 591.682 319.208C595.539 320.217 598.794 322.162 601.447 325.043C604.1 327.908 605.899 331.26 606.843 335.102C604.418 335.102 601.992 335.102 599.567 335.102C590.795 335.102 582.014 335.102 573.225 335.102C573.501 339.545 574.852 343.646 577.277 347.406C579.702 351.15 582.933 353.99 586.97 355.927C589.574 357.099 592.235 357.676 594.953 357.66C597.671 357.644 600.235 357.034 602.643 355.829C605.052 354.608 607.095 352.802 608.771 350.409C609.357 349.368 609.854 348.277 610.261 347.138ZM573.2 334.125H599.299C598.68 331.895 597.753 329.69 596.516 327.509C595.295 325.312 593.74 323.497 591.852 322.064C589.981 320.632 587.751 319.932 585.163 319.965C583.487 320.03 581.786 320.421 580.06 321.137C578.352 321.837 576.952 322.829 575.861 324.115C574.787 325.499 574.063 327.086 573.688 328.876C573.314 330.666 573.151 332.416 573.2 334.125Z" fill="#ffffff"/>
<path d="M613.508 298.041H621.052V362.079H613.508V298.041Z" fill="#ffffff"/>
<path d="M665.217 332.855C666.975 337.673 667.097 342.458 665.583 347.211C664.086 351.947 661.229 355.772 657.014 358.686C653.026 361.241 648.729 362.421 644.123 362.226C639.533 362.047 635.35 360.517 631.574 357.636C627.863 354.625 625.389 350.873 624.152 346.381C622.932 341.889 623.143 337.396 624.787 332.904C626.35 328.949 628.807 325.735 632.16 323.261C635.513 320.771 639.322 319.363 643.586 319.037C648.371 318.793 652.725 319.924 656.647 322.431C660.57 324.937 663.426 328.412 665.217 332.855ZM652.448 359.931C654.841 358.922 656.525 357.294 657.502 355.048C658.495 352.802 658.999 350.36 659.016 347.724C659.032 345.087 658.78 342.678 658.259 340.497C657.429 336.884 655.988 333.425 653.937 330.121C651.903 326.817 649.25 324.221 645.978 322.333C644.416 321.454 642.796 320.95 641.12 320.819C639.444 320.689 637.808 321.063 636.213 321.942C634.96 322.707 633.95 323.733 633.185 325.019C632.421 326.288 631.875 327.623 631.55 329.022C630.687 332.652 630.663 336.33 631.477 340.058C632.29 343.769 633.649 347.195 635.554 350.336C636.66 352.208 638.085 354.039 639.826 355.829C641.568 357.619 643.521 358.962 645.685 359.857C647.85 360.736 650.104 360.761 652.448 359.931Z" fill="#ffffff"/>
<path d="M707.6 325.556C711.245 329.267 713.312 333.718 713.801 338.91C714.11 343.5 713.125 347.724 710.847 351.581C708.584 355.422 705.37 358.311 701.203 360.248C696.906 362.104 692.528 362.559 688.068 361.615C683.609 360.671 679.784 358.49 676.594 355.072V383.197H669.074V319.184H676.594V326.312C679.377 323.334 682.624 321.316 686.335 320.258C690.062 319.184 693.806 319.086 697.565 319.965C701.341 320.844 704.686 322.707 707.6 325.556ZM692.463 361.127C692.691 361.127 692.919 361.127 693.146 361.127C696.483 359.369 699.185 356.928 701.252 353.803C703.726 349.896 704.955 345.697 704.938 341.205C704.922 336.713 703.767 332.571 701.472 328.778C699.177 324.97 695.865 322.138 691.535 320.282C685.48 320.673 680.5 323.188 676.594 327.826V353.559C678.563 355.951 680.931 357.815 683.698 359.149C686.481 360.468 689.403 361.127 692.463 361.127Z" fill="#ffffff"/>
<path d="M775.788 319.989C777.155 320.624 778.213 321.511 778.962 322.65C779.711 323.773 780.223 325.027 780.5 326.41C780.777 327.794 780.915 329.169 780.915 330.536C780.915 341.099 780.915 351.662 780.915 362.226H773.395C773.395 360.614 773.395 359.011 773.395 357.416C773.395 355.821 773.395 354.218 773.395 352.606C773.395 350.084 773.404 347.553 773.42 345.014C773.485 339.822 773.469 334.63 773.371 329.438C773.371 328.249 773.208 326.939 772.883 325.507C772.574 324.075 772.004 322.87 771.174 321.894C770.344 320.901 769.164 320.469 767.634 320.6C766.315 320.811 765.038 321.291 763.801 322.04C762.564 322.772 761.441 323.546 760.432 324.359C756.997 327.029 754.344 330.333 752.473 334.271C752.473 335.46 752.473 336.64 752.473 337.812C752.473 345.933 752.473 354.047 752.473 362.152H744.929C744.929 359.727 744.929 357.31 744.929 354.901C744.929 347.203 744.929 339.496 744.929 331.781C744.929 331.553 744.929 331.317 744.929 331.073C744.977 329.641 744.921 328.209 744.758 326.776C744.611 325.328 744.172 323.977 743.439 322.724C742.707 321.535 741.665 320.811 740.314 320.551C740.005 320.502 739.72 320.486 739.46 320.502C739.199 320.518 738.988 320.551 738.825 320.6C738.679 320.632 738.605 320.648 738.605 320.648C735.383 321.723 732.502 323.489 729.963 325.946C727.424 328.404 725.446 331.155 724.03 334.198V362.006H716.486V319.086H724.03V332.05C725.316 329.706 727.009 327.493 729.108 325.409C731.208 323.326 733.56 321.682 736.164 320.478C738.768 319.257 741.478 318.793 744.294 319.086C748.054 319.607 750.56 321.641 751.813 325.189C752.139 326.231 752.334 327.281 752.399 328.339C752.464 329.381 752.489 330.438 752.473 331.513C752.473 331.724 752.473 331.928 752.473 332.123C753.514 330.235 754.881 328.371 756.574 326.532C758.267 324.693 760.171 323.106 762.287 321.771C764.403 320.421 766.608 319.542 768.903 319.135C771.214 318.728 773.509 319.013 775.788 319.989Z" fill="#ffffff"/>
<path d="M826.813 347.138C826.846 347.138 826.911 347.138 827.009 347.138C827.123 347.138 827.245 347.138 827.375 347.138C827.505 347.138 827.611 347.138 827.692 347.138C827.79 347.138 827.847 347.138 827.863 347.138C826.968 349.742 825.625 352.094 823.835 354.193C822.061 356.277 819.986 358.002 817.609 359.369C814.761 360.98 811.701 362.006 808.43 362.445C805.158 362.885 801.944 362.689 798.786 361.859C795.645 361.013 792.853 359.451 790.412 357.172C787.873 354.73 786.026 351.882 784.87 348.627C783.714 345.372 783.267 342.019 783.527 338.568C783.804 335.118 784.829 331.879 786.603 328.852C786.603 328.852 786.644 328.786 786.726 328.656C786.823 328.51 786.929 328.347 787.043 328.168C787.157 327.973 787.271 327.785 787.385 327.606C787.499 327.427 787.588 327.297 787.653 327.216C788.548 325.946 789.566 324.791 790.705 323.749C793.049 321.666 795.791 320.217 798.933 319.403C802.074 318.573 805.174 318.508 808.234 319.208C812.092 320.217 815.347 322.162 818 325.043C820.653 327.908 822.451 331.26 823.395 335.102C820.97 335.102 818.545 335.102 816.12 335.102C807.347 335.102 798.566 335.102 789.777 335.102C790.054 339.545 791.405 343.646 793.83 347.406C796.255 351.15 799.486 353.99 803.522 355.927C806.127 357.099 808.788 357.676 811.506 357.66C814.224 357.644 816.787 357.034 819.196 355.829C821.605 354.608 823.648 352.802 825.324 350.409C825.91 349.368 826.407 348.277 826.813 347.138ZM789.753 334.125H815.852C815.233 331.895 814.305 329.69 813.068 327.509C811.848 325.312 810.293 323.497 808.405 322.064C806.533 320.632 804.304 319.932 801.716 319.965C800.039 320.03 798.338 320.421 796.613 321.137C794.904 321.837 793.504 322.829 792.414 324.115C791.34 325.499 790.615 327.086 790.241 328.876C789.867 330.666 789.704 332.416 789.753 334.125Z" fill="#ffffff"/>
<path d="M860.92 320.087C864.11 321.617 865.811 324.701 866.022 329.34V362.323H858.503V330.17C858.503 327.94 858.291 326.182 857.868 324.896C857.461 323.611 856.949 322.659 856.33 322.04C855.728 321.422 855.117 321.031 854.499 320.868C853.897 320.689 853.376 320.624 852.936 320.673C852.497 320.722 852.245 320.762 852.18 320.795C850.454 321.348 848.688 322.252 846.882 323.505C842.731 326.402 839.631 330.023 837.58 334.369V362.177H830.06V319.257H837.58V332.221C839.696 328.445 842.609 325.271 846.32 322.699C848.664 321.088 850.959 320.03 853.205 319.525C855.044 319.102 856.81 319.045 858.503 319.354C859.349 319.517 860.155 319.761 860.92 320.087Z" fill="#ffffff"/>
<path d="M894.074 319.623V320.6H879.548C879.548 321.381 879.548 323.448 879.548 326.801C879.548 330.154 879.548 333.799 879.548 337.738C879.548 341.677 879.548 344.916 879.548 347.455C879.548 348.155 879.548 348.863 879.548 349.579C879.548 350.979 879.548 352.387 879.548 353.803C879.532 355.382 879.857 356.911 880.524 358.393C881.192 359.874 882.347 360.842 883.991 361.298C883.991 361.298 884.097 361.306 884.309 361.322C884.52 361.339 884.756 361.355 885.017 361.371C885.293 361.387 885.537 361.396 885.749 361.396C885.749 361.396 885.912 361.355 886.237 361.273C886.563 361.176 886.986 360.964 887.507 360.639C888.044 360.297 888.622 359.776 889.24 359.076L891.34 361.273C889.045 362.185 886.717 362.51 884.357 362.25C882.014 362.006 879.865 361.233 877.912 359.931C875.959 358.629 874.437 356.854 873.347 354.608C872.744 353.29 872.37 351.947 872.224 350.58C872.093 349.213 872.028 347.821 872.028 346.405C872.028 345.331 872.028 343.101 872.028 339.716C872.028 336.33 872.028 332.823 872.028 329.193C872.028 325.564 872.028 322.699 872.028 320.6H866.584V319.623H872.028V309.027H879.523L879.548 319.623H894.074Z" fill="#ffffff"/>
</g>
<g>
<circle cx="832.5" cy="172.5" r="82" stroke="#ffffff" stroke-width="3"/>
<path d="M846 172.5L826.5 183.325L826.5 161.675L846 172.5Z" fill="#ffffff"/>
</g>
<linearGradient id="gradient" x1="0" x2="0" y1="0" y2="1">
    <stop offset="0%" stop-color="#fed69a"/>
    <stop offset="100%" stop-color="#ad9268"/>
</linearGradient>
<filter id="dropShadow">
    <feGaussianBlur in="SourceAlpha" stdDeviation="2" />
    <feOffset in="feOffset" dx="0" dy="5" />
    <feMerge>
        <feMergeNode />
        <feMergeNode in="SourceGraphic" />
    </feMerge>
</filter>

<style type="text/css">
    <![CDATA[
        .stop1 { stop-color: #fed69a; }
        .stop2 { stop-color: #ad9268; }
    ]]>

    <!-- .letter path {
        transform: translate(-1px,-1px);
        filter: url(#dropShadow);
        transition: transform .1s;
        fill: url(#gradient)
    } -->
    #dropShadow, #SourceGraphic, #feOffset, #SourceAlpha {
        box-shadow: 1px 1px 1px #0ff;
        fill-opacity: .3;
    }
</style>
</svg>
