<svg width="304" height="131" viewBox="0 0 304 131" fill="none" xmlns="http://www.w3.org/2000/svg">
<mask id="mask0_56_1832" style="mask-type:alpha" maskUnits="userSpaceOnUse" x="0" y="0" width="304" height="131">
<path d="M39.2162 49.4523L63.4771 87.2062H51.3134L27.2187 49.7514H10.2693V87.2062H0V0.0664681L35.4275 0C39.9917 0 44.157 1.11888 47.9235 3.35664C51.6901 5.5944 54.6922 8.59655 56.93 12.3631C59.1677 16.1296 60.2866 20.2949 60.2866 24.8591C60.2866 29.0023 59.356 32.8242 57.4949 36.3248C55.656 39.8255 53.1524 42.7279 49.984 45.0322C46.8157 47.3364 43.2264 48.8098 39.2162 49.4523ZM26.3878 48.422H27.9166C28.7142 48.4664 30.1987 48.2448 32.37 47.7574C34.5634 47.2478 36.9563 46.1067 39.5485 44.3342C42.1408 42.5396 44.445 39.7258 46.4612 35.8928C47.6798 33.0125 48.2891 29.9439 48.2891 26.687V23.4965C48.2891 20.1952 47.6687 17.1045 46.428 14.2242C45.2094 11.3217 43.5145 8.77379 41.3432 6.58035C39.194 4.36474 36.6904 2.61441 33.8323 1.32936H33.7658H10.2693V48.422H26.3878Z" fill="#1A3C39"/>
<path d="M123.564 47.4915C125.957 54.0497 126.123 60.5636 124.063 67.0331C122.024 73.4805 118.136 78.6872 112.398 82.6531C106.969 86.1316 101.12 87.7379 94.85 87.4721C88.602 87.2284 82.9079 85.1457 77.7677 81.2241C72.7161 77.1252 69.3484 72.0182 67.6646 65.9032C66.0029 59.7881 66.2909 53.673 68.5286 47.558C70.6556 42.174 74.0012 37.7982 78.5653 34.4305C83.1295 31.0406 88.314 29.1241 94.1189 28.681C100.633 28.3487 106.56 29.8885 111.899 33.3005C117.239 36.7126 121.127 41.4429 123.564 47.4915ZM106.183 84.3481C109.44 82.9744 111.733 80.7588 113.062 77.7013C114.414 74.6437 115.101 71.3203 115.123 67.731C115.145 64.1418 114.802 60.8627 114.093 57.8937C112.963 52.9751 111.002 48.2669 108.21 43.7693C105.441 39.2716 101.829 35.7377 97.3758 33.1676C95.2488 31.9712 93.0443 31.2843 90.7622 31.1071C88.4802 30.9298 86.2535 31.4394 84.0822 32.6359C82.3762 33.6772 81.0025 35.073 79.9612 36.8233C78.9198 38.5515 78.1776 40.3683 77.7345 42.2737C76.5602 47.2145 76.527 52.2218 77.6348 57.2955C78.7426 62.3471 80.5926 67.011 83.1849 71.2871C84.6915 73.835 86.6301 76.3276 89.0008 78.7647C91.3715 81.2019 94.0303 83.0298 96.977 84.2484C99.9238 85.4448 102.992 85.478 106.183 84.3481Z" fill="#1A3C39"/>
<path d="M219.145 76.106C219.212 77.3689 219.622 78.4656 220.375 79.3962C221.128 80.3046 222.236 80.5926 223.699 80.2603C223.588 80.4597 223.355 80.8696 223.001 81.4899C222.668 82.1103 222.292 82.8082 221.871 83.5837C221.428 84.3813 221.029 85.1124 220.674 85.7771C220.32 86.4197 220.087 86.8406 219.976 87.04C217.739 87.173 215.678 86.6745 213.795 85.5445C211.911 84.3924 210.527 82.775 209.641 80.6923C209.197 79.5181 208.943 78.3105 208.876 77.0698C208.81 75.8069 208.799 74.544 208.843 73.2811C208.887 72.5943 208.909 71.9185 208.909 71.2538C208.909 66.5125 208.909 61.7821 208.909 57.0629C208.045 61.8486 206.594 66.4792 204.556 70.9547C202.539 75.4303 199.615 79.23 195.782 82.354C193.788 83.9493 191.461 85.2675 188.803 86.3089C186.144 87.3281 183.441 87.8044 180.694 87.7379C177.946 87.6936 175.454 86.8517 173.216 85.2122C171.421 83.7942 170.214 82.0549 169.593 79.9944C168.973 77.9117 168.84 75.7737 169.195 73.5802C169.571 71.3646 170.347 69.3484 171.521 67.5316C173.692 64.3633 176.429 61.8708 179.73 60.054C183.053 58.2372 186.476 56.6752 189.999 55.368C190.354 55.235 190.697 55.091 191.029 54.9359C193.378 54.0275 195.715 52.9862 198.042 51.8119C200.368 50.6155 202.473 49.1753 204.356 47.4915C206.262 45.7855 207.735 43.7139 208.776 41.2767C208.643 39.7258 208.289 38.2081 207.713 36.7236C207.159 35.217 206.35 33.8988 205.287 32.7688C204.179 31.661 202.96 30.9188 201.631 30.5421C200.324 30.1655 198.928 29.9661 197.444 29.9439C193.721 29.811 190.121 30.4092 186.643 31.7385C183.164 33.0679 179.94 34.9068 176.971 37.2554C174.025 39.6039 171.488 42.2294 169.361 45.1319C167.3 47.9678 165.384 50.9367 163.611 54.0386C161.861 57.1183 160.177 60.2201 158.56 63.3441C156.012 68.1963 153.641 73.126 151.448 78.1333C150.894 79.3962 150.329 80.6591 149.753 81.922C147.005 88.2143 144.125 94.4623 141.112 100.666C139.539 103.812 137.833 106.881 135.994 109.872C135.861 110.093 135.728 110.315 135.595 110.537C134.687 112.087 133.712 113.616 132.67 115.123C131.629 116.629 130.433 117.992 129.081 119.211C127.685 120.451 126.09 121.349 124.295 121.903C122.523 122.479 120.717 122.512 118.878 122.002C117.017 121.382 115.555 120.296 114.491 118.745C113.428 117.194 112.752 115.488 112.464 113.627C111.977 109.927 112.63 106.471 114.425 103.258C116.197 100.068 118.59 97.4423 121.603 95.3818C125.104 93.0775 128.893 91.4602 132.97 90.5296C137.046 89.5991 141.145 88.9454 145.266 88.5688C145.266 88.5245 145.277 88.4912 145.299 88.4691C145.632 87.6715 145.953 86.8739 146.263 86.0762C145.842 85.19 144.402 82.1214 141.943 76.8704C139.506 71.5973 136.681 65.5154 133.468 58.6249C130.255 51.7344 127.32 45.4421 124.661 39.7479C122.002 34.0317 120.263 30.2984 119.443 28.5481H130.743L151.813 73.7132C151.835 73.6689 151.891 73.6689 151.979 73.7132C153.973 69.4149 156.078 65.172 158.294 60.9845C160.642 56.3982 163.235 51.9005 166.071 47.4915C168.907 43.0824 172.363 39.2494 176.44 35.9925C179.519 33.6218 182.92 31.7607 186.643 30.4092C190.387 29.0355 194.231 28.4484 198.175 28.6478C201.232 28.825 204.223 29.4454 207.148 30.5089C210.073 31.5502 212.62 33.1898 214.792 35.4275C216.387 37.1778 217.506 39.1165 218.148 41.2435C218.791 43.3705 219.157 45.5971 219.245 47.9235C219.334 50.2499 219.334 52.5652 219.245 54.8694C219.179 56.2431 219.145 57.5836 219.145 58.8908C219.145 64.6292 219.145 70.3676 219.145 76.106ZM135.994 107.28C139.251 101.696 142.142 95.9246 144.668 89.9646C142.342 90.2083 140.015 90.5407 137.689 90.9616C135.362 91.4048 133.125 92.1138 130.975 93.0886C128.56 94.2629 126.411 95.9468 124.528 98.1402C122.645 100.356 121.304 102.826 120.507 105.551C119.731 108.277 119.798 110.991 120.706 113.694C120.994 114.58 121.448 115.488 122.069 116.419C122.689 117.349 123.476 117.959 124.428 118.247C125.315 118.424 126.19 118.324 127.054 117.948C127.918 117.571 128.693 117.106 129.38 116.552C130.621 115.511 131.684 114.325 132.571 112.996C133.457 111.666 134.288 110.293 135.063 108.875C135.373 108.343 135.684 107.811 135.994 107.28ZM204.456 67.9304C205.963 64.1418 207.081 60.2201 207.813 56.1656C208.544 52.111 208.909 48.0565 208.909 44.0019C207.159 46.7714 204.943 49.0535 202.263 50.8481C199.582 52.6206 196.746 54.094 193.755 55.2683C189.833 57.5946 186.565 60.6189 183.951 64.3412C182.865 65.9142 182.045 67.6092 181.491 69.426C180.96 71.2428 180.782 73.1039 180.96 75.0093C181.115 76.8482 181.635 78.5875 182.521 80.227C183.43 81.8666 184.837 82.8968 186.742 83.3178C188.736 83.6058 190.708 83.2957 192.658 82.3873C194.63 81.4567 196.291 80.2824 197.643 78.8644C200.612 75.6518 202.883 72.0071 204.456 67.9304Z" fill="#1A3C39"/>
<path d="M226.723 0.0997022H236.992V87.2727H226.723V0.0997022Z" fill="#1A3C39"/>
<path d="M164.018 101.42H166.577V123.213H164.018V120.779C163.093 121.776 161.994 122.468 160.72 122.856C159.446 123.238 158.15 123.272 156.831 122.956C155.712 122.668 154.718 122.15 153.848 121.402C152.984 120.649 152.328 119.74 151.879 118.677C151.453 117.619 151.276 116.525 151.348 115.395C151.425 114.265 151.749 113.204 152.32 112.213C152.912 111.216 153.688 110.407 154.646 109.787C155.604 109.161 156.66 108.779 157.812 108.64C158.986 108.524 160.113 108.671 161.193 109.081C162.279 109.491 163.221 110.127 164.018 110.992V101.42ZM159.224 122.815C160.199 122.726 161.094 122.46 161.908 122.017C162.728 121.568 163.431 120.984 164.018 120.264V111.507C163.32 110.665 162.481 110.019 161.501 109.571C160.52 109.117 159.482 108.906 158.385 108.939C157.249 109.532 156.33 110.36 155.627 111.424C154.785 112.753 154.366 114.182 154.372 115.711C154.377 117.24 154.771 118.652 155.552 119.948C156.333 121.244 157.46 122.205 158.933 122.831C159.033 122.831 159.13 122.826 159.224 122.815Z" fill="#1A3C39"/>
<path d="M182.189 118.137C182.2 118.137 182.222 118.137 182.255 118.137C182.294 118.137 182.336 118.137 182.38 118.137C182.424 118.137 182.46 118.137 182.488 118.137C182.521 118.137 182.541 118.137 182.546 118.137C182.241 119.023 181.785 119.824 181.175 120.538C180.571 121.247 179.865 121.834 179.057 122.299C178.087 122.848 177.046 123.197 175.933 123.346C174.819 123.496 173.725 123.429 172.651 123.147C171.582 122.859 170.632 122.327 169.801 121.552C168.937 120.721 168.308 119.752 167.915 118.644C167.522 117.536 167.369 116.395 167.458 115.221C167.552 114.046 167.901 112.944 168.505 111.914C168.505 111.914 168.519 111.892 168.546 111.847C168.579 111.798 168.616 111.742 168.654 111.681C168.693 111.615 168.732 111.551 168.771 111.49C168.809 111.429 168.84 111.385 168.862 111.357C169.167 110.925 169.513 110.532 169.901 110.177C170.698 109.468 171.631 108.975 172.701 108.698C173.77 108.416 174.825 108.394 175.866 108.632C177.179 108.975 178.287 109.637 179.189 110.618C180.092 111.593 180.704 112.734 181.026 114.041C180.2 114.041 179.375 114.041 178.55 114.041C175.564 114.041 172.576 114.041 169.585 114.041C169.679 115.553 170.139 116.949 170.964 118.228C171.789 119.502 172.889 120.469 174.263 121.128C175.149 121.527 176.054 121.723 176.979 121.718C177.904 121.712 178.777 121.505 179.597 121.095C180.416 120.679 181.112 120.064 181.682 119.25C181.881 118.896 182.05 118.525 182.189 118.137ZM169.577 113.708H178.458C178.248 112.95 177.932 112.199 177.511 111.457C177.096 110.709 176.567 110.091 175.924 109.604C175.287 109.117 174.528 108.878 173.648 108.89C173.077 108.912 172.498 109.045 171.911 109.288C171.33 109.527 170.853 109.864 170.482 110.302C170.117 110.773 169.87 111.313 169.743 111.922C169.615 112.531 169.56 113.127 169.577 113.708Z" fill="#1A3C39"/>
<path d="M193.38 108.599H193.738C193.671 108.754 193.314 109.554 192.666 111C192.023 112.446 191.284 114.105 190.448 115.977C189.611 117.849 188.874 119.497 188.237 120.92C187.6 122.344 187.257 123.108 187.207 123.213H187.049L180.236 108.599H183.07C183.07 108.599 183.247 108.984 183.601 109.754C183.961 110.518 184.402 111.46 184.922 112.579C185.443 113.692 185.961 114.805 186.476 115.919C186.997 117.032 187.434 117.974 187.789 118.743C188.149 119.508 188.329 119.89 188.329 119.89C188.429 119.68 188.73 119.009 189.234 117.879C189.739 116.749 190.306 115.478 190.938 114.066C191.569 112.648 192.123 111.404 192.599 110.335C193.081 109.266 193.342 108.687 193.38 108.599Z" fill="#1A3C39"/>
<path d="M207.414 118.137C207.425 118.137 207.447 118.137 207.48 118.137C207.519 118.137 207.56 118.137 207.605 118.137C207.649 118.137 207.685 118.137 207.713 118.137C207.746 118.137 207.765 118.137 207.771 118.137C207.466 119.023 207.009 119.824 206.4 120.538C205.796 121.247 205.09 121.834 204.281 122.299C203.312 122.848 202.271 123.197 201.157 123.346C200.044 123.496 198.95 123.429 197.875 123.147C196.806 122.859 195.856 122.327 195.026 121.552C194.161 120.721 193.533 119.752 193.139 118.644C192.746 117.536 192.594 116.395 192.683 115.221C192.777 114.046 193.126 112.944 193.729 111.914C193.729 111.914 193.743 111.892 193.771 111.847C193.804 111.798 193.84 111.742 193.879 111.681C193.918 111.615 193.956 111.551 193.995 111.49C194.034 111.429 194.064 111.385 194.087 111.357C194.391 110.925 194.737 110.532 195.125 110.177C195.923 109.468 196.856 108.975 197.925 108.698C198.994 108.416 200.049 108.394 201.091 108.632C202.403 108.975 203.511 109.637 204.414 110.618C205.317 111.593 205.929 112.734 206.25 114.041C205.425 114.041 204.6 114.041 203.774 114.041C200.789 114.041 197.801 114.041 194.809 114.041C194.904 115.553 195.363 116.949 196.189 118.228C197.014 119.502 198.114 120.469 199.487 121.128C200.373 121.527 201.279 121.723 202.204 121.718C203.129 121.712 204.001 121.505 204.821 121.095C205.641 120.679 206.336 120.064 206.907 119.25C207.106 118.896 207.275 118.525 207.414 118.137ZM194.801 113.708H203.683C203.472 112.95 203.157 112.199 202.736 111.457C202.32 110.709 201.791 110.091 201.149 109.604C200.512 109.117 199.753 108.878 198.872 108.89C198.302 108.912 197.723 109.045 197.136 109.288C196.554 109.527 196.078 109.864 195.707 110.302C195.341 110.773 195.095 111.313 194.967 111.922C194.84 112.531 194.785 113.127 194.801 113.708Z" fill="#1A3C39"/>
<path d="M208.519 101.428H211.086V123.222H208.519V101.428Z" fill="#1A3C39"/>
<path d="M226.116 113.276C226.714 114.916 226.756 116.544 226.241 118.162C225.731 119.774 224.759 121.075 223.324 122.067C221.967 122.936 220.505 123.338 218.937 123.272C217.375 123.211 215.952 122.69 214.667 121.71C213.404 120.685 212.562 119.408 212.141 117.879C211.726 116.351 211.798 114.822 212.357 113.293C212.889 111.947 213.725 110.853 214.866 110.011C216.007 109.164 217.303 108.685 218.755 108.574C220.383 108.491 221.865 108.876 223.2 109.729C224.535 110.582 225.507 111.764 226.116 113.276ZM221.771 122.491C222.585 122.147 223.158 121.593 223.49 120.829C223.828 120.064 224 119.234 224.006 118.336C224.011 117.439 223.925 116.619 223.748 115.877C223.466 114.647 222.975 113.47 222.277 112.346C221.585 111.221 220.682 110.338 219.569 109.695C219.037 109.396 218.486 109.225 217.915 109.18C217.345 109.136 216.788 109.263 216.245 109.563C215.819 109.823 215.476 110.172 215.215 110.609C214.955 111.041 214.769 111.496 214.659 111.972C214.365 113.207 214.357 114.459 214.634 115.727C214.911 116.99 215.373 118.156 216.021 119.225C216.398 119.862 216.882 120.485 217.475 121.095C218.068 121.704 218.732 122.161 219.469 122.466C220.206 122.765 220.973 122.773 221.771 122.491Z" fill="#1A3C39"/>
<path d="M240.54 110.792C241.78 112.055 242.484 113.57 242.65 115.337C242.755 116.899 242.42 118.336 241.645 119.649C240.875 120.956 239.781 121.939 238.363 122.599C236.9 123.23 235.41 123.385 233.893 123.064C232.375 122.743 231.073 122 229.988 120.837V130.409H227.429V108.624H229.988V111.05C230.935 110.036 232.04 109.349 233.303 108.989C234.571 108.624 235.845 108.59 237.125 108.89C238.41 109.189 239.548 109.823 240.54 110.792ZM235.388 122.898C235.466 122.898 235.543 122.898 235.621 122.898C236.756 122.299 237.676 121.469 238.379 120.405C239.221 119.076 239.639 117.647 239.634 116.118C239.628 114.589 239.235 113.179 238.454 111.889C237.673 110.593 236.546 109.629 235.073 108.998C233.012 109.13 231.317 109.986 229.988 111.565V120.322C230.658 121.136 231.464 121.77 232.406 122.225C233.353 122.673 234.347 122.898 235.388 122.898Z" fill="#1A3C39"/>
<path d="M263.745 108.898C264.211 109.114 264.571 109.416 264.825 109.803C265.08 110.186 265.255 110.612 265.349 111.083C265.443 111.554 265.49 112.022 265.49 112.487C265.49 116.082 265.49 119.677 265.49 123.272H262.931C262.931 122.723 262.931 122.178 262.931 121.635C262.931 121.092 262.931 120.546 262.931 119.998C262.931 119.139 262.934 118.278 262.939 117.414C262.961 115.647 262.956 113.88 262.923 112.113C262.923 111.709 262.867 111.263 262.757 110.776C262.651 110.288 262.457 109.878 262.175 109.546C261.892 109.208 261.491 109.061 260.97 109.106C260.522 109.178 260.087 109.341 259.666 109.596C259.245 109.845 258.863 110.108 258.519 110.385C257.35 111.293 256.448 112.418 255.811 113.758C255.811 114.163 255.811 114.564 255.811 114.963C255.811 117.727 255.811 120.488 255.811 123.247H253.243C253.243 122.421 253.243 121.599 253.243 120.779C253.243 118.159 253.243 115.536 253.243 112.911C253.243 112.833 253.243 112.753 253.243 112.67C253.26 112.182 253.241 111.695 253.185 111.208C253.135 110.715 252.986 110.255 252.736 109.828C252.487 109.424 252.133 109.178 251.673 109.089C251.568 109.072 251.471 109.067 251.382 109.072C251.294 109.078 251.222 109.089 251.166 109.106C251.116 109.117 251.091 109.122 251.091 109.122C249.995 109.488 249.014 110.089 248.15 110.925C247.286 111.762 246.613 112.698 246.131 113.733V123.197H243.564V108.59H246.131V113.002C246.569 112.205 247.145 111.451 247.859 110.742C248.574 110.033 249.374 109.474 250.261 109.064C251.147 108.649 252.069 108.491 253.027 108.59C254.307 108.768 255.16 109.46 255.586 110.668C255.697 111.022 255.764 111.379 255.786 111.739C255.808 112.094 255.816 112.454 255.811 112.819C255.811 112.891 255.811 112.961 255.811 113.027C256.165 112.385 256.63 111.75 257.206 111.125C257.783 110.499 258.431 109.959 259.151 109.504C259.871 109.045 260.621 108.746 261.402 108.607C262.189 108.469 262.97 108.565 263.745 108.898Z" fill="#1A3C39"/>
<path d="M281.11 118.137C281.121 118.137 281.143 118.137 281.177 118.137C281.215 118.137 281.257 118.137 281.301 118.137C281.345 118.137 281.381 118.137 281.409 118.137C281.442 118.137 281.462 118.137 281.467 118.137C281.163 119.023 280.706 119.824 280.096 120.538C279.493 121.247 278.786 121.834 277.978 122.299C277.008 122.848 275.967 123.197 274.854 123.346C273.74 123.496 272.646 123.429 271.572 123.147C270.503 122.859 269.553 122.327 268.722 121.552C267.858 120.721 267.229 119.752 266.836 118.644C266.443 117.536 266.29 116.395 266.379 115.221C266.473 114.046 266.822 112.944 267.426 111.914C267.426 111.914 267.44 111.892 267.467 111.847C267.501 111.798 267.537 111.742 267.575 111.681C267.614 111.615 267.653 111.551 267.692 111.49C267.731 111.429 267.761 111.385 267.783 111.357C268.088 110.925 268.434 110.532 268.822 110.177C269.619 109.468 270.553 108.975 271.622 108.698C272.691 108.416 273.746 108.394 274.787 108.632C276.1 108.975 277.208 109.637 278.111 110.618C279.014 111.593 279.626 112.734 279.947 114.041C279.122 114.041 278.296 114.041 277.471 114.041C274.485 114.041 271.497 114.041 268.506 114.041C268.6 115.553 269.06 116.949 269.885 118.228C270.711 119.502 271.81 120.469 273.184 121.128C274.07 121.527 274.976 121.723 275.901 121.718C276.826 121.712 277.698 121.505 278.518 121.095C279.338 120.679 280.033 120.064 280.603 119.25C280.803 118.896 280.972 118.525 281.11 118.137ZM268.498 113.708H277.38C277.169 112.95 276.853 112.199 276.432 111.457C276.017 110.709 275.488 110.091 274.845 109.604C274.208 109.117 273.45 108.878 272.569 108.89C271.998 108.912 271.42 109.045 270.832 109.288C270.251 109.527 269.774 109.864 269.403 110.302C269.038 110.773 268.791 111.313 268.664 111.922C268.536 112.531 268.481 113.127 268.498 113.708Z" fill="#1A3C39"/>
<path d="M292.717 108.931C293.803 109.452 294.382 110.501 294.454 112.08V123.305H291.895V112.362C291.895 111.604 291.822 111.005 291.678 110.568C291.54 110.13 291.366 109.806 291.155 109.596C290.95 109.385 290.742 109.252 290.532 109.197C290.327 109.136 290.15 109.114 290 109.13C289.851 109.147 289.765 109.161 289.743 109.172C289.155 109.36 288.554 109.668 287.94 110.094C286.527 111.08 285.472 112.313 284.774 113.792V123.255H282.215V108.649H284.774V113.06C285.494 111.775 286.486 110.695 287.749 109.82C288.546 109.272 289.327 108.912 290.092 108.74C290.717 108.596 291.318 108.577 291.895 108.682C292.183 108.737 292.457 108.82 292.717 108.931Z" fill="#1A3C39"/>
<path d="M304 108.773V109.106H299.056C299.056 109.371 299.056 110.075 299.056 111.216C299.056 112.357 299.056 113.598 299.056 114.938C299.056 116.279 299.056 117.381 299.056 118.245C299.056 118.483 299.056 118.724 299.056 118.968C299.056 119.444 299.056 119.923 299.056 120.405C299.051 120.942 299.162 121.463 299.389 121.967C299.616 122.471 300.009 122.801 300.569 122.956C300.569 122.956 300.605 122.959 300.677 122.964C300.749 122.97 300.829 122.975 300.918 122.981C301.012 122.986 301.095 122.989 301.167 122.989C301.167 122.989 301.222 122.975 301.333 122.948C301.444 122.914 301.588 122.842 301.765 122.732C301.948 122.615 302.144 122.438 302.355 122.2L303.069 122.948C302.288 123.258 301.496 123.368 300.693 123.28C299.896 123.197 299.164 122.934 298.5 122.491C297.835 122.047 297.317 121.444 296.946 120.679C296.741 120.231 296.614 119.774 296.564 119.308C296.52 118.843 296.497 118.37 296.497 117.888C296.497 117.522 296.497 116.763 296.497 115.611C296.497 114.459 296.497 113.265 296.497 112.03C296.497 110.795 296.497 109.82 296.497 109.106H294.645V108.773H296.497V105.167H299.048L299.056 108.773H304Z" fill="#1A3C39"/>
</mask>
<g mask="url(#mask0_56_1832)">
<rect x="-2.72461" y="-0.908203" width="342.405" height="126.245" fill="white"/>
</g>
</svg>
