<svg width="100%" height="100%" viewBox="0 0 640 275" fill="none" xmlns="http://www.w3.org/2000/svg">
<mask id="mask0_56_1627" style="mask-type:alpha" maskUnits="userSpaceOnUse" x="0" y="0" width="640" height="275">
<path d="M82.5719 104.271L133.654 183.875H108.043L57.3105 104.902H21.6226V183.875H0V0.140149L74.5946 0C84.2047 0 92.975 2.35917 100.906 7.07752C108.836 11.7959 115.157 18.1259 119.869 26.0677C124.581 34.0095 126.937 42.7922 126.937 52.4157C126.937 61.1517 124.977 69.2102 121.059 76.5914C117.187 83.9726 111.915 90.0924 105.244 94.9509C98.5731 99.8094 91.0157 102.916 82.5719 104.271ZM55.5611 102.099H58.78C60.4594 102.192 63.585 101.725 68.1568 100.697C72.7752 99.6226 77.8135 97.2167 83.2716 93.4794C88.7298 89.6954 93.5815 83.7624 97.8267 75.6805C100.392 69.6073 101.675 63.1371 101.675 56.2698V49.5427C101.675 42.5819 100.369 36.065 97.7567 29.9919C95.1909 23.872 91.6221 18.4997 87.0503 13.8748C82.5252 9.20312 77.2537 5.51253 71.2357 2.80298H71.0958H21.6226V102.099H55.5611Z" fill="#1A3C39"/>
<path d="M260.171 100.136C265.21 113.964 265.56 127.699 261.221 141.34C256.929 154.935 248.742 165.913 236.659 174.275C225.23 181.61 212.914 184.997 199.712 184.436C186.556 183.922 174.567 179.531 163.744 171.262C153.108 162.62 146.017 151.851 142.471 138.958C138.973 126.064 139.579 113.17 144.291 100.277C148.769 88.9245 155.814 79.6981 165.424 72.5972C175.034 65.4496 185.95 61.4086 198.172 60.4743C211.888 59.7735 224.367 63.0203 235.61 70.2146C246.853 77.409 255.04 87.3829 260.171 100.136ZM223.574 177.849C230.432 174.953 235.26 170.281 238.059 163.834C240.905 157.387 242.351 150.38 242.397 142.812C242.444 135.244 241.721 128.33 240.228 122.07C237.849 111.699 233.72 101.772 227.842 92.2881C222.011 82.8047 214.407 75.3534 205.03 69.9343C200.552 67.4117 195.91 65.9635 191.105 65.5897C186.3 65.216 181.611 66.2905 177.04 68.8132C173.448 71.0088 170.555 73.952 168.363 77.6425C166.17 81.2864 164.607 85.1172 163.674 89.1348C161.202 99.5525 161.132 110.11 163.464 120.808C165.797 131.46 169.692 141.294 175.15 150.31C178.323 155.682 182.405 160.938 187.396 166.077C192.388 171.215 197.986 175.069 204.19 177.639C210.395 180.162 216.856 180.232 223.574 177.849Z" fill="#1A3C39"/>
<path d="M461.423 160.471C461.563 163.133 462.426 165.446 464.012 167.408C465.598 169.323 467.931 169.931 471.01 169.23C470.776 169.65 470.286 170.515 469.54 171.823C468.84 173.131 468.047 174.602 467.161 176.237C466.228 177.919 465.388 179.461 464.642 180.862C463.895 182.217 463.405 183.105 463.172 183.525C458.46 183.805 454.122 182.754 450.157 180.372C446.191 177.943 443.276 174.532 441.41 170.141C440.477 167.665 439.94 165.119 439.8 162.503C439.66 159.84 439.637 157.177 439.73 154.514C439.823 153.066 439.87 151.641 439.87 150.24C439.87 140.242 439.87 130.268 439.87 120.318C438.051 130.409 434.995 140.172 430.703 149.609C426.458 159.046 420.3 167.058 412.23 173.645C408.031 177.008 403.133 179.788 397.535 181.983C391.936 184.132 386.245 185.137 380.46 184.997C374.676 184.903 369.427 183.128 364.716 179.671C360.937 176.681 358.395 173.014 357.088 168.669C355.782 164.278 355.502 159.77 356.249 155.145C357.042 150.473 358.674 146.222 361.147 142.391C365.719 135.711 371.48 130.455 378.431 126.625C385.429 122.794 392.636 119.5 400.054 116.744C400.8 116.464 401.523 116.16 402.223 115.833C407.168 113.918 412.09 111.722 416.988 109.246C421.886 106.723 426.318 103.687 430.283 100.136C434.295 96.5393 437.398 92.1713 439.59 87.0325C439.31 83.7624 438.564 80.5623 437.351 77.4323C436.185 74.2556 434.482 71.476 432.243 69.0935C429.91 66.7576 427.344 65.1926 424.545 64.3985C421.793 63.6043 418.854 63.1838 415.728 63.1371C407.891 62.8568 400.31 64.1182 392.986 66.9211C385.662 69.7241 378.874 73.6016 372.623 78.5535C366.419 83.5054 361.077 89.0413 356.599 95.1612C352.26 101.141 348.225 107.401 344.493 113.941C340.807 120.435 337.262 126.975 333.856 133.562C328.491 143.793 323.5 154.187 318.881 164.745C317.715 167.408 316.526 170.071 315.313 172.734C309.528 186.001 303.463 199.175 297.119 212.256C293.807 218.889 290.214 225.36 286.342 231.666C286.063 232.133 285.783 232.601 285.503 233.068C283.59 236.338 281.537 239.561 279.345 242.738C277.152 245.915 274.633 248.788 271.787 251.357C268.848 253.973 265.49 255.865 261.711 257.033C257.979 258.248 254.177 258.318 250.305 257.243C246.386 255.935 243.307 253.646 241.068 250.376C238.829 247.106 237.406 243.509 236.799 239.585C235.773 231.783 237.149 224.495 240.928 217.721C244.66 210.994 249.698 205.458 256.043 201.114C263.414 196.255 271.391 192.845 279.975 190.883C288.558 188.921 297.189 187.543 305.866 186.749C305.866 186.655 305.889 186.585 305.936 186.538C306.636 184.857 307.312 183.175 307.965 181.493C307.079 179.624 304.046 173.154 298.868 162.082C293.737 150.964 287.789 138.14 281.024 123.611C274.26 109.083 268.079 95.8152 262.481 83.8091C256.882 71.7563 253.22 63.8846 251.494 60.194H275.286L319.651 155.425C319.698 155.332 319.814 155.332 320.001 155.425C324.2 146.362 328.631 137.416 333.296 128.587C338.241 118.916 343.7 109.433 349.671 100.136C355.642 90.8399 362.92 82.758 371.503 75.8907C377.988 70.892 385.149 66.9679 392.986 64.1182C400.87 61.2218 408.964 59.9838 417.268 60.4042C423.706 60.7779 430.004 62.086 436.161 64.3284C442.319 66.5241 447.684 69.9811 452.256 74.6994C455.615 78.39 457.971 82.4777 459.324 86.9624C460.676 91.4472 461.446 96.1422 461.633 101.047C461.819 105.953 461.819 110.834 461.633 115.693C461.493 118.589 461.423 121.416 461.423 124.172C461.423 136.272 461.423 148.371 461.423 160.471ZM286.342 226.2C293.2 214.428 299.288 202.258 304.606 189.692C299.708 190.206 294.81 190.906 289.911 191.794C285.013 192.728 280.301 194.223 275.776 196.279C270.691 198.755 266.166 202.305 262.201 206.93C258.235 211.602 255.413 216.811 253.734 222.557C252.101 228.303 252.241 234.025 254.153 239.725C254.76 241.594 255.716 243.509 257.022 245.471C258.329 247.433 259.985 248.718 261.991 249.325C263.857 249.699 265.699 249.489 267.519 248.694C269.338 247.9 270.971 246.919 272.417 245.751C275.03 243.556 277.269 241.056 279.135 238.253C281.001 235.45 282.75 232.554 284.383 229.564C285.036 228.443 285.689 227.322 286.342 226.2ZM430.493 143.232C433.666 135.244 436.021 126.975 437.561 118.426C439.1 109.877 439.87 101.328 439.87 92.7786C436.185 98.6182 431.52 103.43 425.875 107.214C420.23 110.951 414.259 114.058 407.961 116.534C399.704 121.439 392.823 127.816 387.318 135.664C385.032 138.981 383.306 142.555 382.14 146.386C381.02 150.216 380.647 154.141 381.02 158.158C381.347 162.036 382.443 165.703 384.309 169.16C386.222 172.617 389.184 174.789 393.196 175.677C397.395 176.284 401.547 175.63 405.652 173.715C409.804 171.753 413.303 169.277 416.148 166.287C422.399 159.513 427.181 151.828 430.493 143.232Z" fill="#1A3C39"/>
<path d="M477.377 0.210223H499V184.016H477.377V0.210223Z" fill="#1A3C39"/>
<path d="M344.757 214H350.154V259.859H344.757V254.737C342.806 256.835 340.487 258.292 337.8 259.107C335.113 259.912 332.379 259.982 329.599 259.317C327.239 258.711 325.142 257.621 323.308 256.048C321.485 254.463 320.101 252.551 319.154 250.313C318.255 248.087 317.881 245.785 318.033 243.407C318.196 241.03 318.88 238.797 320.083 236.711C321.333 234.613 322.969 232.911 324.99 231.606C327.011 230.289 329.237 229.485 331.667 229.193C334.143 228.948 336.521 229.257 338.799 230.12C341.089 230.982 343.075 232.323 344.757 234.141V214ZM334.646 259.02C336.702 258.834 338.588 258.274 340.306 257.342C342.035 256.398 343.519 255.168 344.757 253.653V235.225C343.285 233.453 341.515 232.095 339.447 231.151C337.379 230.196 335.189 229.753 332.876 229.823C330.481 231.07 328.541 232.812 327.058 235.05C325.282 237.848 324.4 240.855 324.412 244.072C324.423 247.289 325.253 250.261 326.9 252.988C328.547 255.716 330.925 257.738 334.032 259.055C334.243 259.055 334.447 259.043 334.646 259.02Z" fill="#1A3C39"/>
<path d="M383.082 249.177C383.105 249.177 383.152 249.177 383.222 249.177C383.304 249.177 383.391 249.177 383.485 249.177C383.578 249.177 383.654 249.177 383.713 249.177C383.783 249.177 383.824 249.177 383.835 249.177C383.193 251.042 382.229 252.726 380.944 254.23C379.67 255.722 378.181 256.957 376.475 257.936C374.431 259.09 372.234 259.824 369.886 260.139C367.538 260.454 365.231 260.314 362.964 259.719C360.71 259.113 358.706 257.994 356.954 256.363C355.131 254.614 353.805 252.574 352.976 250.243C352.146 247.912 351.825 245.511 352.012 243.04C352.21 240.569 352.946 238.25 354.22 236.082C354.22 236.082 354.249 236.035 354.307 235.942C354.378 235.837 354.453 235.72 354.535 235.592C354.617 235.452 354.699 235.318 354.781 235.19C354.862 235.062 354.927 234.969 354.973 234.91C355.616 234.001 356.346 233.174 357.164 232.428C358.846 230.936 360.815 229.898 363.069 229.316C365.324 228.721 367.55 228.675 369.746 229.176C372.515 229.898 374.851 231.291 376.756 233.354C378.66 235.406 379.951 237.807 380.628 240.557C378.888 240.557 377.147 240.557 375.406 240.557C369.109 240.557 362.807 240.557 356.498 240.557C356.697 243.739 357.666 246.677 359.407 249.369C361.148 252.05 363.467 254.084 366.364 255.471C368.233 256.31 370.143 256.724 372.094 256.712C374.045 256.701 375.885 256.263 377.614 255.401C379.343 254.527 380.809 253.233 382.013 251.52C382.433 250.774 382.79 249.993 383.082 249.177ZM356.48 239.858H375.213C374.77 238.261 374.104 236.682 373.216 235.12C372.34 233.547 371.224 232.247 369.869 231.221C368.525 230.196 366.925 229.694 365.067 229.718C363.864 229.764 362.643 230.044 361.405 230.557C360.178 231.058 359.173 231.769 358.391 232.69C357.619 233.681 357.1 234.817 356.831 236.099C356.562 237.381 356.445 238.634 356.48 239.858Z" fill="#1A3C39"/>
<path d="M406.686 229.106H407.44C407.3 229.432 406.546 231.116 405.179 234.158C403.824 237.201 402.265 240.692 400.501 244.631C398.736 248.571 397.183 252.038 395.839 255.034C394.496 258.029 393.771 259.638 393.666 259.859H393.333L378.964 229.106H384.939C384.939 229.106 385.313 229.916 386.061 231.536C386.82 233.144 387.749 235.126 388.847 237.48C389.945 239.823 391.038 242.166 392.124 244.509C393.222 246.852 394.145 248.833 394.893 250.453C395.652 252.062 396.032 252.866 396.032 252.866C396.242 252.423 396.879 251.013 397.942 248.635C399.005 246.257 400.203 243.582 401.534 240.61C402.866 237.626 404.034 235.009 405.039 232.76C406.056 230.51 406.605 229.292 406.686 229.106Z" fill="#1A3C39"/>
<path d="M436.284 249.177C436.308 249.177 436.354 249.177 436.425 249.177C436.506 249.177 436.594 249.177 436.687 249.177C436.781 249.177 436.857 249.177 436.915 249.177C436.985 249.177 437.026 249.177 437.038 249.177C436.395 251.042 435.432 252.726 434.146 254.23C432.873 255.722 431.383 256.957 429.678 257.936C427.633 259.09 425.437 259.824 423.089 260.139C420.741 260.454 418.433 260.314 416.167 259.719C413.912 259.113 411.909 257.994 410.156 256.363C408.334 254.614 407.008 252.574 406.178 250.243C405.349 247.912 405.028 245.511 405.214 243.04C405.413 240.569 406.149 238.25 407.422 236.082C407.422 236.082 407.452 236.035 407.51 235.942C407.58 235.837 407.656 235.72 407.738 235.592C407.82 235.452 407.901 235.318 407.983 235.19C408.065 235.062 408.129 234.969 408.176 234.91C408.819 234.001 409.549 233.174 410.366 232.428C412.049 230.936 414.017 229.898 416.272 229.316C418.527 228.721 420.752 228.675 422.949 229.176C425.717 229.898 428.054 231.291 429.958 233.354C431.862 235.406 433.153 237.807 433.831 240.557C432.09 240.557 430.35 240.557 428.609 240.557C422.312 240.557 416.009 240.557 409.701 240.557C409.899 243.739 410.869 246.677 412.61 249.369C414.35 252.05 416.669 254.084 419.567 255.471C421.436 256.31 423.346 256.724 425.297 256.712C427.248 256.701 429.088 256.263 430.817 255.401C432.546 254.527 434.012 253.233 435.215 251.52C435.636 250.774 435.992 249.993 436.284 249.177ZM409.683 239.858H428.416C427.972 238.261 427.306 236.682 426.418 235.12C425.542 233.547 424.426 232.247 423.071 231.221C421.728 230.196 420.127 229.694 418.27 229.718C417.066 229.764 415.846 230.044 414.607 230.557C413.381 231.058 412.376 231.769 411.593 232.69C410.822 233.681 410.302 234.817 410.034 236.099C409.765 237.381 409.648 238.634 409.683 239.858Z" fill="#1A3C39"/>
<path d="M438.615 214.017H444.03V259.877H438.615V214.017Z" fill="#1A3C39"/>
<path d="M475.731 238.949C476.992 242.399 477.08 245.826 475.994 249.229C474.919 252.621 472.868 255.36 469.843 257.447C466.98 259.276 463.896 260.122 460.59 259.982C457.296 259.853 454.293 258.758 451.583 256.695C448.919 254.538 447.143 251.852 446.255 248.635C445.379 245.418 445.531 242.201 446.711 238.984C447.833 236.152 449.597 233.85 452.003 232.078C454.41 230.295 457.144 229.286 460.205 229.053C463.639 228.878 466.764 229.689 469.58 231.484C472.395 233.278 474.446 235.767 475.731 238.949ZM466.566 258.338C468.283 257.616 469.492 256.45 470.193 254.841C470.906 253.233 471.268 251.485 471.28 249.596C471.291 247.708 471.11 245.983 470.736 244.421C470.141 241.834 469.107 239.357 467.635 236.991C466.174 234.625 464.27 232.766 461.922 231.414C460.8 230.784 459.638 230.423 458.435 230.33C457.231 230.236 456.057 230.504 454.912 231.134C454.013 231.682 453.288 232.416 452.739 233.337C452.19 234.246 451.799 235.202 451.565 236.204C450.946 238.803 450.929 241.437 451.513 244.107C452.097 246.764 453.072 249.218 454.439 251.467C455.234 252.808 456.256 254.119 457.506 255.401C458.756 256.683 460.158 257.645 461.712 258.286C463.265 258.915 464.883 258.933 466.566 258.338Z" fill="#1A3C39"/>
<path d="M506.152 233.721C508.769 236.379 510.253 239.567 510.603 243.285C510.825 246.572 510.118 249.596 508.483 252.359C506.859 255.11 504.552 257.178 501.561 258.565C498.477 259.894 495.334 260.221 492.133 259.545C488.932 258.869 486.187 257.307 483.897 254.859V275H478.499V229.158H483.897V234.263C485.895 232.13 488.225 230.685 490.889 229.927C493.564 229.158 496.251 229.088 498.95 229.718C501.66 230.347 504.061 231.682 506.152 233.721ZM495.287 259.195C495.451 259.195 495.615 259.195 495.778 259.195C498.173 257.936 500.112 256.188 501.596 253.95C503.372 251.152 504.254 248.145 504.242 244.928C504.23 241.711 503.401 238.745 501.754 236.029C500.106 233.302 497.729 231.274 494.622 229.945C490.276 230.225 486.701 232.026 483.897 235.347V253.775C485.31 255.488 487.01 256.823 488.996 257.779C490.994 258.723 493.091 259.195 495.287 259.195Z" fill="#1A3C39"/>
<path d="M555.097 229.735C556.078 230.19 556.837 230.825 557.375 231.641C557.912 232.445 558.28 233.343 558.479 234.333C558.677 235.324 558.777 236.309 558.777 237.288C558.777 244.853 558.777 252.417 558.777 259.982H553.379C553.379 258.828 553.379 257.68 553.379 256.537C553.379 255.395 553.379 254.247 553.379 253.093C553.379 251.287 553.385 249.474 553.397 247.656C553.443 243.938 553.432 240.219 553.362 236.501C553.362 235.65 553.245 234.712 553.011 233.686C552.789 232.661 552.38 231.798 551.785 231.099C551.189 230.388 550.342 230.079 549.244 230.172C548.297 230.324 547.38 230.668 546.492 231.204C545.604 231.728 544.798 232.282 544.074 232.865C541.609 234.776 539.705 237.142 538.361 239.963C538.361 240.814 538.361 241.659 538.361 242.498C538.361 248.314 538.361 254.125 538.361 259.929H532.946C532.946 258.193 532.946 256.462 532.946 254.737C532.946 249.223 532.946 243.705 532.946 238.18C532.946 238.017 532.946 237.848 532.946 237.673C532.981 236.647 532.94 235.621 532.824 234.596C532.719 233.558 532.403 232.591 531.877 231.693C531.352 230.842 530.604 230.324 529.634 230.137C529.412 230.102 529.208 230.091 529.021 230.102C528.834 230.114 528.682 230.137 528.565 230.172C528.46 230.196 528.408 230.207 528.408 230.207C526.094 230.976 524.027 232.241 522.204 234.001C520.382 235.761 518.962 237.731 517.946 239.911V259.824H512.531V229.088H517.946V238.372C518.869 236.694 520.084 235.108 521.591 233.617C523.098 232.125 524.786 230.947 526.655 230.085C528.524 229.211 530.47 228.878 532.491 229.088C535.189 229.461 536.989 230.918 537.888 233.459C538.122 234.205 538.262 234.957 538.309 235.715C538.355 236.46 538.373 237.218 538.361 237.987C538.361 238.139 538.361 238.285 538.361 238.424C539.109 237.072 540.09 235.738 541.305 234.421C542.52 233.104 543.887 231.967 545.406 231.011C546.925 230.044 548.508 229.415 550.155 229.123C551.814 228.832 553.461 229.036 555.097 229.735Z" fill="#1A3C39"/>
<path d="M591.722 249.177C591.745 249.177 591.792 249.177 591.862 249.177C591.944 249.177 592.031 249.177 592.125 249.177C592.218 249.177 592.294 249.177 592.352 249.177C592.423 249.177 592.463 249.177 592.475 249.177C591.833 251.042 590.869 252.726 589.584 254.23C588.31 255.722 586.821 256.957 585.115 257.936C583.071 259.09 580.874 259.824 578.526 260.139C576.178 260.454 573.871 260.314 571.604 259.719C569.349 259.113 567.346 257.994 565.593 256.363C563.771 254.614 562.445 252.574 561.615 250.243C560.786 247.912 560.465 245.511 560.652 243.04C560.85 240.569 561.586 238.25 562.86 236.082C562.86 236.082 562.889 236.035 562.947 235.942C563.017 235.837 563.093 235.72 563.175 235.592C563.257 235.452 563.339 235.318 563.42 235.19C563.502 235.062 563.566 234.969 563.613 234.91C564.256 234.001 564.986 233.174 565.804 232.428C567.486 230.936 569.454 229.898 571.709 229.316C573.964 228.721 576.19 228.675 578.386 229.176C581.155 229.898 583.491 231.291 585.395 233.354C587.3 235.406 588.591 237.807 589.268 240.557C587.528 240.557 585.787 240.557 584.046 240.557C577.749 240.557 571.446 240.557 565.138 240.557C565.336 243.739 566.306 246.677 568.047 249.369C569.787 252.05 572.106 254.084 575.004 255.471C576.873 256.31 578.783 256.724 580.734 256.712C582.685 256.701 584.525 256.263 586.254 255.401C587.983 254.527 589.449 253.233 590.653 251.52C591.073 250.774 591.43 249.993 591.722 249.177ZM565.12 239.858H583.853C583.409 238.261 582.743 236.682 581.856 235.12C580.979 233.547 579.864 232.247 578.509 231.221C577.165 230.196 575.565 229.694 573.707 229.718C572.504 229.764 571.283 230.044 570.044 230.557C568.818 231.058 567.813 231.769 567.03 232.69C566.259 233.681 565.739 234.817 565.471 236.099C565.202 237.381 565.085 238.634 565.12 239.858Z" fill="#1A3C39"/>
<path d="M616.202 229.805C618.492 230.901 619.713 233.109 619.865 236.431V260.052H614.468V237.026C614.468 235.429 614.316 234.17 614.012 233.249C613.72 232.329 613.352 231.647 612.908 231.204C612.476 230.761 612.038 230.481 611.594 230.365C611.161 230.236 610.788 230.19 610.472 230.225C610.157 230.26 609.976 230.289 609.929 230.312C608.691 230.708 607.423 231.355 606.126 232.253C603.147 234.328 600.922 236.921 599.45 240.033V259.947H594.052V229.211H599.45V238.494C600.968 235.79 603.06 233.517 605.723 231.676C607.405 230.522 609.053 229.764 610.665 229.403C611.985 229.1 613.253 229.059 614.468 229.281C615.075 229.397 615.653 229.572 616.202 229.805Z" fill="#1A3C39"/>
<path d="M640 229.473V230.172H629.573C629.573 230.732 629.573 232.212 629.573 234.613C629.573 237.014 629.573 239.625 629.573 242.446C629.573 245.266 629.573 247.586 629.573 249.404C629.573 249.905 629.573 250.412 629.573 250.925C629.573 251.928 629.573 252.936 629.573 253.95C629.562 255.08 629.795 256.176 630.274 257.237C630.753 258.297 631.583 258.991 632.763 259.317C632.763 259.317 632.839 259.323 632.99 259.335C633.142 259.346 633.312 259.358 633.499 259.37C633.697 259.381 633.872 259.387 634.024 259.387C634.024 259.387 634.141 259.358 634.375 259.3C634.608 259.23 634.912 259.078 635.286 258.845C635.672 258.6 636.086 258.227 636.53 257.726L638.037 259.3C636.39 259.953 634.719 260.186 633.025 259.999C631.343 259.824 629.801 259.271 628.399 258.338C626.997 257.406 625.905 256.135 625.122 254.527C624.69 253.583 624.421 252.621 624.316 251.642C624.223 250.663 624.176 249.666 624.176 248.652C624.176 247.883 624.176 246.286 624.176 243.862C624.176 241.437 624.176 238.926 624.176 236.326C624.176 233.727 624.176 231.676 624.176 230.172H620.268V229.473H624.176V221.885H629.556L629.573 229.473H640Z" fill="#1A3C39"/>
</mask>
<g mask="url(#mask0_56_1627)">
<rect width="654" height="275" fill="url(#paint0_linear_56_1627)"/>
</g>
<defs>
<linearGradient id="paint0_linear_56_1627" x1="327" y1="0" x2="327" y2="275" gradientUnits="userSpaceOnUse">
<stop stop-color="#D7B88A"/>
<stop offset="1" stop-color="#E1CEB0" stop-opacity="0"/>
</linearGradient>
</defs>
</svg>
